<?xml version="1.0" encoding="utf-8"?>
<!-- Generator: Adobe Illustrator 23.0.0, SVG Export Plug-In . SVG Version: 6.00 Build 0)  -->
<svg version="1.1" id="Layer_1" xmlns="http://www.w3.org/2000/svg" xmlns:xlink="http://www.w3.org/1999/xlink" x="0px" y="0px"
	 viewBox="0 0 46.2 69.1" style="enable-background:new 0 0 46.2 69.1;" xml:space="preserve">
<style type="text/css">
	.st0{fill:#FFFFFF;stroke:#828282;stroke-miterlimit:10;}
</style>
<path class="st0" d="M42.2,68H4.5c-1.5,0-2.8-1.3-2.8-2.8V4.8C1.7,3.3,3,2,4.5,2h37.7C43.7,2,45,3.3,45,4.8v60.5
	C45,66.8,43.7,68,42.2,68z"/>
<path d="M24,52.1c-0.1,1,0.4,1.8,0.7,2.6c0.4,1.2,0.2,1.5-1.1,1.5c-2.6,0.1-2.5,0.1-1.8-2.4c0.2-0.6,0.8-1.3,0.3-1.7
	c-0.5-0.4-0.9,0.6-1.3,1c-1.2,1-3.1,0.8-4.3-0.6c-1.1-1.2-1.4-2.7-0.8-4.2c0.5-1.5,1.7-2.2,3.2-2.3c1.2,0,1.1-0.5,0.8-1.4
	c-0.9-2.2-0.4-3.7,1.3-4.8c1.7-1,4-0.7,5.4,0.7c0.7,0.8,1,1.6,0.8,2.6c-0.1,0.5-0.2,1.1-0.4,1.6c-0.3,0.8-0.5,1.2,0.7,1.2
	c1.9,0.1,3.3,1.5,3.6,3.4c0.2,1.4-1.1,3.5-2.5,4.2c-1.3,0.6-2.3,0.1-3.3-0.6C24.8,52.6,24.6,52.1,24,52.1z"/>
<path d="M23.1,36.3c-1.9,0-3.8,0-5.6,0c-1.5,0-1.9-0.5-1.9-2c-0.1-4.2,2.2-7.1,5.3-9.6c1.2-1,2.6-1.7,4-2.4c2.4-1.2,3.4-3.2,3.4-5.7
	c0-1.7-0.9-2.9-2.4-3.6c-3.1-1.5-6.6,0.3-7.3,3.7c-0.2,0.7-0.3,1.3-1.2,1.4c-1.1,0.1-1.6-0.4-1.4-1.5c0.9-5.7,7-8.4,11.9-5.3
	c2.2,1.4,3,3.4,2.9,6c-0.2,4-2.4,6.4-6,8c-2.9,1.4-5.5,3.4-6.5,6.7c-0.4,1.3-0.1,1.7,1.2,1.8c2.4,0,4.8,0,7.2,0
	c0.9,0,1.2-0.4,1.2-1.2c0-0.5,0-1,0-1.6c0-0.7,0.2-1.2,0.9-1.3c0.8-0.1,1.6,0.2,1.6,1c0.1,1.5,0,3.1,0,4.7c0,0.8-0.7,0.7-1.2,0.7
	C27.3,36.2,25.2,36.2,23.1,36.3C23.1,36.2,23.1,36.2,23.1,36.3z"/>
</svg>
