<?xml version="1.0" encoding="utf-8"?>
<!-- Generator: Adobe Illustrator 23.0.0, SVG Export Plug-In . SVG Version: 6.00 Build 0)  -->
<svg version="1.1" id="Layer_1" xmlns="http://www.w3.org/2000/svg" xmlns:xlink="http://www.w3.org/1999/xlink" x="0px" y="0px"
	 viewBox="0 0 46.2 69.1" style="enable-background:new 0 0 46.2 69.1;" xml:space="preserve">
<style type="text/css">
	.st0{fill:#FFFFFF;stroke:#828282;stroke-miterlimit:10;}
	.st1{fill:#050505;}
	.st2{fill:#080808;}
</style>
<path class="st0" d="M42.2,67.7H4.5c-1.5,0-2.8-1.3-2.8-2.8V4.4c0-1.5,1.3-2.8,2.8-2.8h37.7c1.5,0,2.8,1.3,2.8,2.8v60.5
	C45,66.4,43.7,67.7,42.2,67.7z"/>
<path class="st1" d="M24.5,52c-0.2,0.9,0.1,1.6,0.5,2.4c0.7,1.5,0.6,1.6-0.9,1.8c-0.4,0.1-0.9,0.2-1.3,0c-0.7-0.2-1.3-0.4-0.6-1.3
	c0.3-0.4,0.4-1,0.6-1.4c0.2-0.4,0.1-0.7-0.2-1c-0.3-0.2-0.6-0.1-0.9,0.2c-1.8,1.3-3.3,1.3-4.7-0.1c-1.3-1.3-1.4-3.6-0.3-5.1
	c0.8-1,1.8-1.4,3-1.3c0.7,0.1,1-0.1,0.7-0.9c-0.3-0.8-0.5-1.6-0.6-2.4c-0.1-1.4,0.5-2.4,1.7-3c1.5-0.8,3.1-0.7,4.6,0.2
	c1.2,0.7,1.6,1.9,1.4,3.2c-0.1,0.5-0.2,1.1-0.5,1.6c-0.5,1.1,0,1.3,0.9,1.3c1.5-0.1,2.4,0.7,3,1.9c0.8,1.5,0.4,3.7-0.9,4.8
	c-1,0.9-3,0.9-4.3,0C25.4,52.7,25,52.4,24.5,52z"/>
<path class="st2" d="M27.1,17.6c0,2.3,0,4.6,0,7c0,0.8,0.2,1.2,1.1,1.3c0.5,0,1.3-0.1,1.6,0.5C30.4,27,30,27.9,29,28
	c-1.4,0.1-1.9,0.8-1.6,2.1c0,0.4,0,0.7,0,1.1c-0.1,1,0.2,1.6,1.3,1.6c1,0,1.1,0.8,1.1,1.5c0,0.8-0.7,0.8-1.2,0.8c-1.8,0-3.7,0-5.5,0
	c-0.6,0-0.7-0.4-0.7-0.8c0-0.5-0.4-1,0.5-1.2c1.9-0.6,1.9-0.6,1.9-2.6c0-2,0.5-2.1-2-2.1c-1.8,0-3.7,0-5.5,0c-2,0-2.9-1.5-1.9-3.2
	c1-1.9,2.2-3.8,3.3-5.7c1.6-2.8,3.3-5.7,4.9-8.5c0.8-1.3,1.9-1.7,3.4-1.3c0.6,0.2,0.5,0.6,0.5,1.1c0,2.4,0,4.7,0,7.1
	C27.2,17.6,27.2,17.6,27.1,17.6z M17.5,25.8c2.2,0,4.1,0,6.1,0c0.9,0,1.2-0.2,1.2-1.1c0-2.9,0.1-5.8,0.1-8.6c0-0.9,0.2-1.9-0.1-3
	C22.3,17.3,20,21.4,17.5,25.8z"/>
</svg>
