<?xml version="1.0" encoding="utf-8"?>
<!-- Generator: Adobe Illustrator 23.0.0, SVG Export Plug-In . SVG Version: 6.00 Build 0)  -->
<svg version="1.1" id="Layer_1" xmlns="http://www.w3.org/2000/svg" xmlns:xlink="http://www.w3.org/1999/xlink" x="0px" y="0px"
	 viewBox="0 0 46.2 69.1" style="enable-background:new 0 0 46.2 69.1;" xml:space="preserve">
<style type="text/css">
	.st0{fill:#FFFFFF;stroke:#828282;stroke-miterlimit:10;}
	.st1{fill:#CC352B;}
	.st2{fill:#D12708;}
</style>
<path class="st0" d="M42.2,67.7H4.5c-1.5,0-2.8-1.3-2.8-2.8V4.4c0-1.5,1.3-2.8,2.8-2.8h37.7c1.5,0,2.8,1.3,2.8,2.8v60.5
	C45,66.4,43.7,67.7,42.2,67.7z"/>
<path class="st1" d="M15.3,44.1c0-1.5,0.7-3.1,2.5-3.8c1.8-0.8,3.3-0.2,4.6,1.2c0.7,0.7,1.1,0.9,1.9,0c1.2-1.3,2.8-1.7,4.5-1.1
	c2,0.6,2.9,2.6,2.3,5.2c-0.5,2.4-1.8,4.3-3.2,6.2c-1,1.4-2.3,2.6-3.4,4c-1,1.2-1.4,1.2-2.5,0.1c-2-2-3.6-4.4-5.1-6.7
	C15.9,47.8,15.2,46.2,15.3,44.1z"/>
<path class="st2" d="M27.1,22.9c0-2.3,0-4.6,0-6.9c0-0.8-0.1-1.4-0.9-1.8c-0.6-0.3-0.5-0.9-0.5-1.5c0.1-0.6,0.5-0.8,1-0.8
	c1.1,0.1,2.1-0.2,3.2,0c0.3,0.1,0.8,0,0.8,0.5c-0.1,0.5,0.5,1.1-0.3,1.5c-0.9,0.4-1,1.2-1,2.1c0,4.6,0,9.3,0,13.9
	c0,3.7-2.3,6.2-5.6,6.4c-3.8,0.2-6.4-2.1-6.8-5.9c0-0.5,0-1,0-1.6c0-0.9,0.5-1.2,1.3-1.2c0.8,0,1.2,0.4,1.1,1.2c0,0.7,0,1.4,0.2,2
	c0.5,2,2,3.1,4,3c2-0.1,3.2-1.2,3.3-3.3C27.1,28.1,27,25.5,27.1,22.9C27,22.9,27,22.9,27.1,22.9z"/>
</svg>
