<?xml version="1.0" encoding="utf-8"?>
<!-- Generator: Adobe Illustrator 23.0.0, SVG Export Plug-In . SVG Version: 6.00 Build 0)  -->
<svg version="1.1" id="Layer_1" xmlns="http://www.w3.org/2000/svg" xmlns:xlink="http://www.w3.org/1999/xlink" x="0px" y="0px"
	 viewBox="0 0 46.2 69.1" style="enable-background:new 0 0 46.2 69.1;" xml:space="preserve">
<style type="text/css">
	.st0{fill:#FFFFFF;stroke:#828282;stroke-miterlimit:10;}
	.st1{fill:#D02203;}
	.st2{fill:#D02404;}
	.st3{fill:#D12A0C;}
</style>
<path class="st0" d="M42.2,67.7H4.5c-1.5,0-2.8-1.3-2.8-2.8V4.4c0-1.5,1.3-2.8,2.8-2.8h37.7c1.5,0,2.8,1.3,2.8,2.8v60.5
	C45,66.4,43.7,67.7,42.2,67.7z"/>
<path class="st1" d="M29.6,47.7c0,1-0.5,1.5-1,2.1c-1.6,1.8-3.1,3.6-4.5,5.6c-0.8,1.1-1,1.1-1.8,0.1c-1.8-2.2-3.6-4.3-5.4-6.4
	c-0.6-0.8-0.7-1.5,0-2.2c1.8-2.2,3.6-4.5,5.4-6.7c0.5-0.6,0.8-0.6,1.2-0.1c0.7,0.8,1.5,1.6,2.1,2.4c1,1.2,1.9,2.4,3,3.4
	C29.2,46.5,29.6,47.1,29.6,47.7z"/>
<path class="st2" d="M21.3,23.3c0-2.6,0-5.3,0-7.9c-0.1-3.6,2.1-4.7,4.7-5.2c2.3-0.4,5.1,0.9,6.1,3.2c0.4,1,0.3,2,0.3,2.9
	c0,5.1,0,10.3,0,15.5c0,2.4-1.5,4.3-3.8,4.9c-2.5,0.7-5.2-0.2-6.4-2c-0.6-1-0.8-2.1-0.8-3.2C21.3,28.7,21.4,26,21.3,23.3
	C21.3,23.3,21.3,23.3,21.3,23.3z M23.7,23.3C23.7,23.3,23.8,23.3,23.7,23.3c0,1,0,2.1,0,3.1c0,2-0.1,3.9,0.1,5.9
	c0.1,0.9,0.6,1.6,1.5,2c2.5,1,4.6-0.4,4.6-3c0-4.2,0-8.3,0-12.5c0-1.3,0-2.6-0.1-3.8c-0.2-1.7-1.4-2.5-3.4-2.4
	c-1.7,0.1-2.6,0.9-2.6,2.6C23.7,17.9,23.7,20.6,23.7,23.3z"/>
<path class="st3" d="M16.7,23.3c0-3.9,0-7.8,0-11.8c0-0.6,0-1.2,0.9-1.3c0.8-0.1,1.5,0.1,1.5,1.1c0,1.7,0.1,3.4,0.1,5
	c0,6.4,0.4,12.8,0.2,19.2c0,0.8-0.2,1.4-1,1.5c-0.8,0-1.3-0.4-1.4-1.2c0-0.3-0.1-0.6-0.1-1c0-3.8,0-7.7,0-11.5
	C16.8,23.3,16.8,23.3,16.7,23.3z"/>
</svg>
