<?xml version="1.0" encoding="utf-8"?>
<!-- Generator: Adobe Illustrator 23.0.0, SVG Export Plug-In . SVG Version: 6.00 Build 0)  -->
<svg version="1.1" id="Layer_1" xmlns="http://www.w3.org/2000/svg" xmlns:xlink="http://www.w3.org/1999/xlink" x="0px" y="0px"
	 viewBox="0 0 46.16 69.13" style="enable-background:new 0 0 46.16 69.13;" xml:space="preserve">
<style type="text/css">
	.st0{fill:#D02202;}
	.st1{fill:#D12608;}
	.st2{fill:#CF2101;}
	.st3{fill:#D02505;}
	.st4{fill:#D02203;}
</style>
<path class="st0" d="M16.53,47.44c-0.01-0.48,0.25-0.82,0.53-1.17c1.68-2.03,3.36-4.07,5.04-6.1c0.82-0.98,1.32-1.01,2.12-0.06
	c1.85,2.2,3.53,4.55,5.51,6.64c0.46,0.49,0.46,1.07-0.04,1.59c-1.97,2.05-3.69,4.31-5.45,6.53c-0.78,0.98-1.61,1-2.31-0.05
	c-1.41-2.1-3.14-3.93-4.72-5.89C16.86,48.48,16.49,48.05,16.53,47.44z"/>
<path class="st1" d="M23.15,36.25c-1.88,0-3.76,0.01-5.64,0c-1.4-0.01-1.7-0.27-1.76-1.67c-0.15-3.39,1.27-6.11,3.69-8.37
	c1.67-1.57,3.61-2.75,5.65-3.78c2.67-1.34,3.93-4.1,3.18-6.79c-0.46-1.65-1.58-2.61-3.25-3c-2.05-0.47-3.8,0.05-5.22,1.58
	c-0.75,0.81-1.15,1.81-1.38,2.88c-0.18,0.84-0.65,1.22-1.55,1.06c-0.96-0.18-0.91-0.78-0.8-1.53c0.55-3.84,3.62-6.31,7.69-6.53
	c2.62-0.14,6.35,2.11,6.95,4.65c0.95,4.06-0.75,8.29-4.8,10.01c-3.06,1.3-5.53,3.32-7.1,6.32c-0.24,0.45-0.39,0.97-0.49,1.47
	c-0.16,0.76,0.13,1.27,0.97,1.28c2.59,0.03,5.19,0.05,7.78,0.08c0.84,0.01,1.26-0.42,1.27-1.24c0.01-0.48,0.07-0.97-0.01-1.44
	c-0.15-1.01,0.26-1.27,1.23-1.28c0.81-0.01,1.14,0.13,1.1,1.02c-0.05,1.23,0.06,2.47,0.08,3.71c0.02,1.31-0.36,1.66-1.73,1.66
	c-1.96,0-3.92,0-5.87,0C23.15,36.3,23.15,36.28,23.15,36.25z"/>
<path d="M1.76,34.89c0-9.8,0-19.59,0-29.39c0-0.4-0.03-0.79-0.05-1.19C1.65,3.28,2.15,2.57,2.99,2.04c0.64-0.41,1.36-0.56,2.1-0.54
	c3.01,0.07,6.03,0.05,9.04,0.05c9.14,0.01,18.27,0,27.41,0c1.13,0,2.01,0.49,2.7,1.36c0.32,0.4,0.43,0.87,0.43,1.38
	c0,6.67,0.04,13.33-0.02,20c-0.09,11.3-0.01,22.6-0.04,33.9c-0.01,1.98,0,3.96-0.01,5.93c-0.01,1.52-1.25,3.05-2.72,3.38
	c-0.19,0.04-0.37,0.05-0.56,0.05c-4.04,0.02-8.08,0.05-12.12,0.05c-8.04,0.01-16.08-0.03-24.11,0.03c-1.92,0.01-3.35-1.82-3.35-3.36
	c0.04-6.69,0.02-13.37,0.02-20.06c0-3.11,0-6.22,0-9.32C1.76,34.89,1.76,34.89,1.76,34.89z M22.91,67.3
	C22.91,67.3,22.91,67.3,22.91,67.3c6.04,0,12.08-0.01,18.12,0c0.99,0,1.76-0.4,2.42-1.12c0.67-0.74,0.89-1.62,0.89-2.57
	c-0.03-9.9,0.07-19.8-0.05-29.7c-0.01-0.91,0.04-1.82,0.04-2.73c0.02-8.57,0.02-17.14,0.02-25.71c0-0.17,0-0.34,0.02-0.5
	c0.12-1.05-0.17-1.92-1.07-2.54c-0.53-0.37-1.1-0.56-1.76-0.56c-8.24-0.03-16.47,0.06-24.71-0.04C12.86,1.77,8.88,1.81,4.91,1.8
	c-0.48,0-0.94,0.08-1.37,0.29C2.58,2.55,1.96,3.2,2.01,4.37c0.08,2.1-0.01,4.2,0.06,6.31c0.06,1.79,0.01,3.58,0.01,5.37
	c0,14.67,0,29.35,0,44.02c0,0.15-0.01,0.29-0.01,0.44c-0.05,1.42-0.11,2.84,0.03,4.26c0.11,1.14,1.41,2.57,2.89,2.56
	C10.96,67.26,16.94,67.3,22.91,67.3z"/>
<path class="st2" d="M111.91,209.9c0,0.43-0.23,0.75-0.49,1.07c-5.19,6.33-10.37,12.67-15.58,18.99c-1.05,1.28-1.2,1.25-2.24-0.02
	c-5.07-6.22-10.15-12.45-15.21-18.67c-1.13-1.39-1.13-1.46,0.01-2.83c5.08-6.11,10.16-12.22,15.26-18.32
	c1.17-1.4,1.31-1.37,2.49,0.08c4.99,6.13,9.99,12.26,14.99,18.39C111.46,208.97,111.85,209.34,111.91,209.9z"/>
<path class="st3" d="M162.08,225.14c1.84,0,3.68-0.01,5.52,0c1.5,0.01,1.81,0.32,1.84,1.83c0.08,3.64-1.63,6.42-4.25,8.74
	c-1.35,1.2-2.87,2.15-4.5,2.94c-1.62,0.79-2.93,1.9-3.57,3.68c-0.92,2.56-0.25,4.82,1.8,5.94c2.26,1.23,5.14,0.63,6.69-1.37
	c0.6-0.78,0.95-1.66,1.11-2.62c0.18-1.09,0.98-1.02,1.75-0.9c0.87,0.13,0.74,0.8,0.63,1.4c-0.92,4.98-6.08,7.84-10.81,5.99
	c-2.25-0.89-3.91-3.51-3.99-6.01c-0.1-2.74,0.92-4.94,2.85-6.78c0.75-0.72,1.68-1.2,2.63-1.6c2.55-1.07,4.54-2.8,6.04-5.1
	c0.32-0.5,0.58-1.05,0.77-1.61c0.58-1.66,0.26-2.11-1.49-2.12c-2.24-0.02-4.48,0.03-6.72-0.02c-1.08-0.03-1.49,0.52-1.37,1.45
	c0.07,0.54-0.07,1.02-0.1,1.53c-0.04,0.8-0.61,0.92-1.27,0.92c-0.68,0-1.07-0.32-1.07-1c-0.02-1.4-0.03-2.8,0.01-4.2
	c0.02-0.87,0.61-1.11,1.39-1.1C158,225.15,160.04,225.14,162.08,225.14z"/>
<path class="st4" d="M162.08,221.5c-0.16-0.19-0.34-0.4-0.52-0.6c-2.01-2.26-3.65-4.84-5.89-6.92c-0.64-0.6-0.57-1.26,0.07-1.98
	c1.82-2.05,3.6-4.14,5.32-6.28c0.93-1.16,1.24-1.25,2.15-0.13c1.73,2.14,3.44,4.3,5.19,6.43c0.61,0.74,0.64,1.34-0.01,2.1
	c-1.92,2.25-3.77,4.55-5.66,6.82C162.56,221.14,162.45,221.44,162.08,221.5z"/>
</svg>
