<?xml version="1.0" encoding="utf-8"?>
<!-- Generator: Adobe Illustrator 23.0.0, SVG Export Plug-In . SVG Version: 6.00 Build 0)  -->
<svg version="1.1" id="Layer_1" xmlns="http://www.w3.org/2000/svg" xmlns:xlink="http://www.w3.org/1999/xlink" x="0px" y="0px"
	 viewBox="0 0 46.16 69.13" style="enable-background:new 0 0 46.16 69.13;" xml:space="preserve">
<style type="text/css">
	.st0{fill:#CC352B;}
	.st1{fill:#CD3930;}
</style>
<path class="st0" d="M31.59,44.41c-0.07,2.57-0.86,4.21-1.8,5.73c-1.4,2.27-3.22,4.22-5.03,6.17c-1.27,1.36-1.33,1.4-2.59,0.11
	c-2.41-2.46-4.42-5.24-5.94-8.34c-0.58-1.19-0.88-2.48-0.66-3.84c0.26-1.61,0.99-2.91,2.59-3.45c1.58-0.53,2.99-0.04,4.2,1.06
	c1.21,1.1,1.21,1.1,2.34,0.03c1.23-1.16,3.19-1.51,4.68-0.84C30.83,41.7,31.59,43.11,31.59,44.41z"/>
<path class="st1" d="M25.79,36.23c-2.84,0-5.67,0.01-8.51-0.01c-1.37-0.01-1.68-0.34-1.69-1.72c-0.02-3.58,1.65-6.34,4.25-8.64
	c1.57-1.39,3.36-2.43,5.25-3.32c1.91-0.9,3.02-2.39,3.38-4.49c0.77-4.49-3.23-6.12-6.23-5.24c-1.93,0.56-3.09,1.9-3.61,3.82
	c-0.07,0.27-0.11,0.55-0.2,0.81c-0.27,0.78-0.87,0.84-1.56,0.7c-0.7-0.15-0.83-0.58-0.75-1.25c0.38-3.17,2.97-6.81,7.99-6.67
	c2.28,0.06,4.12,0.98,5.57,2.54c1.43,1.54,1.53,3.57,1.26,5.59c-0.31,2.29-1.43,4.14-3.26,5.5c-1.04,0.77-2.26,1.31-3.41,1.92
	c-2.63,1.41-4.83,3.22-5.84,6.17c-0.53,1.55-0.26,1.94,1.4,1.97c2.32,0.05,4.64,0.07,6.95,0.15c1.09,0.04,1.53-0.47,1.53-1.5
	c0-0.52,0.01-1.04,0.1-1.55c0.06-0.35-0.31-1.03,0.44-0.98c0.67,0.04,1.66-0.04,1.74,0.9c0.13,1.58,0.07,3.19-0.01,4.78
	c-0.03,0.65-0.65,0.72-1.2,0.72c-1.2,0-2.4,0-3.6,0C25.79,36.36,25.79,36.3,25.79,36.23z"/>
<path d="M1.76,34.89c0-9.8,0-19.59,0-29.39c0-0.4-0.03-0.79-0.05-1.19C1.65,3.28,2.15,2.57,2.99,2.04c0.64-0.41,1.36-0.56,2.1-0.54
	c3.01,0.07,6.03,0.05,9.04,0.05c9.14,0.01,18.27,0,27.41,0c1.13,0,2.01,0.49,2.7,1.36c0.32,0.4,0.43,0.87,0.43,1.38
	c0,6.67,0.04,13.33-0.02,20c-0.09,11.3-0.01,22.6-0.04,33.9c-0.01,1.98,0,3.96-0.01,5.93c-0.01,1.52-1.25,3.05-2.72,3.38
	c-0.19,0.04-0.37,0.05-0.56,0.05c-4.04,0.02-8.08,0.05-12.12,0.05c-8.04,0.01-16.08-0.03-24.11,0.03c-1.92,0.01-3.35-1.82-3.35-3.36
	c0.04-6.69,0.02-13.37,0.02-20.06C1.76,41.1,1.76,37.99,1.76,34.89C1.76,34.89,1.76,34.89,1.76,34.89z M22.91,67.3L22.91,67.3
	c6.04,0,12.08-0.01,18.12,0c0.99,0,1.76-0.4,2.42-1.12c0.67-0.74,0.89-1.62,0.89-2.57c-0.03-9.9,0.07-19.8-0.05-29.7
	c-0.01-0.91,0.04-1.82,0.04-2.73c0.02-8.57,0.02-17.14,0.02-25.71c0-0.17,0-0.34,0.02-0.5c0.12-1.05-0.17-1.92-1.07-2.54
	c-0.53-0.37-1.1-0.56-1.76-0.56C33.3,1.84,25.07,1.93,16.83,1.83C12.86,1.77,8.88,1.81,4.91,1.8c-0.48,0-0.94,0.08-1.37,0.29
	C2.58,2.55,1.96,3.2,2.01,4.37c0.08,2.1-0.01,4.2,0.06,6.31c0.06,1.79,0.01,3.58,0.01,5.37c0,14.67,0,29.35,0,44.02
	c0,0.15-0.01,0.29-0.01,0.44c-0.05,1.42-0.11,2.84,0.03,4.26c0.11,1.14,1.41,2.57,2.89,2.56C10.96,67.26,16.94,67.3,22.91,67.3z"/>
</svg>
