<?xml version="1.0" encoding="utf-8"?>
<!-- Generator: Adobe Illustrator 23.0.0, SVG Export Plug-In . SVG Version: 6.00 Build 0)  -->
<svg version="1.1" id="Layer_1" xmlns="http://www.w3.org/2000/svg" xmlns:xlink="http://www.w3.org/1999/xlink" x="0px" y="0px"
	 viewBox="0 0 46.16 69.13" style="enable-background:new 0 0 46.16 69.13;" xml:space="preserve">
<style type="text/css">
	.st0{fill:#030303;}
	.st1{fill:#070707;}
</style>
<path class="st0" d="M23.03,52.11c-0.69,0.02-0.89,0.54-1.24,0.82c-1.81,1.41-3.93,0.88-4.76-1.27c-0.53-1.37-0.54-2.78,0.29-4.03
	c1.91-2.89,4.14-5.54,6.32-8.35c2.19,2.61,4.3,5.15,6.18,7.88c0.88,1.27,1.07,2.73,0.62,4.24c-0.7,2.34-3.22,3.04-5,1.39
	c-0.18-0.16-0.34-0.33-0.52-0.5c-0.15-0.14-0.34-0.27-0.54-0.17c-0.27,0.14-0.16,0.39-0.12,0.62c0.15,0.7,0.33,1.39,0.4,2.1
	c0.04,0.34,0.43,0.88-0.1,1.04c-0.59,0.18-1.28,0.23-1.88,0.11c-0.4-0.08-0.16-0.63-0.11-0.95C22.74,54.07,23.04,53.12,23.03,52.11z
	"/>
<path class="st1" d="M23.62,35.98c-2.04,0-4.08-0.04-6.12,0.02c-0.74,0.02-0.96-0.25-1.04-0.92c-0.48-3.81,1.19-6.74,3.78-9.28
	c1.41-1.38,3.09-2.39,4.86-3.26c1.76-0.87,3.04-2.15,3.58-4.11c0.71-2.59-0.19-4.77-2.4-5.71c-2.4-1.02-5.25-0.15-6.49,2.02
	c-0.37,0.65-0.67,1.38-0.83,2.1c-0.23,0.98-0.85,1.01-1.62,0.89c-0.87-0.13-0.49-0.81-0.46-1.22c0.24-3.42,2.81-6.01,6.34-6.43
	c3.52-0.42,6.62,1.32,7.6,4.28c1.19,3.57-0.42,7.77-3.69,9.63c-2.02,1.14-3.92,2.47-5.68,3.98c-1.35,1.15-2.21,2.6-2.59,4.34
	c-0.13,0.6-0.1,0.97,0.63,1.11c2.86,0.55,5.72,0.46,8.59,0.13c0.41-0.05,0.53-0.27,0.56-0.63c0.05-0.6,0.13-1.19,0.18-1.79
	c0.1-1.1,0.93-1.6,1.92-1.15c0.23,0.11,0.27,0.27,0.26,0.47c-0.03,1.64-0.08,3.27-0.11,4.91c-0.01,0.69-0.47,0.61-0.91,0.61
	C27.85,35.98,25.73,35.98,23.62,35.98z"/>
<path d="M1.76,34.89c0-9.8,0-19.59,0-29.39c0-0.4-0.03-0.79-0.05-1.19C1.65,3.28,2.15,2.57,2.99,2.04c0.64-0.41,1.36-0.56,2.1-0.54
	c3.01,0.07,6.03,0.05,9.04,0.05c9.14,0.01,18.27,0,27.41,0c1.13,0,2.01,0.49,2.7,1.36c0.32,0.4,0.43,0.87,0.43,1.38
	c0,6.67,0.04,13.33-0.02,20c-0.09,11.3-0.01,22.6-0.04,33.9c-0.01,1.98,0,3.96-0.01,5.93c-0.01,1.52-1.25,3.05-2.72,3.38
	c-0.19,0.04-0.37,0.05-0.56,0.05c-4.04,0.02-8.08,0.05-12.12,0.05c-8.04,0.01-16.08-0.03-24.11,0.03c-1.92,0.01-3.35-1.82-3.35-3.36
	c0.04-6.69,0.02-13.37,0.02-20.06C1.76,41.1,1.76,37.99,1.76,34.89C1.76,34.89,1.76,34.89,1.76,34.89z M22.91,67.3L22.91,67.3
	c6.04,0,12.08-0.01,18.12,0c0.99,0,1.76-0.4,2.42-1.12c0.67-0.74,0.89-1.62,0.89-2.57c-0.03-9.9,0.07-19.8-0.05-29.7
	c-0.01-0.91,0.04-1.82,0.04-2.73c0.02-8.57,0.02-17.14,0.02-25.71c0-0.17,0-0.34,0.02-0.5c0.12-1.05-0.17-1.92-1.07-2.54
	c-0.53-0.37-1.1-0.56-1.76-0.56C33.3,1.84,25.07,1.93,16.83,1.83C12.86,1.77,8.88,1.81,4.91,1.8c-0.48,0-0.94,0.08-1.37,0.29
	C2.58,2.55,1.96,3.2,2.01,4.37c0.08,2.1-0.01,4.2,0.06,6.31c0.06,1.79,0.01,3.58,0.01,5.37c0,14.67,0,29.35,0,44.02
	c0,0.15-0.01,0.29-0.01,0.44c-0.05,1.42-0.11,2.84,0.03,4.26c0.11,1.14,1.41,2.57,2.89,2.56C10.96,67.26,16.94,67.3,22.91,67.3z"/>
</svg>
