<?xml version="1.0" encoding="utf-8"?>
<!-- Generator: Adobe Illustrator 23.0.0, SVG Export Plug-In . SVG Version: 6.00 Build 0)  -->
<svg version="1.1" id="Layer_1" xmlns="http://www.w3.org/2000/svg" xmlns:xlink="http://www.w3.org/1999/xlink" x="0px" y="0px"
	 viewBox="0 0 46.2 69.1" style="enable-background:new 0 0 46.2 69.1;" xml:space="preserve">
<style type="text/css">
	.st0{fill:#FFFFFF;stroke:#828282;stroke-miterlimit:10;}
	.st1{fill:#D02607;}
	.st2{fill:#D02203;}
</style>
<path class="st0" d="M42.2,67.7H4.5c-1.5,0-2.8-1.3-2.8-2.8V4.4c0-1.5,1.3-2.8,2.8-2.8h37.7c1.5,0,2.8,1.3,2.8,2.8v60.5
	C45,66.4,43.7,67.7,42.2,67.7z"/>
<path class="st1" d="M23,12.2c-0.8,0-1.7,0-2.5,0c-1.9,0-2,0.1-2,2c0,1.2-0.4,1.6-1.3,1.5c-0.6-0.1-1-0.3-1-0.9c-0.1-1-0.2-2-0.2-3
	c0-1,0.5-1.6,1.5-1.7c2.1-0.3,4.3-0.2,6.4-0.2c1.6,0,3.2-0.1,4.9-0.2c1,0,1.6,0.7,2.1,1.4c0.5,0.6,0,1.2-0.4,1.7
	c-1.7,2-3.4,4.1-5.1,6.1c-0.5,0.6-1,1,0.3,1.2c3.8,0.9,6.1,3.7,5.9,7.8c-0.1,2.5-0.7,4.7-2.4,6.5c-2.2,2.3-4.9,3-7.9,2.2
	c-3-0.8-5-2.8-5.6-5.9c-0.1-0.4-0.1-0.8-0.1-1.2c0-0.6,0.4-0.9,0.9-1c0.6-0.1,1,0,1.3,0.6c0.1,0.3,0.1,0.5,0.2,0.8
	c0.5,2.5,2.1,4.1,4.6,4.5c2.4,0.4,4.5-0.6,5.7-2.9c1-1.8,1.2-3.6,0.7-5.6c-0.8-3-3.7-4.2-6.6-2.9c-0.4,0.2-0.8,0.5-1.2,0.4
	c-0.5-0.1-0.9-0.4-1.2-0.9c-0.3-0.5,0-1,0.3-1.4c2-2.3,4-4.7,6-7c0.2-0.2,0.3-0.4,0.5-0.6c0.2-0.3,0.5-0.6,0.4-1
	c-0.2-0.4-0.6-0.3-1-0.3C25.1,12.1,24,12.2,23,12.2z"/>
<path class="st2" d="M29.6,47.7c0,1-0.5,1.5-1,2.1c-1.6,1.8-3.1,3.6-4.5,5.6c-0.8,1.1-1,1.1-1.8,0.1c-1.8-2.2-3.6-4.3-5.4-6.4
	c-0.6-0.8-0.7-1.5,0-2.2c1.8-2.2,3.6-4.5,5.4-6.7c0.5-0.6,0.8-0.6,1.2-0.1c0.7,0.8,1.5,1.6,2.1,2.4c1,1.2,1.9,2.4,3,3.4
	C29.2,46.5,29.6,47.1,29.6,47.7z"/>
</svg>
