<?xml version="1.0" encoding="utf-8"?>
<!-- Generator: Adobe Illustrator 23.0.0, SVG Export Plug-In . SVG Version: 6.00 Build 0)  -->
<svg version="1.1" id="Layer_1" xmlns="http://www.w3.org/2000/svg" xmlns:xlink="http://www.w3.org/1999/xlink" x="0px" y="0px"
	 viewBox="0 0 46.16 69.13" style="enable-background:new 0 0 46.16 69.13;" xml:space="preserve">
<style type="text/css">
	.st0{fill:#090909;}
	.st1{fill:#030303;}
	.st2{fill:#FDFDFD;}
	.st3{fill:#050505;}
</style>
<path class="st0" d="M23.68,9.54c1.8,0,3.6,0.01,5.4-0.01c0.79-0.01,1.5,0.21,2.12,0.7c0.93,0.74,0.91,1.32,0.17,2.28
	c-1.58,2.06-3.57,3.76-5.13,5.85c-0.6,0.81-0.84,1.18,0.44,1.5c2.61,0.66,4.56,2.29,5.33,4.88c1.16,3.94-0.02,8.25-3.8,10.71
	c-3.07,1.99-7.75,1.28-10.35-1.47c-1.25-1.32-1.9-2.93-2.07-4.74c-0.06-0.62,0.07-1.13,0.81-1.22c0.7-0.09,1.39-0.12,1.66,0.75
	c0.07,0.23,0.13,0.46,0.18,0.7c0.55,2.56,2.21,4.14,4.79,4.52c2.34,0.35,4.33-0.66,5.6-2.85c0.9-1.55,1.17-3.24,0.88-4.98
	c-0.55-3.24-3.91-4.85-6.9-3.36c-0.54,0.27-1.03,0.63-1.67,0.26c-1.11-0.65-1.24-1.33-0.4-2.31c2.09-2.42,4.2-4.82,6.29-7.24
	c0.3-0.34,0.86-0.69,0.58-1.19c-0.23-0.4-0.81-0.17-1.23-0.18c-1.8-0.02-3.6-0.01-5.4-0.01c-1.83,0-1.83,0-1.9,1.83
	c-0.05,1.29-0.43,1.66-1.55,1.53c-0.61-0.07-0.97-0.36-0.97-0.99c-0.01-1.28-0.01-2.56,0-3.84c0-0.93,0.63-1.1,1.38-1.1
	c1.92,0,3.84,0,5.76,0C23.68,9.57,23.68,9.55,23.68,9.54z"/>
<path class="st1" d="M23.03,52.11c-0.69,0.02-0.89,0.54-1.24,0.82c-1.81,1.41-3.93,0.88-4.76-1.27c-0.53-1.37-0.54-2.78,0.29-4.03
	c1.91-2.89,4.14-5.54,6.32-8.35c2.19,2.61,4.3,5.15,6.18,7.88c0.88,1.27,1.07,2.73,0.62,4.24c-0.7,2.34-3.22,3.04-5,1.39
	c-0.18-0.16-0.34-0.33-0.52-0.5c-0.15-0.14-0.34-0.27-0.54-0.17c-0.27,0.14-0.16,0.39-0.12,0.62c0.15,0.7,0.33,1.39,0.4,2.1
	c0.04,0.34,0.43,0.88-0.1,1.04c-0.59,0.18-1.28,0.23-1.88,0.11c-0.4-0.08-0.16-0.63-0.11-0.95C22.74,54.07,23.04,53.12,23.03,52.11z
	"/>
<path d="M1.76,34.89c0-9.8,0-19.59,0-29.39c0-0.4-0.03-0.79-0.05-1.19C1.65,3.28,2.15,2.57,2.99,2.04c0.64-0.41,1.36-0.56,2.1-0.54
	c3.01,0.07,6.03,0.05,9.04,0.05c9.14,0.01,18.27,0,27.41,0c1.13,0,2.01,0.49,2.7,1.36c0.32,0.4,0.43,0.87,0.43,1.38
	c0,6.67,0.04,13.33-0.02,20c-0.09,11.3-0.01,22.6-0.04,33.9c-0.01,1.98,0,3.96-0.01,5.93c-0.01,1.52-1.25,3.05-2.72,3.38
	c-0.19,0.04-0.37,0.05-0.56,0.05c-4.04,0.02-8.08,0.05-12.12,0.05c-8.04,0.01-16.08-0.03-24.11,0.03c-1.92,0.01-3.35-1.82-3.35-3.36
	c0.04-6.69,0.02-13.37,0.02-20.06C1.76,41.1,1.76,37.99,1.76,34.89C1.76,34.89,1.76,34.89,1.76,34.89z M22.91,67.3L22.91,67.3
	c6.04,0,12.08-0.01,18.12,0c0.99,0,1.76-0.4,2.42-1.12c0.67-0.74,0.89-1.62,0.89-2.57c-0.03-9.9,0.07-19.8-0.05-29.7
	c-0.01-0.91,0.04-1.82,0.04-2.73c0.02-8.57,0.02-17.14,0.02-25.71c0-0.17,0-0.34,0.02-0.5c0.12-1.05-0.17-1.92-1.07-2.54
	c-0.53-0.37-1.1-0.56-1.76-0.56C33.3,1.84,25.07,1.93,16.83,1.83C12.86,1.77,8.88,1.81,4.91,1.8c-0.48,0-0.94,0.08-1.37,0.29
	C2.58,2.55,1.96,3.2,2.01,4.37c0.08,2.1-0.01,4.2,0.06,6.31c0.06,1.79,0.01,3.58,0.01,5.37c0,14.67,0,29.35,0,44.02
	c0,0.15-0.01,0.29-0.01,0.44c-0.05,1.42-0.11,2.84,0.03,4.26c0.11,1.14,1.41,2.57,2.89,2.56C10.96,67.26,16.94,67.3,22.91,67.3z"/>
<path class="st2" d="M68.24,101.04c0-17.28,0.01-34.56-0.02-51.84c0-0.82,0.16-0.99,0.98-0.98c6.64,0.04,13.28,0.03,19.92,0.01
	c0.6,0,0.74,0.14,0.74,0.74c-0.02,17.12-0.02,34.24,0,51.36c0,0.6-0.14,0.74-0.74,0.74C82.16,101.03,75.2,101.04,68.24,101.04z
	 M79.71,51.36c0,0.01,0,0.03,0,0.04c-1.92,0-3.84,0-5.76,0c-0.75,0-1.38,0.17-1.38,1.1c-0.01,1.28-0.01,2.56,0,3.84
	c0,0.63,0.36,0.92,0.97,0.99c1.12,0.12,1.5-0.24,1.55-1.53c0.07-1.83,0.07-1.83,1.9-1.83c1.8,0,3.6-0.01,5.4,0.01
	c0.42,0,1-0.23,1.23,0.18c0.28,0.5-0.28,0.84-0.58,1.19c-2.09,2.42-4.2,4.82-6.29,7.24c-0.85,0.98-0.71,1.65,0.4,2.31
	c0.64,0.38,1.13,0.01,1.67-0.26c3-1.49,6.36,0.13,6.9,3.36c0.3,1.74,0.02,3.43-0.88,4.98c-1.27,2.19-3.26,3.2-5.6,2.85
	c-2.58-0.39-4.24-1.96-4.79-4.52c-0.05-0.23-0.11-0.47-0.18-0.7c-0.27-0.87-0.95-0.84-1.66-0.75c-0.74,0.09-0.87,0.6-0.81,1.22
	c0.16,1.81,0.81,3.42,2.07,4.74c2.6,2.75,7.28,3.47,10.35,1.47c3.78-2.45,4.96-6.77,3.8-10.71c-0.76-2.59-2.71-4.23-5.33-4.88
	c-1.28-0.32-1.04-0.69-0.44-1.5c1.56-2.09,3.55-3.79,5.13-5.85c0.74-0.96,0.76-1.54-0.17-2.28c-0.62-0.49-1.32-0.71-2.12-0.7
	C83.3,51.37,81.5,51.36,79.71,51.36z M79.82,93.11c0.49,0.38,0.9,0.74,1.36,1.03c1.32,0.87,3.34,0.84,4.28-0.02
	c1.29-1.18,1.64-3.34,0.85-4.84c-0.65-1.24-1.55-2-3.03-1.92c-0.96,0.05-1.48-0.18-0.93-1.29c0.24-0.49,0.35-1.06,0.45-1.61
	c0.24-1.35-0.17-2.48-1.35-3.22c-1.46-0.92-3.03-0.95-4.57-0.19c-1.22,0.6-1.83,1.6-1.73,3.01c0.06,0.85,0.31,1.65,0.62,2.43
	c0.29,0.74,0.08,0.96-0.66,0.87c-1.24-0.14-2.28,0.23-3.05,1.26c-1.11,1.5-0.99,3.77,0.27,5.08c1.36,1.41,2.88,1.46,4.69,0.13
	c0.29-0.21,0.56-0.34,0.87-0.15c0.35,0.23,0.38,0.58,0.22,0.95c-0.2,0.48-0.31,1.02-0.61,1.42c-0.67,0.88-0.07,1.09,0.59,1.29
	c0.43,0.13,0.87,0.03,1.3-0.05c1.55-0.26,1.6-0.34,0.9-1.83C79.95,94.76,79.64,94.04,79.82,93.11z"/>
<path class="st3" d="M80.89,96.08c-0.18,0.93,0.13,1.64,0.47,2.37c0.7,1.49,0.65,1.56-0.9,1.83c-0.44,0.07-0.88,0.17-1.3,0.05
	c-0.66-0.19-1.26-0.41-0.59-1.29c0.3-0.4,0.41-0.95,0.61-1.42c0.16-0.37,0.13-0.72-0.22-0.95c-0.31-0.2-0.58-0.07-0.87,0.15
	c-1.81,1.33-3.33,1.28-4.69-0.13c-1.26-1.31-1.39-3.58-0.27-5.08c0.76-1.03,1.8-1.4,3.05-1.26c0.73,0.08,0.95-0.14,0.66-0.87
	c-0.31-0.78-0.55-1.58-0.62-2.43c-0.11-1.41,0.5-2.41,1.73-3.01c1.54-0.76,3.1-0.72,4.57,0.19c1.17,0.73,1.58,1.87,1.35,3.22
	c-0.1,0.55-0.2,1.12-0.45,1.61c-0.55,1.1-0.02,1.34,0.93,1.29c1.47-0.08,2.37,0.68,3.03,1.92c0.79,1.5,0.44,3.66-0.85,4.84
	c-0.95,0.87-2.96,0.89-4.28,0.02C81.79,96.82,81.37,96.46,80.89,96.08z"/>
</svg>
