<?xml version="1.0" encoding="utf-8"?>
<!-- Generator: Adobe Illustrator 23.0.0, SVG Export Plug-In . SVG Version: 6.00 Build 0)  -->
<svg version="1.1" id="Layer_1" xmlns="http://www.w3.org/2000/svg" xmlns:xlink="http://www.w3.org/1999/xlink" x="0px" y="0px"
	 viewBox="0 0 46.2 69.1" style="enable-background:new 0 0 46.2 69.1;" xml:space="preserve">
<style type="text/css">
	.st0{fill:#FFFFFF;stroke:#828282;stroke-miterlimit:10;}
	.st1{fill:#D02203;}
	.st2{fill:#D02506;}
</style>
<path class="st0" d="M42.2,67.7H4.5c-1.5,0-2.8-1.3-2.8-2.8V4.4c0-1.5,1.3-2.8,2.8-2.8h37.7c1.5,0,2.8,1.3,2.8,2.8v60.5
	C45,66.4,43.7,67.7,42.2,67.7z"/>
<path class="st1" d="M29.6,47.7c0,1-0.5,1.5-1,2.1c-1.6,1.8-3.1,3.6-4.5,5.6c-0.8,1.1-1,1.1-1.8,0.1c-1.8-2.2-3.6-4.3-5.4-6.4
	c-0.6-0.8-0.7-1.5,0-2.2c1.8-2.2,3.6-4.5,5.4-6.7c0.5-0.6,0.8-0.6,1.2-0.1c0.7,0.8,1.5,1.6,2.1,2.4c1,1.2,1.9,2.4,3,3.4
	C29.2,46.5,29.6,47.1,29.6,47.7z"/>
<path class="st2" d="M20.4,29.5c-1.1,0-2.2,0-3.2,0c-2.1-0.1-2.8-1.2-1.9-3.1c0.9-1.9,2-3.6,3-5.5c1.7-3.2,3.5-6.2,5.1-9.5
	c0.4-0.9,2.6-1.6,3.4-1.1c0.6,0.3,0.5,1,0.5,1.5c0,4.5-0.1,9.1,0,13.6c0,0.9,0.4,1.4,1.3,1.5c0.3,0,0.5,0.1,0.8,0.2
	c0.8,0.2,0.9,1,0.9,1.6c0,0.8-0.7,0.4-1,0.5c-1.8,0.3-1.8,0.4-1.7,2.1c0,0.4-0.1,0.7,0,1.1c0.1,0.8,0.3,1.5,1.4,1.3
	c0.8-0.1,1.3,0.3,1.3,1.1c0,0.9-0.5,1.2-1.4,1.2c-1.8,0-3.5,0-5.3,0c-0.7,0-1.1-0.2-1.2-1c0-0.8,0.2-1.2,1-1.3
	c0.6-0.1,1.4,0.2,1.5-0.8c0.2-1.2,0.3-2.4-0.4-3.5c-0.2-0.4-0.6-0.2-1-0.2C22.5,29.4,21.4,29.4,20.4,29.5
	C20.4,29.5,20.4,29.5,20.4,29.5z M24.9,20.8c0,0-0.1,0-0.1,0c0-1.7,0-3.4,0-5c0-0.2,0.1-0.6-0.3-0.7c-0.4-0.1-0.4,0.3-0.6,0.5
	c-2,3.5-3.9,7.1-5.9,10.7c-0.5,0.8-0.1,0.8,0.6,0.8c1.6,0,3.2-0.1,4.8,0c1.1,0,1.5-0.4,1.5-1.5C24.9,24,24.9,22.4,24.9,20.8z"/>
</svg>
