<?xml version="1.0" encoding="utf-8"?>
<!-- Generator: Adobe Illustrator 23.0.0, SVG Export Plug-In . SVG Version: 6.00 Build 0)  -->
<svg version="1.1" id="Layer_1" xmlns="http://www.w3.org/2000/svg" xmlns:xlink="http://www.w3.org/1999/xlink" x="0px" y="0px"
	 viewBox="0 0 46.2 69.1" style="enable-background:new 0 0 46.2 69.1;" xml:space="preserve">
<style type="text/css">
	.st0{fill:#FFFFFF;stroke:#828282;stroke-miterlimit:10;}
	.st1{fill:#D02203;}
	.st2{fill:#D12608;}
</style>
<path class="st0" d="M42.2,67.7H4.5c-1.5,0-2.8-1.3-2.8-2.8V4.4c0-1.5,1.3-2.8,2.8-2.8h37.7c1.5,0,2.8,1.3,2.8,2.8v60.5
	C45,66.4,43.7,67.7,42.2,67.7z"/>
<path class="st1" d="M29.6,47.7c0,1-0.5,1.5-1,2.1c-1.6,1.8-3.1,3.6-4.5,5.6c-0.8,1.1-1,1.1-1.8,0.1c-1.8-2.2-3.6-4.3-5.4-6.4
	c-0.6-0.8-0.7-1.5,0-2.2c1.8-2.2,3.6-4.5,5.4-6.7c0.5-0.6,0.8-0.6,1.2-0.1c0.7,0.8,1.5,1.6,2.1,2.4c1,1.2,1.9,2.4,3,3.4
	C29.2,46.5,29.6,47.1,29.6,47.7z"/>
<path class="st2" d="M24.2,12.8c-1.1,0-2.2,0-3.4,0c-0.7,0-1.2,0.2-1.3,1c-0.2,1.9-0.4,3.9-0.5,5.9c-0.1,1.3,0,1.4,1.3,1
	c3.1-1.1,6-0.7,8.6,1.4c1.5,1.2,2.1,2.8,2.3,4.6c0.4,3.3-0.1,6.3-2.8,8.7c-4,3.5-10.3,1.9-11.8-3.1c-0.2-0.6-0.4-1.3,0.5-1.6
	c0.8-0.2,1.4-0.1,1.8,0.7c0.2,0.4,0.3,0.7,0.5,1.1c2.1,4,6.9,2.7,8.4-0.1c1.1-2.1,1.4-4.4,0.6-6.6c-1.2-3.6-6.3-4.4-9.2-1.4
	c-0.5,0.5-1,1-1.9,0.8c-0.8-0.2-1.2-0.6-1.2-1.5c0.4-3.9,0.8-7.7,1.1-11.6c0.1-1,0.6-1.5,1.5-1.5c3,0,6,0,9,0.1
	c0.6,0,0.9,0.2,0.7,0.8c-0.1,0.6,0.2,1.6-0.9,1.6C26.5,12.9,25.3,12.9,24.2,12.8C24.2,12.8,24.2,12.8,24.2,12.8z"/>
</svg>
