<?xml version="1.0" encoding="utf-8"?>
<!-- Generator: Adobe Illustrator 23.0.0, SVG Export Plug-In . SVG Version: 6.00 Build 0)  -->
<svg version="1.1" id="Layer_1" xmlns="http://www.w3.org/2000/svg" xmlns:xlink="http://www.w3.org/1999/xlink" x="0px" y="0px"
	 viewBox="0 0 46.2 69.1" style="enable-background:new 0 0 46.2 69.1;" xml:space="preserve">
<style type="text/css">
	.st0{fill:#FFFFFF;stroke:#828282;stroke-miterlimit:10;}
	.st1{fill:#030303;}
	.st2{fill:#222218;}
</style>
<path class="st0" d="M42.2,67.7H4.5c-1.5,0-2.8-1.3-2.8-2.8V4.4c0-1.5,1.3-2.8,2.8-2.8h37.7c1.5,0,2.8,1.3,2.8,2.8v60.5
	C45,66.4,43.7,67.7,42.2,67.7z"/>
<path class="st1" d="M23,52.1c-0.7,0-0.9,0.5-1.2,0.8c-1.8,1.4-3.9,0.9-4.8-1.3c-0.5-1.4-0.5-2.8,0.3-4c1.9-2.9,4.1-5.5,6.3-8.4
	c2.2,2.6,4.3,5.2,6.2,7.9c0.9,1.3,1.1,2.7,0.6,4.2c-0.7,2.3-3.2,3-5,1.4c-0.2-0.2-0.3-0.3-0.5-0.5c-0.1-0.1-0.3-0.3-0.5-0.2
	c-0.3,0.1-0.2,0.4-0.1,0.6c0.1,0.7,0.3,1.4,0.4,2.1c0,0.3,0.4,0.9-0.1,1c-0.6,0.2-1.3,0.2-1.9,0.1c-0.4-0.1-0.2-0.6-0.1-1
	C22.7,54.1,23,53.1,23,52.1z"/>
<path class="st2" d="M17.8,19.2c0.8-0.3,1.1-1.1,1.9-1.5c3.5-1.6,7-0.7,9.3,2.5c2.9,4,1.4,11.8-4.4,13c-3,0.7-6-0.7-7.5-3.8
	c-2.7-5.6-2.6-11.2-0.2-16.9c0.9-2.1,2.2-3.7,4.4-4.4c3.9-1.3,7.6,0.4,9,4.4c0.2,0.7-0.1,1-0.7,1.2c-0.6,0.2-1.1,0.3-1.5-0.4
	c-0.4-1-0.9-2.1-2-2.6c-2.7-1.3-4-1-6.4,1.6c-1.5,1.7-1.6,4.1-2,6.3C17.6,18.9,17.7,19.1,17.8,19.2z M18.2,25.2
	c0,1.4,0.4,2.6,1.1,3.7c2.1,3.1,5.9,2.9,7.8-0.3c1.5-2.5,1.2-5.7-0.7-7.9c-1.6-1.9-4.4-2-6.2-0.3C18.9,21.7,18.2,23.3,18.2,25.2z"/>
</svg>
