<?xml version="1.0" encoding="utf-8"?>
<!-- Generator: Adobe Illustrator 23.0.0, SVG Export Plug-In . SVG Version: 6.00 Build 0)  -->
<svg version="1.1" id="Layer_1" xmlns="http://www.w3.org/2000/svg" xmlns:xlink="http://www.w3.org/1999/xlink" x="0px" y="0px"
	 viewBox="0 0 46.2 69.1" style="enable-background:new 0 0 46.2 69.1;" xml:space="preserve">
<style type="text/css">
	.st0{fill:#FFFFFF;stroke:#828282;stroke-miterlimit:10;}
	.st1{fill:#D02203;}
	.st2{fill:#D02506;}
</style>
<path class="st0" d="M42.2,67.7H4.5c-1.5,0-2.8-1.3-2.8-2.8V4.4c0-1.5,1.3-2.8,2.8-2.8h37.7c1.5,0,2.8,1.3,2.8,2.8v60.5
	C45,66.4,43.7,67.7,42.2,67.7z"/>
<path class="st1" d="M29.6,47.7c0,1-0.5,1.5-1,2.1c-1.6,1.8-3.1,3.6-4.5,5.6c-0.8,1.1-1,1.1-1.8,0.1c-1.8-2.2-3.6-4.3-5.4-6.4
	c-0.6-0.8-0.7-1.5,0-2.2c1.8-2.2,3.6-4.5,5.4-6.7c0.5-0.6,0.8-0.6,1.2-0.1c0.7,0.8,1.5,1.6,2.1,2.4c1,1.2,1.9,2.4,3,3.4
	C29.2,46.5,29.6,47.1,29.6,47.7z"/>
<path class="st2" d="M23.9,13.8c-1.4,0-2.7,0-4.1,0c-0.8,0-1.2,0.4-1.1,1.1c0,0.8,0,1.6,0.1,2.4c0,0.7-0.2,1.1-1,1.2
	c-0.8,0-1.3-0.2-1.3-1c-0.1-1.7-0.2-3.3-0.2-5c0-0.9,0.4-1.2,1.2-1.2c3.3,0,6.5,0,9.8-0.1c1.1,0,2.2,0,3.4-0.1
	c0.8-0.1,1.3,0.2,1.6,0.8c0.4,0.7,0.5,1.5,0,2.1c-2.4,3.1-4.2,6.4-5.5,10c-1.3,3.6-2.6,7.2-2.5,11.1c0,0.7-0.1,1.3-0.9,1.5
	c-1,0.2-1.5-0.2-1.5-1.2c-0.1-4.2,1.1-8.1,2.5-12c1.1-2.8,2.4-5.6,4.1-8.1c0.1-0.2,0.3-0.5,0.4-0.7c0.2-0.6,0.1-1-0.7-0.9
	C26.7,13.8,25.3,13.7,23.9,13.8C23.9,13.7,23.9,13.8,23.9,13.8z"/>
</svg>
