<?xml version="1.0" encoding="utf-8"?>
<!-- Generator: Adobe Illustrator 23.0.0, SVG Export Plug-In . SVG Version: 6.00 Build 0)  -->
<svg version="1.1" id="Layer_1" xmlns="http://www.w3.org/2000/svg" xmlns:xlink="http://www.w3.org/1999/xlink" x="0px" y="0px"
	 viewBox="0 0 46.2 69.1" style="enable-background:new 0 0 46.2 69.1;" xml:space="preserve">
<style type="text/css">
	.st0{fill:#FFFFFF;stroke:#828282;stroke-miterlimit:10;}
	.st1{fill:#222218;}
	.st2{fill:#030303;}
</style>
<path class="st0" d="M42.2,67.7H4.5c-1.5,0-2.8-1.3-2.8-2.8V4.4c0-1.5,1.3-2.8,2.8-2.8h37.7c1.5,0,2.8,1.3,2.8,2.8v60.5
	C45,66.4,43.7,67.7,42.2,67.7z"/>
<path class="st1" d="M23.8,36.8c-3.4,0-5.8-1.5-7.2-4.5c-1.4-3-0.9-5.8,1.2-8.2c1.2-1.5,1.2-1.5,0.1-3c-1.9-2.5-2-5.1-0.1-8.4
	c1-1.8,4.5-3.1,7-2.7c2.8,0.5,5,2.6,5.6,5.4c0.5,2.3-0.2,4.3-1.6,6c-0.6,0.7-0.6,1.1,0.1,1.7c2.3,1.9,3.3,4.4,2.8,7.4
	C31.2,34.1,27.6,36.8,23.8,36.8z M18.3,29.1c0,3,2.5,5.4,5.6,5.4c3,0,5.6-2.5,5.6-5.4c0-2.9-2.5-5.4-5.6-5.4
	C20.8,23.7,18.3,26.1,18.3,29.1z M23.6,12.4c-2.7,0-4.7,1.9-4.7,4.5c0,2.5,2.1,4.6,4.7,4.6c2.5,0,4.7-2.2,4.7-4.7
	C28.3,14.4,26.2,12.4,23.6,12.4z"/>
<path class="st2" d="M23,52.1c-0.7,0-0.9,0.5-1.2,0.8c-1.8,1.4-3.9,0.9-4.8-1.3c-0.5-1.4-0.5-2.8,0.3-4c1.9-2.9,4.1-5.5,6.3-8.4
	c2.2,2.6,4.3,5.2,6.2,7.9c0.9,1.3,1.1,2.7,0.6,4.2c-0.7,2.3-3.2,3-5,1.4c-0.2-0.2-0.3-0.3-0.5-0.5c-0.1-0.1-0.3-0.3-0.5-0.2
	c-0.3,0.1-0.2,0.4-0.1,0.6c0.1,0.7,0.3,1.4,0.4,2.1c0,0.3,0.4,0.9-0.1,1c-0.6,0.2-1.3,0.2-1.9,0.1c-0.4-0.1-0.2-0.6-0.1-1
	C22.7,54.1,23,53.1,23,52.1z"/>
</svg>
