<?xml version="1.0" encoding="utf-8"?>
<!-- Generator: Adobe Illustrator 23.0.0, SVG Export Plug-In . SVG Version: 6.00 Build 0)  -->
<svg version="1.1" id="Layer_1" xmlns="http://www.w3.org/2000/svg" xmlns:xlink="http://www.w3.org/1999/xlink" x="0px" y="0px"
	 viewBox="0 0 46.2 69.1" style="enable-background:new 0 0 46.2 69.1;" xml:space="preserve">
<style type="text/css">
	.st0{fill:#FFFFFF;stroke:#828282;stroke-miterlimit:10;}
	.st1{fill:#050505;}
	.st2{fill:#090909;}
</style>
<path class="st0" d="M42.2,67.7H4.5c-1.5,0-2.8-1.3-2.8-2.8V4.4c0-1.5,1.3-2.8,2.8-2.8h37.7c1.5,0,2.8,1.3,2.8,2.8v60.5
	C45,66.4,43.7,67.7,42.2,67.7z"/>
<path class="st1" d="M24.5,52c-0.2,0.9,0.1,1.6,0.5,2.4c0.7,1.5,0.6,1.6-0.9,1.8c-0.4,0.1-0.9,0.2-1.3,0c-0.7-0.2-1.3-0.4-0.6-1.3
	c0.3-0.4,0.4-1,0.6-1.4c0.2-0.4,0.1-0.7-0.2-1c-0.3-0.2-0.6-0.1-0.9,0.2c-1.8,1.3-3.3,1.3-4.7-0.1c-1.3-1.3-1.4-3.6-0.3-5.1
	c0.8-1,1.8-1.4,3-1.3c0.7,0.1,1-0.1,0.7-0.9c-0.3-0.8-0.5-1.6-0.6-2.4c-0.1-1.4,0.5-2.4,1.7-3c1.5-0.8,3.1-0.7,4.6,0.2
	c1.2,0.7,1.6,1.9,1.4,3.2c-0.1,0.5-0.2,1.1-0.5,1.6c-0.5,1.1,0,1.3,0.9,1.3c1.5-0.1,2.4,0.7,3,1.9c0.8,1.5,0.4,3.7-0.9,4.8
	c-1,0.9-3,0.9-4.3,0C25.4,52.7,25,52.4,24.5,52z"/>
<path class="st2" d="M18.3,35.3c-0.8,0-1.7,0-2.5,0c-0.8,0-1.1-0.5-1.1-1.2c0-0.7,0.1-1.3,1-1.3c1.2,0,1.6-0.7,1.8-1.8
	c0.9-5.5,2.1-10.9,2.9-16.4c0.1-1.1,0.5-2.1,0.8-3.1c0.4-1.2,1.3-1.6,3.1-1.5c1.1,0.1,1.1,1,1.3,1.8c1.2,6.7,2.6,13.3,4.1,19.9
	c0.2,0.7,0.6,1,1.2,1c1.4,0.1,0.8,1.1,0.9,1.8c0.2,0.8-0.5,0.8-1,0.8c-1.5,0-3,0-4.6,0c-0.6,0-1.1-0.2-1.1-1c0-0.7-0.1-1.5,0.9-1.5
	c1-0.1,1.1-0.7,0.9-1.5c0-0.1,0-0.2-0.1-0.4c-0.5-3.5-1.9-4.4-5.3-3.5c-0.6,0.1-0.9,0.4-1,1c-0.2,1-0.4,2-0.5,2.9
	c-0.2,0.8,0,1.3,0.9,1.4c1,0.1,1,0.8,0.9,1.5c0,0.9-0.6,1-1.3,1C19.8,35.3,19.1,35.3,18.3,35.3z M23.4,15.4
	c-0.7,2.1-1.1,4.3-1.5,6.5c-0.6,3.2-0.5,3.4,2.9,3c0.6-0.1,0.8-0.3,0.7-0.9C24.9,21,24.4,18.2,23.4,15.4z"/>
</svg>
