<?xml version="1.0" encoding="utf-8"?>
<!-- Generator: Adobe Illustrator 23.0.0, SVG Export Plug-In . SVG Version: 6.00 Build 0)  -->
<svg version="1.1" id="Layer_1" xmlns="http://www.w3.org/2000/svg" xmlns:xlink="http://www.w3.org/1999/xlink" x="0px" y="0px"
	 viewBox="0 0 46.2 69.1" style="enable-background:new 0 0 46.2 69.1;" xml:space="preserve">
<style type="text/css">
	.st0{fill:#FFFFFF;stroke:#828282;stroke-miterlimit:10;}
	.st1{fill:#D02203;}
	.st2{fill:#D12708;}
</style>
<path class="st0" d="M42.2,67.7H4.5c-1.5,0-2.8-1.3-2.8-2.8V4.4c0-1.5,1.3-2.8,2.8-2.8h37.7c1.5,0,2.8,1.3,2.8,2.8v60.5
	C45,66.4,43.7,67.7,42.2,67.7z"/>
<path class="st1" d="M29.6,47.7c0,1-0.5,1.5-1,2.1c-1.6,1.8-3.1,3.6-4.5,5.6c-0.8,1.1-1,1.1-1.8,0.1c-1.8-2.2-3.6-4.3-5.4-6.4
	c-0.6-0.8-0.7-1.5,0-2.2c1.8-2.2,3.6-4.5,5.4-6.7c0.5-0.6,0.8-0.6,1.2-0.1c0.7,0.8,1.5,1.6,2.1,2.4c1,1.2,1.9,2.4,3,3.4
	C29.2,46.5,29.6,47.1,29.6,47.7z"/>
<path class="st2" d="M26.6,22.4c0-2.3,0-4.6,0-6.9c0-0.8-0.1-1.4-0.9-1.8c-0.6-0.3-0.5-0.9-0.5-1.5c0.1-0.6,0.5-0.8,1-0.8
	c1.1,0.1,2.1-0.2,3.2,0c0.3,0.1,0.8,0,0.8,0.5c-0.1,0.5,0.5,1.1-0.3,1.5c-0.9,0.4-1,1.2-1,2.1c0,4.6,0,9.3,0,13.9
	c0,3.7-2.3,6.2-5.6,6.4c-3.8,0.2-6.4-2.1-6.8-5.9c0-0.5,0-1,0-1.6c0-0.9,0.5-1.2,1.3-1.2c0.8,0,1.2,0.4,1.1,1.2c0,0.7,0,1.4,0.2,2
	c0.5,2,2,3.1,4,3c2-0.1,3.2-1.2,3.3-3.3C26.6,27.6,26.5,25,26.6,22.4C26.5,22.4,26.6,22.4,26.6,22.4z"/>
</svg>
