<?xml version="1.0" encoding="utf-8"?>
<!-- Generator: Adobe Illustrator 23.0.0, SVG Export Plug-In . SVG Version: 6.00 Build 0)  -->
<svg version="1.1" id="Layer_1" xmlns="http://www.w3.org/2000/svg" xmlns:xlink="http://www.w3.org/1999/xlink" x="0px" y="0px"
	 viewBox="0 0 46.16 69.13" style="enable-background:new 0 0 46.16 69.13;" xml:space="preserve">
<style type="text/css">
	.st0{fill:#FDFDFD;}
	.st1{fill:#030303;}
	.st2{fill:#080808;}
	.st3{fill:#070707;}
	.st4{fill:#090909;}
	.st5{fill:#FEFDFD;}
	.st6{fill:#D02607;}
	.st7{fill:#D02203;}
	.st8{fill:#CC352B;}
	.st9{fill:#D02506;}
	.st10{fill:#D12608;}
	.st11{fill:#1F1F15;}
	.st12{fill:#D02202;}
	.st13{fill:#202016;}
	.st14{fill:#222218;}
	.st15{fill:#1F1F16;}
	.st16{fill:#232319;}
	.st17{fill:#D02404;}
	.st18{fill:#D12A0C;}
	.st19{fill:#060606;}
	.st20{fill:#D12607;}
	.st21{fill:#222219;}
	.st22{fill:#D12708;}
	.st23{fill:#050505;}
	.st24{fill:#23231A;}
</style>
<path d="M1.76,34.89c0-9.8,0-19.59,0-29.39c0-0.4-0.03-0.79-0.05-1.19C1.65,3.28,2.15,2.57,2.99,2.04c0.64-0.41,1.36-0.56,2.1-0.54
	c3.01,0.07,6.03,0.05,9.04,0.05c9.14,0.01,18.27,0,27.41,0c1.13,0,2.01,0.49,2.7,1.36c0.32,0.4,0.43,0.87,0.43,1.38
	c0,6.67,0.04,13.33-0.02,20c-0.09,11.3-0.01,22.6-0.04,33.9c-0.01,1.98,0,3.96-0.01,5.93c-0.01,1.52-1.25,3.05-2.72,3.38
	c-0.19,0.04-0.37,0.05-0.56,0.05c-4.04,0.02-8.08,0.05-12.12,0.05c-8.04,0.01-16.08-0.03-24.11,0.03c-1.92,0.01-3.35-1.82-3.35-3.36
	c0.04-6.69,0.02-13.37,0.02-20.06C1.76,41.1,1.76,37.99,1.76,34.89C1.76,34.89,1.76,34.89,1.76,34.89z M22.91,67.3L22.91,67.3
	c6.04,0,12.08-0.01,18.12,0c0.99,0,1.76-0.4,2.42-1.12c0.67-0.74,0.89-1.62,0.89-2.57c-0.03-9.9,0.07-19.8-0.05-29.7
	c-0.01-0.91,0.04-1.82,0.04-2.73c0.02-8.57,0.02-17.14,0.02-25.71c0-0.17,0-0.34,0.02-0.5c0.12-1.05-0.17-1.92-1.07-2.54
	c-0.53-0.37-1.1-0.56-1.76-0.56C33.3,1.84,25.07,1.93,16.83,1.83C12.86,1.77,8.88,1.81,4.91,1.8c-0.48,0-0.94,0.08-1.37,0.29
	C2.58,2.55,1.96,3.2,2.01,4.37c0.08,2.1-0.01,4.2,0.06,6.31c0.06,1.79,0.01,3.58,0.01,5.37c0,14.67,0,29.35,0,44.02
	c0,0.15-0.01,0.29-0.01,0.44c-0.05,1.42-0.11,2.84,0.03,4.26c0.11,1.14,1.41,2.57,2.89,2.56C10.96,67.26,16.94,67.3,22.91,67.3z"/>
<path class="st0" d="M68.24,101.04c0-17.28,0.01-34.56-0.02-51.84c0-0.82,0.16-0.99,0.98-0.98c6.64,0.04,13.28,0.03,19.92,0.01
	c0.6,0,0.74,0.14,0.74,0.74c-0.02,17.12-0.02,34.24,0,51.36c0,0.6-0.14,0.74-0.74,0.74C82.16,101.03,75.2,101.04,68.24,101.04z
	 M79.71,51.36c0,0.01,0,0.03,0,0.04c-1.92,0-3.84,0-5.76,0c-0.75,0-1.38,0.17-1.38,1.1c-0.01,1.28-0.01,2.56,0,3.84
	c0,0.63,0.36,0.92,0.97,0.99c1.12,0.12,1.5-0.24,1.55-1.53c0.07-1.83,0.07-1.83,1.9-1.83c1.8,0,3.6-0.01,5.4,0.01
	c0.42,0,1-0.23,1.23,0.18c0.28,0.5-0.28,0.84-0.58,1.19c-2.09,2.42-4.2,4.82-6.29,7.24c-0.85,0.98-0.71,1.65,0.4,2.31
	c0.64,0.38,1.13,0.01,1.67-0.26c3-1.49,6.36,0.13,6.9,3.36c0.3,1.74,0.02,3.43-0.88,4.98c-1.27,2.19-3.26,3.2-5.6,2.85
	c-2.58-0.39-4.24-1.96-4.79-4.52c-0.05-0.23-0.11-0.47-0.18-0.7c-0.27-0.87-0.95-0.84-1.66-0.75c-0.74,0.09-0.87,0.6-0.81,1.22
	c0.16,1.81,0.81,3.42,2.07,4.74c2.6,2.75,7.28,3.47,10.35,1.47c3.78-2.45,4.96-6.77,3.8-10.71c-0.76-2.59-2.71-4.23-5.33-4.88
	c-1.28-0.32-1.04-0.69-0.44-1.5c1.56-2.09,3.55-3.79,5.13-5.85c0.74-0.96,0.76-1.54-0.17-2.28c-0.62-0.49-1.32-0.71-2.12-0.7
	C83.3,51.37,81.5,51.36,79.71,51.36z M79.82,93.11c0.49,0.38,0.9,0.74,1.36,1.03c1.32,0.87,3.34,0.84,4.28-0.02
	c1.29-1.18,1.64-3.34,0.85-4.84c-0.65-1.24-1.55-2-3.03-1.92c-0.96,0.05-1.48-0.18-0.93-1.29c0.24-0.49,0.35-1.06,0.45-1.61
	c0.24-1.35-0.17-2.48-1.35-3.22c-1.46-0.92-3.03-0.95-4.57-0.19c-1.22,0.6-1.83,1.6-1.73,3.01c0.06,0.85,0.31,1.65,0.62,2.43
	c0.29,0.74,0.08,0.96-0.66,0.87c-1.24-0.14-2.28,0.23-3.05,1.26c-1.11,1.5-0.99,3.77,0.27,5.08c1.36,1.41,2.88,1.46,4.69,0.13
	c0.29-0.21,0.56-0.34,0.87-0.15c0.35,0.23,0.38,0.58,0.22,0.95c-0.2,0.48-0.31,1.02-0.61,1.42c-0.67,0.88-0.07,1.09,0.59,1.29
	c0.43,0.13,0.87,0.03,1.3-0.05c1.55-0.26,1.6-0.34,0.9-1.83C79.95,94.76,79.64,94.04,79.82,93.11z"/>
<path class="st0" d="M94.11,102.64c0-17.28,0.01-34.56-0.02-51.84c0-0.82,0.16-0.99,0.98-0.98c6.64,0.04,13.28,0.03,19.92,0.01
	c0.6,0,0.74,0.14,0.74,0.74c-0.02,17.12-0.02,34.24,0,51.36c0,0.6-0.14,0.74-0.74,0.74C108.03,102.63,101.07,102.64,94.11,102.64z
	 M109.36,60.64c0.05,0,0.1,0,0.15,0c0-2.36,0-4.71,0-7.07c0-0.41,0.13-0.86-0.49-1.06c-1.43-0.45-2.59-0.05-3.35,1.27
	c-1.64,2.83-3.26,5.68-4.89,8.51c-1.1,1.9-2.25,3.77-3.3,5.7c-0.96,1.77-0.07,3.2,1.93,3.22c1.84,0.01,3.67,0.04,5.51,0.04
	c2.5,0,2.01,0.07,2.02,2.1c0.02,1.97,0,2.02-1.9,2.61c-0.83,0.26-0.45,0.8-0.47,1.25c-0.03,0.46,0.06,0.85,0.71,0.85
	c1.84-0.01,3.67,0.06,5.51,0.04c0.52-0.01,1.22,0.03,1.2-0.81c-0.01-0.72-0.04-1.5-1.07-1.5c-1.11,0.01-1.45-0.58-1.31-1.6
	c0.05-0.35,0.05-0.73,0-1.08c-0.2-1.3,0.23-1.99,1.65-2.09c0.97-0.07,1.37-0.96,0.85-1.72c-0.38-0.54-1.09-0.43-1.64-0.45
	c-0.93-0.03-1.11-0.44-1.09-1.27C109.39,65.27,109.36,62.95,109.36,60.64z M111.99,91.77c0.02-1.15-0.26-2.21-0.97-3.14
	c-1.79-2.35-3.57-4.71-5.33-7.09c-0.45-0.61-0.69-0.55-1.12,0.03c-1.52,2.06-3.09,4.08-4.63,6.12c-0.39,0.51-0.75,1.04-1.12,1.56
	c-0.88,1.25-0.95,2.59-0.45,4c0.42,1.17,1.17,2.02,2.46,2.18c1.21,0.14,2.17-0.36,2.87-1.37c0.16-0.24,0.26-0.68,0.69-0.45
	c0.32,0.17,0.14,0.49,0.09,0.76c-0.1,0.59-0.21,1.18-0.31,1.77c-0.28,1.63-0.19,1.7,1.49,1.54c0.56-0.05,0.64-0.25,0.55-0.76
	c-0.15-0.78-0.24-1.58-0.33-2.37c-0.03-0.3-0.15-0.67,0.26-0.83c0.51-0.2,0.46,0.31,0.62,0.53c0.78,1.12,1.97,1.51,3.26,1.03
	C111.38,94.74,112,93.64,111.99,91.77z"/>
<path class="st1" d="M119.32,123.2c0.01,1.87-0.62,2.97-1.98,3.48c-1.28,0.48-2.48,0.09-3.26-1.03c-0.15-0.22-0.11-0.73-0.62-0.53
	c-0.4,0.16-0.29,0.53-0.26,0.83c0.09,0.79,0.18,1.59,0.33,2.37c0.1,0.5,0.02,0.7-0.55,0.76c-1.68,0.15-1.77,0.08-1.49-1.54
	c0.1-0.59,0.21-1.18,0.31-1.77c0.05-0.26,0.23-0.58-0.09-0.76c-0.43-0.23-0.52,0.22-0.69,0.45c-0.7,1.01-1.66,1.51-2.87,1.37
	c-1.29-0.15-2.04-1-2.46-2.18c-0.5-1.4-0.42-2.75,0.45-4c0.37-0.52,0.73-1.05,1.12-1.56c1.54-2.04,3.11-4.06,4.63-6.12
	c0.43-0.58,0.67-0.64,1.12-0.03c1.75,2.38,3.54,4.74,5.33,7.09C119.07,120.99,119.34,122.05,119.32,123.2z"/>
<path class="st0" d="M99.73,68.79c2.49-4.34,4.83-8.44,7.27-12.7c0.35,1.12,0.11,2.06,0.1,2.99c-0.04,2.88-0.15,5.75-0.13,8.63
	c0,0.94-0.31,1.13-1.17,1.11C103.89,68.75,101.97,68.79,99.73,68.79z"/>
<path class="st2" d="M109.36,60.64c0,2.32,0.03,4.63-0.02,6.95c-0.02,0.83,0.17,1.24,1.09,1.27c0.55,0.02,1.27-0.09,1.64,0.45
	c0.53,0.76,0.12,1.65-0.85,1.72c-1.41,0.1-1.85,0.78-1.65,2.09c0.05,0.35,0.05,0.72,0,1.08c-0.14,1.02,0.2,1.6,1.31,1.6
	c1.03,0,1.06,0.78,1.07,1.5c0.02,0.84-0.69,0.81-1.2,0.81c-1.84,0.02-3.67-0.05-5.51-0.04c-0.65,0-0.73-0.39-0.71-0.85
	c0.02-0.45-0.36-0.99,0.47-1.25c1.9-0.59,1.92-0.64,1.9-2.61c-0.02-2.03,0.48-2.1-2.02-2.1c-1.84,0-3.67-0.03-5.51-0.04
	c-2-0.01-2.89-1.45-1.93-3.22c1.05-1.93,2.2-3.8,3.3-5.7c1.64-2.83,3.26-5.68,4.89-8.51c0.76-1.31,1.92-1.72,3.35-1.27
	c0.62,0.19,0.49,0.65,0.49,1.06c0.01,2.36,0,4.71,0,7.07C109.46,60.64,109.41,60.64,109.36,60.64z M99.73,68.79
	c2.23,0,4.15-0.04,6.07,0.02c0.86,0.03,1.17-0.17,1.17-1.11c-0.02-2.88,0.09-5.75,0.13-8.63c0.01-0.93,0.24-1.86-0.1-2.99
	C104.56,60.36,102.22,64.45,99.73,68.79z"/>
<path class="st0" d="M120.37,102.44c0-17.28,0.01-34.56-0.02-51.84c0-0.82,0.16-0.99,0.98-0.98c6.64,0.04,13.28,0.03,19.92,0.01
	c0.6,0,0.74,0.14,0.74,0.74c-0.02,17.12-0.02,34.24,0,51.36c0,0.6-0.14,0.74-0.74,0.74C134.29,102.43,127.33,102.44,120.37,102.44z
	 M130.27,51.6c0-0.01,0-0.03,0-0.04c-1.44,0-2.88,0.05-4.32-0.02c-0.78-0.04-0.99,0.23-1.07,0.99c-0.37,3.86-0.81,7.71-1.23,11.56
	c-0.05,0.5-0.27,1.02,0.35,1.37c0.65,0.37,1.29,0.44,1.92,0.02c0.43-0.29,0.81-0.65,1.23-0.95c1.82-1.3,3.79-1.67,5.89-0.78
	c2.04,0.87,2.79,2.6,2.98,4.69c0.07,0.77,0.03,1.52-0.08,2.27c-0.45,2.87-2.17,4.71-4.71,5.01c-1.85,0.22-4.1-0.38-5.15-3.68
	c-0.21-0.65-0.48-0.87-1.21-0.62c-0.72,0.25-1.05,0.5-0.85,1.34c0.7,2.97,2.77,4.9,5.69,5.2c3.45,0.35,6.25-1.13,7.5-3.96
	c0.77-1.75,1.12-3.59,1.12-5.48c-0.02-4.14-2.65-7.07-6.73-7.53c-1.42-0.16-2.79,0.14-4.13,0.56c-0.83,0.26-1.25,0.21-1.11-0.85
	c0.27-2.02,0.5-4.05,0.65-6.08c0.06-0.78,0.4-0.88,1.06-0.88c2.16,0.01,4.32-0.03,6.48-0.08c0.48-0.01,1.19,0.3,1.11-0.73
	c-0.06-0.81-0.02-1.47-1.19-1.37C133.08,51.68,131.67,51.6,130.27,51.6z M131.29,80.76c-2.25,2.91-4.54,5.67-6.54,8.66
	c-0.7,1.05-0.69,2.27-0.31,3.47c0.75,2.33,3,3.05,4.94,1.56c0.4-0.31,0.77-0.66,1.36-1.17c-0.21,1.29-0.4,2.33-0.55,3.38
	c-0.04,0.24-0.27,0.66,0.11,0.72c0.62,0.09,1.32,0.17,1.89-0.03c0.46-0.16,0.12-0.78,0.07-1.19c-0.07-0.59-0.21-1.18-0.29-1.77
	c-0.04-0.3-0.21-0.66,0.19-0.85c0.48-0.23,0.5,0.25,0.65,0.48c0.67,1.04,1.64,1.39,2.79,1.19c1.18-0.21,2.15-0.84,2.41-2.05
	c0.3-1.38,0.32-2.84-0.49-4.07C135.65,86.2,133.46,83.55,131.29,80.76z"/>
<path class="st3" d="M130.27,51.6c1.4,0,2.81,0.09,4.2-0.03c1.18-0.1,1.13,0.56,1.19,1.37c0.08,1.03-0.64,0.72-1.11,0.73
	c-2.16,0.05-4.32,0.09-6.48,0.08c-0.66,0-1,0.11-1.06,0.88c-0.16,2.03-0.38,4.06-0.65,6.08c-0.14,1.06,0.28,1.11,1.11,0.85
	c1.34-0.42,2.71-0.72,4.13-0.56c4.07,0.46,6.71,3.38,6.73,7.53c0.01,1.89-0.34,3.74-1.12,5.48c-1.25,2.83-4.05,4.31-7.5,3.96
	c-2.92-0.3-4.99-2.23-5.69-5.2c-0.2-0.84,0.13-1.09,0.85-1.34c0.73-0.26,1.01-0.03,1.21,0.62c1.05,3.3,3.3,3.9,5.15,3.68
	c2.54-0.3,4.27-2.14,4.71-5.01c0.12-0.75,0.15-1.5,0.08-2.27c-0.19-2.09-0.94-3.82-2.98-4.69c-2.1-0.89-4.06-0.52-5.89,0.78
	c-0.42,0.3-0.8,0.66-1.23,0.95c-0.63,0.42-1.26,0.35-1.92-0.02c-0.62-0.35-0.41-0.87-0.35-1.37c0.42-3.85,0.86-7.71,1.23-11.56
	c0.07-0.76,0.28-1.02,1.07-0.99c1.44,0.07,2.88,0.02,4.32,0.02C130.27,51.57,130.27,51.58,130.27,51.6z"/>
<path class="st1" d="M131.29,80.76c2.17,2.8,4.36,5.45,6.24,8.32c0.8,1.23,0.79,2.69,0.49,4.07c-0.26,1.21-1.24,1.85-2.41,2.05
	c-1.15,0.2-2.13-0.15-2.79-1.19c-0.15-0.23-0.17-0.71-0.65-0.48c-0.4,0.19-0.23,0.55-0.19,0.85c0.09,0.59,0.22,1.18,0.29,1.77
	c0.05,0.41,0.39,1.03-0.07,1.19c-0.57,0.2-1.27,0.13-1.89,0.03c-0.38-0.06-0.14-0.47-0.11-0.72c0.15-1.05,0.34-2.09,0.55-3.38
	c-0.59,0.51-0.96,0.86-1.36,1.17c-1.94,1.49-4.19,0.77-4.94-1.56c-0.39-1.2-0.39-2.42,0.31-3.47
	C126.74,86.42,129.03,83.66,131.29,80.76z"/>
<path class="st4" d="M79.71,51.36c1.8,0,3.6,0.01,5.4-0.01c0.79-0.01,1.5,0.21,2.12,0.7c0.93,0.74,0.91,1.32,0.17,2.28
	c-1.58,2.06-3.57,3.76-5.13,5.85c-0.6,0.81-0.84,1.18,0.44,1.5c2.61,0.66,4.56,2.29,5.33,4.88c1.16,3.94-0.02,8.25-3.8,10.71
	c-3.07,1.99-7.75,1.28-10.35-1.47c-1.25-1.32-1.9-2.93-2.07-4.74c-0.06-0.62,0.07-1.13,0.81-1.22c0.7-0.09,1.39-0.12,1.66,0.75
	c0.07,0.23,0.13,0.46,0.18,0.7c0.55,2.56,2.21,4.14,4.79,4.52c2.34,0.35,4.33-0.66,5.6-2.85c0.9-1.55,1.17-3.24,0.88-4.98
	c-0.55-3.24-3.91-4.85-6.9-3.36c-0.54,0.27-1.03,0.63-1.67,0.26c-1.11-0.65-1.24-1.33-0.4-2.31c2.09-2.42,4.2-4.82,6.29-7.24
	c0.3-0.34,0.86-0.69,0.58-1.19c-0.23-0.4-0.81-0.17-1.23-0.18c-1.8-0.02-3.6-0.01-5.4-0.01c-1.83,0-1.83,0-1.9,1.83
	c-0.05,1.29-0.43,1.66-1.55,1.53c-0.61-0.07-0.97-0.36-0.97-0.99c-0.01-1.28-0.01-2.56,0-3.84c0-0.93,0.63-1.1,1.38-1.1
	c1.92,0,3.84,0,5.76,0C79.71,51.38,79.71,51.37,79.71,51.36z"/>
<path class="st5" d="M68.99,42.98c0-17.28,0.01-34.56-0.02-51.84c0-0.82,0.16-0.99,0.98-0.98c6.64,0.04,13.28,0.03,19.92,0.01
	c0.6,0,0.74,0.14,0.74,0.74c-0.02,17.12-0.02,34.24,0,51.36c0,0.6-0.14,0.74-0.74,0.74C82.91,42.97,75.95,42.98,68.99,42.98z
	 M79.48-4.3c1.04,0,2.08-0.01,3.12,0.01c0.34,0.01,0.79-0.11,0.98,0.27c0.17,0.37-0.17,0.66-0.36,0.96c-0.13,0.2-0.3,0.37-0.46,0.55
	c-1.99,2.34-3.99,4.68-5.98,7.03c-0.35,0.41-0.64,0.86-0.34,1.41c0.25,0.47,0.64,0.83,1.2,0.91c0.47,0.07,0.83-0.25,1.22-0.43
	c2.92-1.34,5.89-0.05,6.65,2.91c0.49,1.94,0.27,3.81-0.7,5.57c-1.23,2.24-3.24,3.25-5.68,2.87c-2.5-0.39-4.13-1.98-4.63-4.52
	c-0.05-0.27-0.1-0.56-0.2-0.81c-0.23-0.59-0.72-0.7-1.28-0.62c-0.58,0.08-0.97,0.37-0.94,1.02c0.02,0.4,0.02,0.81,0.1,1.19
	c0.67,3.12,2.64,5.07,5.64,5.9c3,0.83,5.67,0.18,7.87-2.15c1.74-1.84,2.32-4.02,2.44-6.51c0.19-4.03-2.1-6.89-5.86-7.77
	c-1.28-0.3-0.84-0.63-0.31-1.25c1.72-2,3.42-4.03,5.11-6.06c0.41-0.49,0.84-1.06,0.37-1.69c-0.51-0.7-1.07-1.39-2.1-1.36
	c-1.62,0.05-3.24,0.18-4.87,0.17c-2.15-0.01-4.3-0.08-6.45,0.2c-1.08,0.14-1.57,0.71-1.55,1.74c0.03,1,0.1,1.99,0.18,2.99
	c0.05,0.62,0.44,0.9,1.03,0.95c0.96,0.08,1.33-0.34,1.32-1.5C74.99-4.2,75.09-4.3,76.96-4.3C77.8-4.3,78.64-4.3,79.48-4.3z
	 M85.9,31.37c-0.01-0.61-0.42-1.25-0.98-1.78c-1.11-1.05-2.02-2.26-2.97-3.44c-0.68-0.84-1.42-1.62-2.13-2.43
	c-0.43-0.49-0.74-0.51-1.19,0.06c-1.77,2.26-3.58,4.49-5.41,6.71c-0.65,0.79-0.62,1.47,0.03,2.23c1.8,2.13,3.58,4.29,5.37,6.44
	c0.84,1.01,1.07,1.01,1.83-0.12c1.33-2,2.87-3.82,4.48-5.6C85.4,32.9,85.87,32.35,85.9,31.37z"/>
<path class="st6" d="M79.48-4.3c-0.84,0-1.68,0-2.52,0c-1.87,0-1.96,0.1-1.95,1.97c0.01,1.16-0.37,1.58-1.32,1.5
	c-0.59-0.05-0.99-0.33-1.03-0.95c-0.08-1-0.16-1.99-0.18-2.99c-0.03-1.04,0.47-1.6,1.55-1.74c2.14-0.28,4.3-0.21,6.45-0.2
	c1.63,0.01,3.25-0.12,4.87-0.17c1.03-0.03,1.59,0.66,2.1,1.36c0.47,0.64,0.04,1.2-0.37,1.69c-1.69,2.03-3.39,4.06-5.11,6.06
	c-0.53,0.62-0.97,0.95,0.31,1.25c3.77,0.88,6.05,3.74,5.86,7.77c-0.12,2.49-0.7,4.67-2.44,6.51c-2.2,2.34-4.87,2.98-7.87,2.15
	c-3.01-0.83-4.97-2.78-5.64-5.9c-0.08-0.39-0.08-0.79-0.1-1.19c-0.03-0.65,0.36-0.94,0.94-1.02c0.56-0.08,1.05,0.03,1.28,0.62
	c0.1,0.26,0.14,0.54,0.2,0.81c0.5,2.54,2.12,4.13,4.63,4.52c2.44,0.38,4.45-0.63,5.68-2.87c0.97-1.76,1.19-3.63,0.7-5.57
	c-0.76-2.96-3.73-4.25-6.65-2.91c-0.39,0.18-0.75,0.5-1.22,0.43c-0.55-0.09-0.94-0.44-1.2-0.91c-0.3-0.55-0.01-1,0.34-1.41
	c1.99-2.34,3.99-4.68,5.98-7.03c0.16-0.18,0.33-0.36,0.46-0.55c0.19-0.29,0.53-0.59,0.36-0.96c-0.18-0.39-0.64-0.27-0.98-0.27
	C81.56-4.32,80.52-4.3,79.48-4.3z"/>
<path class="st7" d="M119.07-26.32c-0.03,0.98-0.49,1.53-0.98,2.07c-1.61,1.78-3.14,3.6-4.48,5.6c-0.75,1.13-0.99,1.13-1.83,0.12
	c-1.79-2.15-3.56-4.3-5.37-6.44c-0.65-0.77-0.67-1.45-0.03-2.23c1.83-2.22,3.64-4.45,5.41-6.71c0.45-0.58,0.76-0.56,1.19-0.06
	c0.71,0.81,1.45,1.59,2.13,2.43c0.95,1.18,1.86,2.39,2.97,3.44C118.66-27.56,119.06-26.93,119.07-26.32z"/>
<path class="st8" d="M82.08-28.26c0.04-1.5,0.66-3.06,2.45-3.83c1.76-0.75,3.31-0.15,4.57,1.16c0.69,0.72,1.1,0.89,1.87,0.02
	c1.19-1.33,2.79-1.65,4.5-1.12c1.98,0.61,2.86,2.59,2.34,5.25c-0.47,2.38-1.8,4.33-3.22,6.22c-1.04,1.39-2.26,2.64-3.38,3.98
	c-1.03,1.24-1.36,1.23-2.46,0.13c-2.01-2.02-3.57-4.37-5.11-6.74C82.72-24.61,82.06-26.16,82.08-28.26z"/>
<path class="st5" d="M115.62,17.87c0,8.52-0.01,17.04,0.02,25.56c0,0.72-0.14,0.86-0.86,0.86c-6.64-0.03-13.28-0.03-19.92,0
	c-0.72,0-0.86-0.14-0.86-0.86c0.03-17.04,0.03-34.08,0-51.12c0-0.72,0.14-0.86,0.86-0.86c6.64,0.03,13.28,0.03,19.92,0
	c0.72,0,0.86,0.14,0.86,0.86C115.61,0.83,115.62,9.35,115.62,17.87z M100.86,14.79c0-0.02,0-0.04,0-0.07c1.08,0,2.16-0.01,3.23,0
	c0.35,0,0.78-0.13,1,0.22c0.68,1.09,0.53,2.3,0.36,3.49c-0.13,0.91-0.91,0.71-1.52,0.76c-0.8,0.08-1.07,0.55-1.03,1.31
	c0.03,0.79,0.47,1.01,1.18,1.01c1.76-0.01,3.51-0.02,5.27-0.01c0.85,0,1.4-0.31,1.36-1.25c-0.03-0.85-0.52-1.25-1.34-1.14
	c-1.07,0.14-1.28-0.55-1.36-1.35c-0.04-0.35,0.07-0.71,0.05-1.06c-0.1-1.78-0.03-1.84,1.72-2.13c0.34-0.06,0.98,0.29,1-0.47
	c0.01-0.69-0.02-1.39-0.86-1.65c-0.27-0.08-0.54-0.14-0.82-0.17c-0.89-0.13-1.27-0.6-1.28-1.54c-0.09-4.53-0.07-9.06-0.02-13.59
	c0.01-0.53,0.06-1.17-0.51-1.5c-0.85-0.48-3.02,0.19-3.44,1.06c-1.56,3.23-3.42,6.3-5.11,9.46c-0.98,1.83-2.03,3.61-2.96,5.47
	c-0.95,1.89-0.26,3.03,1.85,3.12C98.7,14.82,99.78,14.79,100.86,14.79z M103.45,25.03c-0.36,0.01-0.45,0.27-0.59,0.44
	c-1.89,2.37-3.78,4.75-5.66,7.13c-0.52,0.66-0.5,1.28,0.06,1.94c1.97,2.31,3.94,4.62,5.88,6.96c0.4,0.48,0.62,0.44,0.98-0.04
	c1.83-2.37,3.67-4.74,5.54-7.08c0.6-0.75,0.6-1.38-0.03-2.12c-1.93-2.24-3.83-4.5-5.74-6.76C103.75,25.34,103.58,25.17,103.45,25.03
	z"/>
<path class="st9" d="M100.86,14.79c-1.08,0-2.16,0.04-3.23-0.01c-2.1-0.09-2.8-1.23-1.85-3.12c0.93-1.85,1.99-3.64,2.96-5.47
	c1.69-3.16,3.55-6.23,5.11-9.46c0.42-0.88,2.59-1.55,3.44-1.06c0.57,0.32,0.52,0.96,0.51,1.5c-0.05,4.53-0.07,9.06,0.02,13.59
	c0.02,0.93,0.39,1.41,1.28,1.54c0.27,0.04,0.55,0.09,0.82,0.17c0.84,0.25,0.88,0.95,0.86,1.65c-0.02,0.76-0.66,0.41-1,0.47
	c-1.75,0.28-1.82,0.35-1.72,2.13c0.02,0.35-0.09,0.72-0.05,1.06c0.08,0.8,0.29,1.48,1.36,1.35c0.81-0.1,1.31,0.29,1.34,1.14
	c0.03,0.94-0.51,1.25-1.36,1.25c-1.76-0.01-3.51-0.01-5.27,0.01c-0.7,0.01-1.14-0.22-1.18-1.01c-0.03-0.76,0.23-1.24,1.03-1.31
	c0.61-0.06,1.39,0.15,1.52-0.76c0.17-1.18,0.33-2.39-0.36-3.49c-0.22-0.35-0.65-0.22-1-0.22c-1.08-0.01-2.16,0-3.23,0
	C100.86,14.74,100.86,14.76,100.86,14.79z M105.41,6.11c-0.05,0-0.1,0-0.15,0c0-1.68,0.01-3.35-0.01-5.03
	c0-0.25,0.13-0.61-0.27-0.69c-0.37-0.07-0.43,0.3-0.56,0.53c-1.97,3.55-3.91,7.12-5.9,10.66c-0.47,0.84-0.06,0.82,0.57,0.81
	c1.6-0.03,3.19-0.07,4.79-0.03c1.07,0.03,1.54-0.42,1.53-1.47C105.4,9.3,105.41,7.7,105.41,6.11z"/>
<path class="st7" d="M103.45,25.03c0.13,0.14,0.3,0.3,0.45,0.48c1.91,2.25,3.81,4.52,5.74,6.76c0.63,0.73,0.63,1.36,0.03,2.12
	c-1.87,2.34-3.71,4.7-5.54,7.08c-0.36,0.47-0.59,0.51-0.98,0.04c-1.94-2.33-3.9-4.65-5.88-6.96c-0.56-0.65-0.59-1.28-0.06-1.94
	c1.88-2.38,3.77-4.76,5.66-7.13C103,25.3,103.09,25.04,103.45,25.03z"/>
<path class="st5" d="M105.41,6.11c0,1.59-0.01,3.19,0.01,4.78c0.01,1.06-0.45,1.5-1.53,1.47c-1.59-0.04-3.19,0-4.79,0.03
	c-0.62,0.01-1.04,0.02-0.57-0.81c1.99-3.54,3.93-7.11,5.9-10.66c0.12-0.22,0.19-0.59,0.56-0.53c0.4,0.07,0.26,0.44,0.27,0.69
	c0.01,1.68,0.01,3.35,0.01,5.03C105.31,6.11,105.36,6.11,105.41,6.11z"/>
<path class="st5" d="M121.17,46.53c0-17.28,0.01-34.56-0.02-51.84c0-0.82,0.16-0.99,0.98-0.98c6.64,0.04,13.28,0.03,19.92,0.01
	c0.6,0,0.74,0.14,0.74,0.74c-0.02,17.12-0.02,34.24,0,51.36c0,0.6-0.14,0.74-0.74,0.74C135.09,46.52,128.13,46.53,121.17,46.53z
	 M131.16-0.95c0,0.02,0,0.04,0,0.06c1.16,0,2.31,0.02,3.47-0.01c1.16-0.02,0.75-0.99,0.9-1.6c0.15-0.58-0.15-0.79-0.71-0.79
	c-3-0.01-6-0.06-8.99-0.06c-0.93,0-1.46,0.5-1.55,1.47c-0.36,3.86-0.73,7.72-1.11,11.57c-0.09,0.89,0.37,1.32,1.16,1.54
	c0.83,0.23,1.32-0.24,1.85-0.79c2.92-2.99,8.01-2.22,9.24,1.42c0.77,2.27,0.52,4.51-0.59,6.62c-1.46,2.78-6.27,4.05-8.39,0.1
	c-0.19-0.35-0.36-0.71-0.53-1.07c-0.38-0.82-1.05-0.94-1.8-0.69c-0.87,0.29-0.64,0.99-0.46,1.6c1.45,5,7.79,6.67,11.76,3.13
	c2.67-2.38,3.13-5.42,2.78-8.72c-0.19-1.81-0.82-3.44-2.31-4.63c-2.6-2.08-5.45-2.46-8.56-1.4c-1.29,0.44-1.39,0.39-1.31-0.95
	c0.12-1.95,0.32-3.9,0.52-5.85c0.08-0.73,0.61-0.97,1.29-0.97C128.92-0.95,130.04-0.95,131.16-0.95z M130.9,43.47
	c2.18-2.7,4.25-5.28,6.34-7.85c0.45-0.56,0.39-1.11-0.04-1.63c-1.87-2.24-3.75-4.47-5.63-6.69c-0.52-0.62-1.08-0.64-1.6-0.01
	c-1.86,2.25-3.71,4.5-5.56,6.75c-0.47,0.58-0.45,1.14,0.04,1.73C126.58,38.3,128.7,40.84,130.9,43.47z"/>
<path class="st10" d="M131.16-0.95c-1.12,0-2.24,0-3.36,0c-0.68,0-1.21,0.24-1.29,0.97c-0.2,1.95-0.4,3.89-0.52,5.85
	c-0.08,1.34,0.02,1.39,1.31,0.95c3.11-1.07,5.96-0.68,8.56,1.4c1.5,1.2,2.12,2.82,2.31,4.63c0.35,3.3-0.11,6.34-2.78,8.72
	c-3.96,3.53-10.3,1.87-11.76-3.13c-0.18-0.61-0.41-1.31,0.46-1.6c0.75-0.25,1.43-0.13,1.8,0.69c0.17,0.36,0.34,0.72,0.53,1.07
	c2.12,3.95,6.93,2.68,8.39-0.1c1.11-2.11,1.36-4.35,0.59-6.62c-1.23-3.64-6.32-4.41-9.24-1.42c-0.53,0.54-1.01,1.01-1.85,0.79
	c-0.79-0.22-1.25-0.65-1.16-1.54c0.38-3.86,0.75-7.71,1.11-11.57c0.09-0.96,0.62-1.47,1.55-1.47c3,0,6,0.04,8.99,0.06
	c0.56,0,0.86,0.21,0.71,0.79c-0.15,0.61,0.25,1.57-0.9,1.6c-1.16,0.02-2.31,0.01-3.47,0.01C131.16-0.91,131.16-0.93,131.16-0.95z"/>
<path class="st7" d="M130.9,43.47c-2.2-2.63-4.32-5.17-6.46-7.7c-0.49-0.58-0.51-1.15-0.04-1.73c1.85-2.25,3.7-4.5,5.56-6.75
	c0.53-0.64,1.08-0.61,1.6,0.01c1.88,2.23,3.76,4.46,5.63,6.69c0.43,0.52,0.49,1.06,0.04,1.63C135.16,38.19,133.08,40.77,130.9,43.47
	z"/>
<path class="st0" d="M144.82,102.93c0-17.28,0.01-34.56-0.02-51.84c0-0.82,0.16-0.99,0.98-0.98c6.64,0.04,13.28,0.03,19.92,0.01
	c0.6,0,0.74,0.14,0.74,0.74c-0.02,17.12-0.02,34.24,0,51.36c0,0.6-0.14,0.74-0.74,0.74C158.74,102.92,151.78,102.93,144.82,102.93z
	 M150.8,64.49c-0.06-0.19-0.19-0.39-0.16-0.55c0.42-2.17,0.47-4.56,2-6.27c2.42-2.69,3.67-2.92,6.38-1.65
	c1.1,0.51,1.55,1.54,1.99,2.56c0.33,0.76,0.84,0.67,1.48,0.44c0.63-0.22,0.98-0.55,0.74-1.24c-1.36-4.03-5.12-5.71-9-4.38
	c-2.15,0.74-3.52,2.34-4.39,4.44c-2.36,5.68-2.45,11.33,0.23,16.92c1.47,3.05,4.48,4.45,7.51,3.78c5.76-1.28,7.33-9.01,4.41-13.05
	c-2.29-3.16-5.75-4.07-9.28-2.45C151.95,63.38,151.64,64.21,150.8,64.49z M155.35,93.51c-0.05,1.24-0.26,2.16-0.65,3.05
	c-0.68,1.54-0.39,1.92,1.34,1.78c0.36-0.03,0.71-0.14,1.07-0.14c0.94-0.01,0.86-0.58,0.55-1.1c-0.55-0.94-0.76-1.96-0.99-3.08
	c1.36,0.44,2.08,2.06,3.65,1.84c1.1-0.15,2.67-0.9,3.03-2.44c0.92-3.88-0.48-4.84-4.28-5.42c0.24-0.79,0.52-1.58,0.7-2.39
	c0.36-1.6-0.17-2.82-1.47-3.58c-1.44-0.85-3.6-0.74-4.87,0.25c-1.14,0.89-1.63,2.5-1.14,3.86c0.21,0.6,0.8,1.28,0.65,1.73
	c-0.23,0.7-1.17,0.25-1.79,0.42c-1.5,0.41-2.59,1.6-2.73,3.12c-0.13,1.45,0.83,3.52,1.89,4.05c1.47,0.74,2.74,0.46,4.05-0.91
	C154.64,94.26,154.91,93.98,155.35,93.51z"/>
<path class="st11" d="M155.35,93.51c-0.44,0.47-0.71,0.75-0.98,1.03c-1.31,1.37-2.58,1.65-4.05,0.91c-1.06-0.53-2.03-2.61-1.89-4.05
	c0.14-1.52,1.23-2.71,2.73-3.12c0.62-0.17,1.56,0.28,1.79-0.42c0.15-0.45-0.44-1.14-0.65-1.73c-0.49-1.36,0-2.97,1.14-3.86
	c1.27-0.99,3.42-1.1,4.87-0.25c1.3,0.77,1.83,1.99,1.47,3.58c-0.18,0.81-0.47,1.59-0.7,2.39c3.8,0.58,5.2,1.53,4.28,5.42
	c-0.36,1.54-1.93,2.29-3.03,2.44c-1.57,0.22-2.29-1.39-3.65-1.84c0.23,1.13,0.44,2.15,0.99,3.08c0.31,0.52,0.39,1.1-0.55,1.1
	c-0.36,0-0.71,0.12-1.07,0.14c-1.73,0.14-2.02-0.24-1.34-1.78C155.09,95.67,155.3,94.75,155.35,93.51z"/>
<path class="st0" d="M151.26,70.41c0.01-1.88,0.66-3.5,2.01-4.82c1.74-1.7,4.59-1.55,6.17,0.29c1.89,2.22,2.19,5.4,0.73,7.92
	c-1.87,3.24-5.7,3.39-7.81,0.32C151.61,73.02,151.25,71.82,151.26,70.41z"/>
<path class="st5" d="M146.05,46.16c0-17.28,0.01-34.56-0.02-51.84c0-0.82,0.16-0.99,0.98-0.98c6.64,0.04,13.28,0.03,19.92,0.01
	c0.6,0,0.74,0.14,0.74,0.74c-0.02,17.12-0.02,34.24,0,51.36c0,0.6-0.14,0.74-0.74,0.74C159.97,46.15,153.01,46.16,146.05,46.16z
	 M149.45,8.94c0,3.82,0.78,6.93,2.21,9.31c2.74,4.56,8.74,4.76,11.77,0.4c1.33-1.92,1.84-4.04,1.59-6.36
	c-0.49-4.45-3.93-7.53-8.03-7.18c-1.35,0.12-2.53,0.66-3.61,1.45c-0.3,0.22-0.64,0.43-0.98,0.23c-0.34-0.2-0.14-0.59-0.11-0.88
	c0.18-2.17,0.93-4.12,2.33-5.79c1.35-1.61,3.48-2.11,5.43-1.37c1.3,0.49,2.02,1.51,2.54,2.72c0.34,0.79,0.9,0.92,1.66,0.6
	c0.76-0.33,0.86-0.85,0.56-1.56c-0.94-2.23-2.43-3.81-4.9-4.29c-3.51-0.68-6.54,0.75-8.34,3.96C149.95,3.06,149.57,6.21,149.45,8.94
	z M156.93,25.31c-0.42-0.07-0.56,0.1-0.73,0.29c-1.65,1.97-3.23,4.01-4.97,5.91c-0.61,0.66-1.23,1.49-1.37,2.32
	c-0.08,0.46,0.8,1.09,1.24,1.65c0.12,0.16,0.22,0.33,0.35,0.49c1.48,1.81,2.95,3.62,4.45,5.41c0.52,0.62,0.99,0.73,1.6-0.04
	c1.76-2.22,3.55-4.41,5.43-6.54c0.74-0.84,0.66-1.37,0.01-2.21c-1.68-2.2-3.62-4.2-5.16-6.51
	C157.53,25.74,157.15,25.51,156.93,25.31z"/>
<path class="st9" d="M149.45,8.94c0.12-2.74,0.5-5.89,2.11-8.76c1.79-3.21,4.82-4.64,8.34-3.96c2.48,0.48,3.96,2.07,4.9,4.29
	c0.3,0.71,0.2,1.23-0.56,1.56c-0.76,0.32-1.32,0.19-1.66-0.6c-0.52-1.21-1.24-2.23-2.54-2.72c-1.95-0.74-4.08-0.23-5.43,1.37
	c-1.4,1.67-2.15,3.62-2.33,5.79c-0.02,0.29-0.23,0.68,0.11,0.88c0.35,0.2,0.69-0.02,0.98-0.23c1.08-0.79,2.26-1.34,3.61-1.45
	c4.1-0.35,7.54,2.73,8.03,7.18c0.25,2.32-0.26,4.44-1.59,6.36c-3.02,4.36-9.02,4.16-11.77-0.4
	C150.23,15.87,149.45,12.76,149.45,8.94z M152.74,13.38c-0.01,1.35,0.34,2.61,1.08,3.74c1.91,2.9,5.45,3.05,7.52,0.28
	c1.7-2.28,1.7-4.76,0.5-7.24c-0.83-1.71-2.26-2.65-4.21-2.67c-1.91-0.02-3.12,1.08-4.03,2.58
	C152.98,11.06,152.71,12.19,152.74,13.38z"/>
<path class="st12" d="M156.93,25.31c0.22,0.2,0.61,0.44,0.84,0.78c1.54,2.31,3.48,4.31,5.16,6.51c0.65,0.85,0.73,1.37-0.01,2.21
	c-1.88,2.12-3.67,4.32-5.43,6.54c-0.61,0.77-1.08,0.66-1.6,0.04c-1.49-1.79-2.97-3.61-4.45-5.41c-0.13-0.15-0.23-0.33-0.35-0.49
	c-0.44-0.56-1.32-1.19-1.24-1.65c0.15-0.83,0.77-1.66,1.37-2.32c1.75-1.9,3.32-3.93,4.97-5.91C156.36,25.4,156.5,25.24,156.93,25.31
	z"/>
<path class="st5" d="M152.74,13.38c-0.03-1.19,0.24-2.32,0.85-3.32c0.91-1.5,2.12-2.6,4.03-2.58c1.95,0.02,3.38,0.97,4.21,2.67
	c1.2,2.47,1.2,4.96-0.5,7.24c-2.06,2.78-5.61,2.62-7.52-0.28C153.08,15.99,152.73,14.73,152.74,13.38z"/>
<path class="st0" d="M169.05,103.84c0-17.28,0.01-34.56-0.02-51.84c0-0.82,0.16-0.99,0.98-0.98c6.64,0.04,13.28,0.03,19.92,0.01
	c0.6,0,0.74,0.14,0.74,0.74c-0.02,17.12-0.02,34.24,0,51.36c0,0.6-0.14,0.74-0.74,0.74C182.97,103.83,176.01,103.84,169.05,103.84z
	 M180.83,94.74c0.65,0.61,1.22,1.16,1.8,1.69c0.73,0.68,1.57,0.73,2.46,0.42c1.98-0.7,2.96-2.35,2.71-4.58
	c-0.17-1.61-1.5-2.79-3.57-2.9c-1.15-0.06-1.15-0.41-0.72-1.25c0.21-0.42,0.34-0.9,0.43-1.36c0.38-2.01-0.61-3.54-2.6-4.03
	c-1.72-0.42-3.31-0.15-4.47,1.25c-1.14,1.38-0.84,2.91-0.06,4.38c0.28,0.52,0.64,0.99-0.43,0.96c-2.7-0.07-4.19,1.48-3.95,4.15
	c0.12,1.39,0.67,2.51,2.09,3.07c1.29,0.51,2.45,0.59,3.5-0.52c0.3-0.32,0.67-0.63,1.17-0.74c0.24,1.31-0.6,2.27-0.84,3.38
	c-0.06,0.27-0.34,0.76,0.19,0.7c0.89-0.11,1.73,0.29,2.62,0.07c0.73-0.18,1.06-0.41,0.57-1.2C181.1,97.21,180.78,96.07,180.83,94.74
	z M180.54,56.84c1.28,0,2.56,0,3.84,0c1.59,0,1.58,0.02,0.83,1.4c-2.72,5.03-5.8,9.91-6.69,15.73c-0.24,1.54-0.59,3.05-0.7,4.61
	c-0.06,0.87,0.42,1.39,1.25,1.46c0.79,0.06,1.18-0.48,1.14-1.22c-0.05-0.9,0.29-1.72,0.39-2.59c0.82-7.08,4.19-13.06,8.22-18.72
	c0.56-0.79,0.28-1.32,0.11-1.95c-0.17-0.65-0.69-0.96-1.37-0.94c-1.19,0.04-2.37-0.1-3.56-0.09c-2.92,0.03-5.85,0.15-8.77-0.15
	c-1.76-0.18-2.53,0.61-2.52,2.37c0,1.23,0.15,2.47,0.18,3.7c0.02,0.81,0.38,1.15,1.18,1.14c0.8,0,1.18-0.35,1.19-1.15
	c0.02-0.92,0.08-1.83,0.09-2.75c0.01-0.68,0.36-0.89,0.99-0.88C177.74,56.86,179.14,56.84,180.54,56.84z"/>
<path class="st13" d="M180.83,94.74c-0.06,1.34,0.27,2.47,0.89,3.49c0.48,0.79,0.15,1.01-0.57,1.2c-0.88,0.22-1.73-0.18-2.62-0.07
	c-0.53,0.07-0.25-0.43-0.19-0.7c0.24-1.11,1.08-2.07,0.84-3.38c-0.5,0.11-0.87,0.42-1.17,0.74c-1.05,1.1-2.2,1.03-3.5,0.52
	c-1.42-0.56-1.97-1.68-2.09-3.07c-0.23-2.67,1.25-4.23,3.95-4.15c1.07,0.03,0.71-0.44,0.43-0.96c-0.78-1.47-1.08-2.99,0.06-4.38
	c1.16-1.4,2.75-1.68,4.47-1.25c1.99,0.49,2.99,2.02,2.6,4.03c-0.09,0.47-0.22,0.94-0.43,1.36c-0.43,0.84-0.43,1.2,0.72,1.25
	c2.07,0.1,3.4,1.28,3.57,2.9c0.24,2.23-0.73,3.88-2.71,4.58c-0.89,0.31-1.73,0.26-2.46-0.42C182.06,95.89,181.49,95.35,180.83,94.74
	z"/>
<path class="st14" d="M180.54,56.84c-1.4,0-2.8,0.02-4.2-0.01c-0.63-0.01-0.98,0.19-0.99,0.88c-0.01,0.92-0.07,1.83-0.09,2.75
	c-0.01,0.8-0.4,1.14-1.19,1.15c-0.8,0-1.16-0.34-1.18-1.14c-0.04-1.24-0.18-2.47-0.18-3.7c0-1.76,0.77-2.55,2.52-2.37
	c2.92,0.3,5.85,0.17,8.77,0.15c1.19-0.01,2.37,0.13,3.56,0.09c0.68-0.02,1.19,0.29,1.37,0.94c0.17,0.64,0.46,1.16-0.11,1.95
	c-4.03,5.66-7.4,11.64-8.22,18.72c-0.1,0.87-0.44,1.69-0.39,2.59c0.04,0.73-0.35,1.28-1.14,1.22c-0.82-0.06-1.31-0.59-1.25-1.46
	c0.11-1.55,0.46-3.07,0.7-4.61c0.89-5.82,3.97-10.7,6.69-15.73c0.75-1.39,0.76-1.4-0.83-1.4C183.09,56.84,181.82,56.84,180.54,56.84
	z"/>
<path class="st5" d="M191.41,19.38c0,8.52-0.01,17.04,0.02,25.56c0,0.72-0.14,0.86-0.86,0.86c-6.64-0.03-13.28-0.03-19.92,0
	c-0.72,0-0.86-0.14-0.86-0.86c0.03-17.04,0.03-34.08,0-51.12c0-0.72,0.14-0.86,0.86-0.86c6.64,0.03,13.28,0.03,19.92,0
	c0.72,0,0.86,0.14,0.86,0.86C191.4,2.34,191.41,10.86,191.41,19.38z M171.78,35.04c0.14,0.3,0.1,0.73,0.42,1.03
	c2.02,1.94,3.74,4.14,5.46,6.34c0.57,0.74,1.18,0.81,1.74,0.03c1.79-2.49,3.98-4.66,5.6-7.29c0.3-0.49,0.33-0.77-0.05-1.22
	c-2.04-2.35-4.06-4.71-6.05-7.1c-0.43-0.51-0.65-0.62-1.12-0.01c-1.79,2.35-3.63,4.66-5.46,6.97
	C172.03,34.14,171.83,34.52,171.78,35.04z M177.88,0.07c0-0.03,0-0.06,0-0.09c1.4,0,2.8,0.03,4.2-0.01c0.8-0.03,0.89,0.33,0.66,0.94
	c-0.1,0.26-0.23,0.51-0.38,0.74c-1.67,2.55-2.99,5.27-4.06,8.12c-1.45,3.86-2.6,7.8-2.52,11.99c0.02,1.03,0.55,1.44,1.54,1.2
	c0.8-0.19,0.89-0.82,0.87-1.49c-0.1-3.92,1.19-7.55,2.51-11.12c1.34-3.59,3.18-6.97,5.55-10.03c0.52-0.67,0.42-1.41,0-2.13
	c-0.38-0.64-0.82-0.93-1.64-0.82c-1.1,0.15-2.23,0.11-3.35,0.12c-3.27,0.04-6.54,0.06-9.81,0.08c-0.83,0-1.18,0.3-1.21,1.19
	c-0.06,1.68,0.12,3.35,0.18,5.02c0.03,0.85,0.56,1.04,1.31,1c0.79-0.04,1.02-0.48,0.99-1.19c-0.03-0.8-0.03-1.6-0.06-2.4
	c-0.02-0.79,0.32-1.17,1.15-1.14C175.16,0.1,176.52,0.07,177.88,0.07z"/>
<path class="st7" d="M171.78,35.04c0.05-0.52,0.25-0.89,0.53-1.25c1.83-2.32,3.67-4.62,5.46-6.97c0.47-0.61,0.69-0.51,1.12,0.01
	c1.99,2.39,4.01,4.75,6.05,7.1c0.38,0.44,0.35,0.73,0.05,1.22c-1.62,2.63-3.81,4.8-5.6,7.29c-0.56,0.78-1.16,0.71-1.74-0.03
	c-1.72-2.2-3.43-4.4-5.46-6.34C171.88,35.76,171.92,35.34,171.78,35.04z"/>
<path class="st9" d="M177.88,0.07c-1.36,0-2.72,0.03-4.07-0.01c-0.83-0.02-1.17,0.35-1.15,1.14c0.02,0.8,0.03,1.6,0.06,2.4
	c0.03,0.71-0.2,1.15-0.99,1.19c-0.75,0.04-1.28-0.16-1.31-1c-0.06-1.67-0.24-3.34-0.18-5.02c0.03-0.89,0.39-1.19,1.21-1.19
	c3.27-0.01,6.54-0.04,9.81-0.08c1.12-0.01,2.25,0.03,3.35-0.12c0.82-0.11,1.27,0.17,1.64,0.82c0.42,0.72,0.51,1.47,0,2.13
	c-2.37,3.06-4.21,6.44-5.55,10.03c-1.33,3.56-2.62,7.2-2.51,11.12c0.02,0.68-0.06,1.3-0.87,1.49c-0.99,0.24-1.52-0.17-1.54-1.2
	c-0.07-4.19,1.07-8.13,2.52-11.99c1.07-2.84,2.4-5.57,4.06-8.12c0.15-0.23,0.29-0.48,0.38-0.74c0.23-0.61,0.13-0.97-0.66-0.94
	c-1.4,0.05-2.8,0.01-4.2,0.01C177.88,0.01,177.88,0.04,177.88,0.07z"/>
<path class="st0" d="M193.26,102.23c0-17.28,0.01-34.56-0.02-51.84c0-0.82,0.16-0.99,0.98-0.98c6.64,0.04,13.28,0.03,19.92,0.01
	c0.6,0,0.74,0.14,0.74,0.74c-0.02,17.12-0.02,34.24,0,51.36c0,0.6-0.14,0.74-0.74,0.74C207.18,102.22,200.22,102.23,193.26,102.23z
	 M205.08,78.6c3.79-0.01,7.33-2.7,7.94-6.13c0.53-3-0.43-5.53-2.76-7.45c-0.79-0.65-0.77-0.99-0.14-1.73c1.46-1.72,2.13-3.71,1.63-6
	c-0.61-2.78-2.8-4.92-5.6-5.42c-2.54-0.45-6,0.83-7.04,2.65c-1.88,3.3-1.74,5.84,0.13,8.37c1.09,1.47,1.13,1.45-0.12,2.95
	c-2.09,2.5-2.64,5.28-1.24,8.25C199.28,77.1,201.72,78.63,205.08,78.6z M207.74,88.28c0.23-0.48,0.45-0.86,0.61-1.25
	c0.64-1.57,0.81-3.01-0.59-4.38c-1.01-0.98-2.14-1.02-3.37-1.03c-1.8-0.02-3.94,1.67-3.39,4.02c0.14,0.62,0.29,1.25,0.54,1.83
	c0.3,0.68,0.04,0.78-0.58,0.84c-2.76,0.27-3.81,1.41-3.81,4.16c0,1.71,1.86,3.59,3.64,3.57c1.47-0.02,2.17-1.12,3.16-2.04
	c0.18,0.75-0.09,1.33-0.18,1.93c-0.12,0.79-1.06,1.64-0.55,2.22c0.54,0.61,1.66,0.17,2.53,0.23c0.69,0.04,0.96-0.08,0.54-0.87
	c-0.57-1.05-1.15-2.17-0.61-3.66c1.65,1.89,3.42,2.94,5.67,1.16c0.93-0.73,1.54-2.78,1.07-4.17
	C211.67,88.64,209.85,88.23,207.74,88.28z"/>
<path class="st14" d="M205.08,78.6c-3.36,0.03-5.79-1.51-7.21-4.51c-1.4-2.97-0.85-5.75,1.24-8.25c1.25-1.49,1.21-1.47,0.12-2.95
	c-1.87-2.52-2.01-5.07-0.13-8.37c1.04-1.82,4.5-3.1,7.04-2.65c2.8,0.5,4.99,2.64,5.6,5.42c0.5,2.3-0.17,4.28-1.63,6
	c-0.62,0.74-0.65,1.08,0.14,1.73c2.33,1.92,3.3,4.45,2.76,7.45C212.41,75.9,208.87,78.59,205.08,78.6z M199.5,70.89
	c0,3.04,2.49,5.43,5.65,5.41c3.05-0.02,5.57-2.46,5.59-5.4c0.01-2.93-2.51-5.38-5.57-5.39C202.01,65.49,199.5,67.87,199.5,70.89z
	 M204.86,54.19c-2.66-0.01-4.68,1.94-4.68,4.54c0,2.55,2.11,4.63,4.66,4.61c2.51-0.02,4.71-2.21,4.69-4.67
	C209.51,56.17,207.45,54.2,204.86,54.19z"/>
<path class="st15" d="M207.74,88.28c2.11-0.04,3.93,0.36,4.67,2.56c0.46,1.39-0.14,3.44-1.07,4.17c-2.25,1.78-4.02,0.73-5.67-1.16
	c-0.54,1.49,0.05,2.61,0.61,3.66c0.42,0.79,0.15,0.91-0.54,0.87c-0.87-0.06-1.99,0.38-2.53-0.23c-0.51-0.58,0.44-1.43,0.55-2.22
	c0.09-0.6,0.36-1.18,0.18-1.93c-0.99,0.92-1.69,2.02-3.16,2.04c-1.78,0.02-3.65-1.86-3.64-3.57c0-2.74,1.05-3.89,3.81-4.16
	c0.62-0.06,0.88-0.16,0.58-0.84c-0.25-0.58-0.4-1.21-0.54-1.83c-0.54-2.35,1.6-4.04,3.39-4.02c1.24,0.01,2.37,0.05,3.37,1.03
	c1.4,1.37,1.23,2.81,0.59,4.38C208.19,87.42,207.97,87.8,207.74,88.28z"/>
<path class="st0" d="M199.5,70.89c0-3.03,2.5-5.4,5.67-5.38c3.05,0.02,5.58,2.46,5.57,5.39c-0.02,2.94-2.54,5.37-5.59,5.4
	C201.99,76.32,199.5,73.94,199.5,70.89z"/>
<path class="st0" d="M204.86,54.19c2.59,0.01,4.64,1.98,4.67,4.48c0.02,2.46-2.18,4.65-4.69,4.67c-2.56,0.02-4.67-2.07-4.66-4.61
	C200.19,56.13,202.2,54.18,204.86,54.19z"/>
<path class="st5" d="M193.56,44.27c0-17.28,0.01-34.56-0.02-51.84c0-0.82,0.16-0.99,0.98-0.98c6.64,0.04,13.28,0.03,19.92,0.01
	c0.6,0,0.74,0.14,0.74,0.74c-0.02,17.12-0.02,34.24,0,51.36c0,0.6-0.14,0.74-0.74,0.74C207.48,44.26,200.52,44.27,193.56,44.27z
	 M202.37-4.73c-2.69-0.11-4.9,0.98-6.19,3.55c-1.5,2.96-1.01,5.75,1.12,8.22c0.62,0.73,0.81,1.07-0.02,1.85
	c-2.12,1.98-2.8,4.52-2.12,7.34c0.75,3.12,3.62,5.48,6.78,5.73c3.47,0.27,7.09-1.59,8.18-4.34c1.44-3.61,0.77-6.52-1.86-9.05
	c-1.07-1.03-0.84-1.48-0.19-2.47c1.5-2.29,1.85-4.83,0.53-7.26C207.34-3.48,205.34-4.9,202.37-4.73z M209.73,33.23
	c-0.06-0.16-0.1-0.5-0.29-0.73c-1.88-2.27-3.78-4.53-5.68-6.78c-0.54-0.64-0.97-0.56-1.48,0.12c-1.59,2.1-3.23,4.15-4.86,6.22
	c-1.04,1.32-1.04,1.73,0.01,3c1.65,1.99,3.3,4,4.95,6c0.85,1.04,1.25,1.1,1.95,0c1.42-2.23,3.14-4.22,4.75-6.29
	C209.4,34.36,209.7,33.93,209.73,33.23z"/>
<path class="st6" d="M202.37-4.73c2.97-0.17,4.97,1.26,6.23,3.57c1.32,2.43,0.97,4.97-0.53,7.26c-0.65,0.99-0.88,1.44,0.19,2.47
	c2.63,2.53,3.29,5.44,1.86,9.05c-1.09,2.75-4.71,4.61-8.18,4.34c-3.17-0.25-6.03-2.61-6.78-5.73c-0.68-2.82-0.01-5.36,2.12-7.34
	c0.83-0.77,0.64-1.12,0.02-1.85c-2.13-2.47-2.62-5.26-1.12-8.22C197.48-3.75,199.68-4.84,202.37-4.73z M202.93,9.44
	c-2.79-0.02-5.1,2.11-5.16,4.75c-0.06,2.72,2.2,4.95,5.04,4.98c2.69,0.03,5.01-2.25,5.01-4.9C207.82,11.57,205.68,9.46,202.93,9.44z
	 M197.76,2.05c-0.03,2.54,2.07,4.73,4.56,4.74c2.39,0.01,4.57-2.15,4.64-4.59c0.07-2.47-2.01-4.57-4.53-4.59
	C199.84-2.42,197.79-0.47,197.76,2.05z"/>
<path class="st12" d="M209.73,33.23c-0.03,0.7-0.33,1.13-0.65,1.54c-1.62,2.07-3.34,4.06-4.75,6.29c-0.69,1.09-1.1,1.04-1.95,0
	c-1.64-2-3.29-4-4.95-6c-1.06-1.27-1.06-1.69-0.01-3c1.63-2.06,3.27-4.12,4.86-6.22c0.52-0.68,0.94-0.76,1.48-0.12
	c1.9,2.25,3.8,4.51,5.68,6.78C209.63,32.73,209.67,33.08,209.73,33.23z"/>
<path class="st5" d="M202.93,9.44c2.75,0.02,4.89,2.14,4.9,4.83c0,2.66-2.32,4.93-5.01,4.9c-2.84-0.03-5.1-2.26-5.04-4.98
	C197.83,11.55,200.14,9.42,202.93,9.44z"/>
<path class="st5" d="M197.76,2.05c0.03-2.51,2.08-4.47,4.66-4.44c2.53,0.02,4.6,2.12,4.53,4.59c-0.07,2.44-2.25,4.61-4.64,4.59
	C199.83,6.77,197.73,4.58,197.76,2.05z"/>
<path class="st0" d="M216.93,104.6c0-17.28,0.01-34.56-0.02-51.84c0-0.82,0.16-0.99,0.98-0.98c6.64,0.04,13.28,0.03,19.92,0.01
	c0.6,0,0.74,0.14,0.74,0.74c-0.02,17.12-0.02,34.24,0,51.36c0,0.6-0.14,0.74-0.74,0.74C230.85,104.59,223.89,104.6,216.93,104.6z
	 M236.82,66.59c0.06-2.75-0.66-5.58-2.17-8.17c-1.47-2.53-4.19-3.82-6.75-3.37c-3.22,0.56-5.88,3.23-6.25,6.71
	c-0.44,4.15,0.57,7.06,4,9.01c2.71,1.54,5.35,1.18,7.69-0.95c0.22-0.2,0.42-0.63,0.76-0.43c0.34,0.19,0.29,0.66,0.16,0.98
	c-0.37,0.9-0.28,1.88-0.53,2.8c-0.96,3.44-3.13,5.26-6.12,5.04c-1.44-0.1-2.53-0.81-3.34-2.01c-0.37-0.54-0.71-1.05-1.63-0.54
	c-1,0.55-0.66,1.17-0.36,1.76c1.15,2.3,4.29,3.56,6.72,3.31c2.55-0.27,4.47-1.71,5.69-4.02C236.32,73.6,236.87,70.29,236.82,66.59z
	 M231.48,90.67c1.11-1.86,2.01-3.59,0.63-5.47c-1.04-1.42-3.37-1.96-5.18-0.94c-3.02,1.71-2.08,4.01-0.81,6.39
	c-2.1-0.1-3.86,0.11-4.66,2.18c-0.52,1.35-0.03,3.6,0.89,4.35c2.24,1.84,4.01,0.7,5.68-1.1c0.08,0.3,0.15,0.42,0.13,0.52
	c-0.13,0.54-0.27,1.08-0.44,1.61c-0.66,2.09-0.66,2.1,1.54,2.34c0.42,0.04,0.9,0.55,1.27-0.12c0.31-0.57-0.09-0.98-0.31-1.44
	c-0.4-0.84-0.89-1.67-0.48-2.81c1.35,1.43,2.77,2.65,4.74,1.62c1.61-0.84,2.36-3.01,1.79-4.78
	C235.53,90.75,233.65,90.53,231.48,90.67z"/>
<path class="st16" d="M236.82,66.59c0.05,3.7-0.5,7.01-2.13,10.09c-1.22,2.31-3.14,3.75-5.69,4.02c-2.43,0.25-5.57-1.01-6.72-3.31
	c-0.29-0.59-0.63-1.21,0.36-1.76c0.93-0.51,1.27,0,1.63,0.54c0.82,1.2,1.9,1.91,3.34,2.01c2.99,0.22,5.16-1.6,6.12-5.04
	c0.26-0.92,0.17-1.9,0.53-2.8c0.13-0.32,0.18-0.78-0.16-0.98c-0.33-0.19-0.54,0.24-0.76,0.43c-2.35,2.13-4.98,2.5-7.69,0.95
	c-3.43-1.95-4.44-4.85-4-9.01c0.37-3.47,3.03-6.15,6.25-6.71c2.56-0.44,5.28,0.85,6.75,3.37C236.16,61,236.88,63.84,236.82,66.59z
	 M223.89,63.28c0.01,1.78,0.68,3.51,1.82,4.68c1.66,1.7,4.3,1.74,6.02,0.1c2.6-2.49,2.61-7.06,0.01-9.58
	c-1.64-1.59-4.17-1.61-5.81-0.01C224.57,59.78,223.9,61.4,223.89,63.28z"/>
<path class="st11" d="M231.48,90.67c2.17-0.14,4.05,0.08,4.79,2.37c0.57,1.77-0.18,3.94-1.79,4.78c-1.97,1.02-3.39-0.19-4.74-1.62
	c-0.41,1.13,0.08,1.96,0.48,2.81c0.22,0.46,0.62,0.86,0.31,1.44c-0.36,0.66-0.85,0.16-1.27,0.12c-2.2-0.23-2.2-0.24-1.54-2.34
	c0.17-0.53,0.3-1.07,0.44-1.61c0.02-0.1-0.05-0.22-0.13-0.52c-1.67,1.8-3.43,2.94-5.68,1.1c-0.92-0.75-1.41-3-0.89-4.35
	c0.8-2.07,2.56-2.29,4.66-2.18c-1.27-2.38-2.21-4.68,0.81-6.39c1.81-1.02,4.13-0.48,5.18,0.94C233.5,87.08,232.6,88.81,231.48,90.67
	z"/>
<path class="st0" d="M223.89,63.28c0.01-1.88,0.69-3.5,2.03-4.81c1.65-1.61,4.17-1.58,5.81,0.01c2.6,2.51,2.59,7.09-0.01,9.58
	c-1.71,1.64-4.36,1.6-6.02-0.1C224.57,66.79,223.9,65.07,223.89,63.28z"/>
<path class="st5" d="M217.31,43.89c0-17.28,0.01-34.56-0.02-51.84c0-0.82,0.16-0.99,0.98-0.98c6.64,0.04,13.28,0.03,19.92,0.01
	c0.6,0,0.74,0.14,0.74,0.74c-0.02,17.12-0.02,34.24,0,51.36c0,0.6-0.14,0.74-0.74,0.74C231.23,43.89,224.27,43.89,217.31,43.89z
	 M217.99,4.34c-0.05,1.34,0.47,2.91,1.23,4.44c1.82,3.63,6.62,4.84,9.94,2.48c0.32-0.23,0.64-0.49,0.99-0.66
	c0.38-0.19,0.69-0.17,0.65,0.42c-0.15,1.88-0.4,3.74-1.46,5.37c-2.23,3.45-5.32,3.71-8.1,0.69c-0.16-0.17-0.38-0.29-0.58-0.42
	c-0.78-0.54-1.38-0.12-1.86,0.43c-0.47,0.54-0.1,1.02,0.3,1.44c0.39,0.4,0.74,0.84,1.16,1.21c4.08,3.54,9.56,1.77,11.74-3.18
	c1.17-2.65,1.51-5.45,1.5-8.26c-0.01-3.49-0.71-6.86-2.79-9.78c-1.35-1.89-4.66-3.24-6.49-2.73C220.53-3.18,218,0.15,217.99,4.34z
	 M233.03,33.39c-0.04-0.37-0.17-0.69-0.41-0.97c-1.82-2.12-3.64-4.24-5.45-6.36c-0.6-0.7-1.14-0.77-1.74,0.01
	c-1.7,2.21-3.44,4.39-5.14,6.61c-0.54,0.71-0.53,1.42,0.06,2.18c1.12,1.45,2.52,2.65,3.59,4.15c0.64,0.9,1.42,1.69,2.13,2.54
	c0.41,0.49,0.7,0.6,1.17-0.04c1.77-2.4,3.63-4.74,5.44-7.11C232.91,34.1,233.02,33.76,233.03,33.39z"/>
<path class="st9" d="M217.99,4.34c0.02-4.19,2.55-7.52,6.22-8.55c1.84-0.52,5.14,0.83,6.49,2.73c2.08,2.92,2.78,6.29,2.79,9.78
	c0.01,2.82-0.33,5.61-1.5,8.26c-2.18,4.95-7.65,6.72-11.74,3.18c-0.42-0.36-0.78-0.8-1.16-1.21c-0.41-0.42-0.78-0.9-0.3-1.44
	c0.48-0.55,1.09-0.97,1.86-0.43c0.2,0.14,0.42,0.25,0.58,0.42c2.79,3.02,5.88,2.76,8.1-0.69c1.05-1.63,1.3-3.49,1.46-5.37
	c0.05-0.59-0.26-0.61-0.65-0.42c-0.35,0.17-0.67,0.43-0.99,0.66c-3.32,2.36-8.12,1.15-9.94-2.48
	C218.46,7.26,217.94,5.69,217.99,4.34z M230.07,4.41c-0.01-1.85-0.47-3.27-1.41-4.42c-2.04-2.5-5.37-2.35-7.18,0.32
	c-1.57,2.33-1.41,5.9,0.36,8.06c1.9,2.32,5.04,2.3,6.88-0.06C229.63,7.14,230.16,5.84,230.07,4.41z"/>
<path class="st7" d="M233.03,33.39c-0.01,0.37-0.13,0.71-0.35,1c-1.82,2.37-3.67,4.71-5.44,7.11c-0.47,0.64-0.76,0.53-1.17,0.04
	c-0.71-0.84-1.49-1.64-2.13-2.54c-1.06-1.5-2.46-2.7-3.59-4.15c-0.59-0.76-0.6-1.47-0.06-2.18c1.7-2.22,3.44-4.4,5.14-6.61
	c0.6-0.78,1.14-0.71,1.74-0.01c1.81,2.12,3.63,4.24,5.45,6.36C232.86,32.7,233,33.02,233.03,33.39z"/>
<path class="st5" d="M230.07,4.41c0.09,1.43-0.44,2.73-1.34,3.9c-1.84,2.36-4.98,2.39-6.88,0.06c-1.77-2.16-1.93-5.72-0.36-8.06
	c1.8-2.67,5.14-2.82,7.18-0.32C229.6,1.14,230.06,2.57,230.07,4.41z"/>
<path class="st0" d="M241.06,105.35c0-17.28,0.01-34.56-0.02-51.84c0-0.82,0.16-0.99,0.98-0.98c6.64,0.04,13.28,0.03,19.92,0.01
	c0.6,0,0.74,0.14,0.74,0.74c-0.02,17.12-0.02,34.24,0,51.36c0,0.6-0.14,0.74-0.74,0.74C254.98,105.34,248.02,105.35,241.06,105.35z
	 M253.98,96.39c0.42,0.34,0.81,0.67,1.22,0.97c2.04,1.52,3.91,1.13,5.19-1.07c1.2-2.07,0.22-5.83-3.09-5.7
	c-0.82,0.03-1.21-0.14-0.67-1c0.16-0.27,0.26-0.58,0.36-0.88c0.58-1.67,0.06-3.36-1.3-4.22c-1.53-0.97-4.01-0.8-5.26,0.36
	c-1.11,1.03-1.34,2.93-0.55,4.42c0.62,1.16,0.61,1.17-0.66,1.24c-1.66,0.09-3.01,1.12-3.47,2.66c-0.43,1.45,0.1,3.45,1.1,4.15
	c1.64,1.15,2.91,1.11,4.59-0.12c0.24-0.18,0.41-0.51,0.86-0.43c0.31,1.4-0.66,2.46-1,3.73c0.97,0.44,1.98,0.16,2.96,0.26
	c0.72,0.08,0.79-0.21,0.65-0.83C254.65,98.78,253.88,97.79,253.98,96.39z M250.65,68.26c-0.06,0-0.12,0-0.19,0
	c0,2.71-0.02,5.43,0.01,8.14c0.02,1.84,0.5,3.48,2.24,4.47c2.09,1.19,4.18,1.18,6.25,0.01c1.93-1.09,2.47-2.87,2.48-4.96
	c0.02-4.94,0.06-9.87,0.15-14.81c0.06-3.36-1.42-5.57-4.37-5.84c-4.5-0.42-6.64,1.02-6.58,5.7
	C250.67,63.39,250.65,65.83,250.65,68.26z M248.31,68c0.03,0,0.06,0,0.08,0c0-3.95,0.01-7.91-0.02-11.86c0-0.5,0.3-1.3-0.76-1.23
	c-0.84,0.05-1.54,0.2-1.51,1.25c0.04,1.63-0.08,3.26-0.07,4.9c0.04,6.29-0.03,12.59-0.05,18.88c0,0.74-0.03,1.46,1.07,1.47
	c1.05,0.01,1.27-0.52,1.27-1.43C248.29,75.99,248.31,71.99,248.31,68z"/>
<path class="st15" d="M253.98,96.39c-0.1,1.4,0.67,2.39,0.93,3.54c0.14,0.61,0.07,0.91-0.65,0.83c-0.98-0.11-1.99,0.18-2.96-0.26
	c0.34-1.26,1.31-2.33,1-3.73c-0.45-0.08-0.61,0.26-0.86,0.43c-1.68,1.24-2.94,1.28-4.59,0.12c-1-0.7-1.53-2.71-1.1-4.15
	c0.46-1.53,1.8-2.57,3.47-2.66c1.27-0.07,1.28-0.08,0.66-1.24c-0.8-1.49-0.56-3.39,0.55-4.42c1.25-1.16,3.74-1.33,5.26-0.36
	c1.35,0.86,1.87,2.55,1.3,4.22c-0.1,0.3-0.2,0.61-0.36,0.88c-0.53,0.86-0.14,1.03,0.67,1c3.32-0.13,4.29,3.63,3.09,5.7
	c-1.28,2.2-3.15,2.59-5.19,1.07C254.79,97.06,254.4,96.73,253.98,96.39z"/>
<path class="st14" d="M250.65,68.26c0-2.44,0.03-4.87-0.01-7.31c-0.06-4.68,2.08-6.12,6.58-5.7c2.95,0.28,4.43,2.48,4.37,5.84
	c-0.09,4.94-0.13,9.87-0.15,14.81c-0.01,2.09-0.55,3.87-2.48,4.96c-2.08,1.18-4.17,1.18-6.25-0.01c-1.74-0.99-2.22-2.63-2.24-4.47
	c-0.03-2.71-0.01-5.43-0.01-8.14C250.52,68.26,250.59,68.26,250.65,68.26z M259.06,67.31c-0.07-1.66,0.26-4.53,0.05-7.4
	c-0.09-1.22-0.71-1.97-1.89-2.32c-2.6-0.76-4.28,0.42-4.33,3.28c-0.09,5.27-0.06,10.54-0.06,15.81c0,1.26,0.66,2.09,1.85,2.51
	c2.29,0.82,4.34-0.57,4.37-3.01C259.09,73.63,259.06,71.07,259.06,67.31z"/>
<path class="st14" d="M248.31,68c0,3.99-0.01,7.99,0.01,11.98c0,0.91-0.22,1.44-1.27,1.43c-1.1-0.01-1.07-0.73-1.07-1.47
	c0.03-6.29,0.1-12.59,0.05-18.88c-0.01-1.64,0.11-3.27,0.07-4.9c-0.03-1.05,0.67-1.2,1.51-1.25c1.07-0.07,0.76,0.73,0.76,1.23
	c0.03,3.95,0.02,7.91,0.02,11.86C248.36,68,248.34,68,248.31,68z"/>
<path class="st0" d="M259.06,67.31c0,3.77,0.03,6.32-0.01,8.88c-0.03,2.43-2.08,3.82-4.37,3.01c-1.18-0.42-1.85-1.25-1.85-2.51
	c0-5.27-0.03-10.54,0.06-15.81c0.05-2.86,1.73-4.05,4.33-3.28c1.18,0.35,1.8,1.1,1.89,2.32C259.32,62.78,258.99,65.65,259.06,67.31z
	"/>
<path class="st5" d="M241.06,45.4c0-17.28,0.01-34.56-0.02-51.84c0-0.82,0.16-0.99,0.98-0.98c6.64,0.04,13.28,0.03,19.92,0.01
	c0.6,0,0.74,0.14,0.74,0.74c-0.02,17.12-0.02,34.24,0,51.36c0,0.6-0.14,0.74-0.74,0.74C254.98,45.39,248.02,45.4,241.06,45.4z
	 M248.26,9.08c0.01,0,0.03,0,0.04,0c0,2.72-0.01,5.44,0,8.16c0,1.13,0.16,2.23,0.78,3.22c1.17,1.87,3.89,2.74,6.41,2.05
	c2.3-0.63,3.82-2.5,3.84-4.9c0.03-5.15,0.04-10.3-0.01-15.45c-0.01-0.97,0.15-1.97-0.27-2.95c-0.98-2.31-3.8-3.65-6.12-3.21
	c-2.62,0.5-4.76,1.52-4.68,5.17C248.31,3.8,248.26,6.44,248.26,9.08z M258.06,33.88c0.02-0.4-0.23-0.67-0.46-0.94
	c-1.94-2.34-3.89-4.66-5.81-7.01c-0.37-0.45-0.57-0.53-0.97-0.02c-1.91,2.41-3.84,4.8-5.79,7.18c-0.52,0.64-0.49,1.2,0.03,1.82
	c1.96,2.32,3.91,4.64,5.84,6.98c0.44,0.54,0.67,0.44,1.06-0.05c1.85-2.35,3.74-4.68,5.62-7.01
	C257.81,34.54,258.04,34.27,258.06,33.88z M243.68,9.04c0.04,0,0.08,0,0.13,0c0,3.84,0,7.68,0,11.52c0,0.32,0.03,0.64,0.07,0.95
	c0.1,0.81,0.6,1.24,1.38,1.19c0.85-0.06,1.03-0.69,1.05-1.46c0.18-6.39-0.25-12.76-0.24-19.15c0-1.68-0.04-3.36-0.07-5.04
	c-0.02-0.99-0.63-1.18-1.46-1.09c-0.83,0.09-0.86,0.7-0.86,1.32C243.68,1.2,243.68,5.12,243.68,9.04z"/>
<path class="st17" d="M248.26,9.08c0-2.64,0.04-5.28-0.01-7.92c-0.08-3.65,2.07-4.67,4.68-5.17c2.32-0.44,5.14,0.9,6.12,3.21
	c0.41,0.98,0.26,1.97,0.27,2.95c0.05,5.15,0.05,10.3,0.01,15.45c-0.02,2.41-1.54,4.28-3.84,4.9c-2.52,0.69-5.24-0.18-6.41-2.05
	c-0.62-0.98-0.78-2.09-0.78-3.22c-0.01-2.72,0-5.44,0-8.16C248.29,9.08,248.28,9.08,248.26,9.08z M250.66,9.05c0.01,0,0.03,0,0.04,0
	c0,1.04-0.02,2.08,0,3.12c0.05,1.96-0.14,3.92,0.11,5.87c0.12,0.93,0.56,1.64,1.48,2.01c2.49,1.01,4.59-0.36,4.6-3.02
	c0.01-4.16,0.01-8.32,0-12.48c-0.01-1.28,0.02-2.57-0.15-3.83c-0.24-1.74-1.42-2.48-3.42-2.35c-1.68,0.11-2.6,0.95-2.64,2.64
	C250.62,3.69,250.66,6.37,250.66,9.05z"/>
<path class="st17" d="M258.06,33.88c-0.02,0.38-0.25,0.66-0.48,0.94c-1.88,2.33-3.76,4.66-5.62,7.01c-0.39,0.49-0.61,0.59-1.06,0.05
	c-1.92-2.35-3.88-4.66-5.84-6.98c-0.52-0.61-0.55-1.18-0.03-1.82c1.94-2.38,3.88-4.77,5.79-7.18c0.4-0.51,0.6-0.43,0.97,0.02
	c1.92,2.35,3.87,4.68,5.81,7.01C257.83,33.21,258.08,33.48,258.06,33.88z"/>
<path class="st18" d="M243.68,9.04c0-3.92,0-7.84,0-11.75c0-0.63,0.02-1.23,0.86-1.32c0.83-0.09,1.45,0.1,1.46,1.09
	c0.03,1.68,0.07,3.36,0.07,5.04c-0.02,6.38,0.42,12.76,0.24,19.15c-0.02,0.77-0.2,1.4-1.05,1.46c-0.78,0.05-1.28-0.38-1.38-1.19
	c-0.04-0.32-0.07-0.64-0.07-0.95c0-3.84,0-7.68,0-11.52C243.76,9.04,243.72,9.04,243.68,9.04z"/>
<path class="st5" d="M250.66,9.05c0-2.68-0.05-5.36,0.02-8.04c0.04-1.7,0.96-2.53,2.64-2.64c2-0.13,3.18,0.61,3.42,2.35
	c0.17,1.26,0.15,2.55,0.15,3.83c0.02,4.16,0.01,8.32,0,12.48c0,2.66-2.11,4.03-4.6,3.02c-0.92-0.37-1.35-1.08-1.48-2.01
	c-0.26-1.95-0.07-3.91-0.11-5.87c-0.03-1.04,0-2.08,0-3.12C250.69,9.05,250.68,9.05,250.66,9.05z"/>
<path class="st0" d="M264.93,54.82c6.92,0,13.84,0.01,20.76-0.02c0.72,0,0.86,0.14,0.86,0.86c-0.03,17.04-0.03,34.08,0,51.12
	c0,0.72-0.14,0.86-0.86,0.86c-6.92-0.03-13.84-0.02-20.76-0.02C264.93,90.02,264.93,72.42,264.93,54.82z M271.2,83.59
	c0.76,0,1.52,0,2.28,0c0.72,0,1.26-0.19,1.3-1.05c0.03-0.72,0.04-1.38-0.93-1.49c-0.83-0.09-1.04-0.61-0.88-1.37
	c0.2-0.98,0.38-1.96,0.55-2.94c0.1-0.6,0.47-0.88,1.03-1.02c3.43-0.84,4.77,0.04,5.3,3.51c0.02,0.12,0.03,0.24,0.06,0.35
	c0.22,0.82,0.13,1.41-0.92,1.5c-0.98,0.09-0.87,0.87-0.86,1.55c0.01,0.74,0.5,0.94,1.12,0.95c1.52,0.01,3.04,0.02,4.56-0.01
	c0.47-0.01,1.17,0.09,1.02-0.76c-0.12-0.68,0.43-1.74-0.92-1.8c-0.67-0.03-1.09-0.28-1.25-1.02c-1.44-6.63-2.9-13.26-4.09-19.94
	c-0.13-0.72-0.13-1.69-1.27-1.75c-1.87-0.1-2.79,0.31-3.15,1.51c-0.31,1.03-0.63,2.07-0.78,3.13c-0.79,5.5-2.01,10.91-2.91,16.39
	c-0.18,1.06-0.57,1.82-1.82,1.77c-0.92-0.04-0.98,0.65-1.01,1.31c-0.03,0.71,0.32,1.15,1.06,1.16
	C269.52,83.59,270.36,83.58,271.2,83.59z M277.4,99.69c0.76,0.08,1,0.62,1.39,0.93c0.73,0.57,1.43,1.2,2.44,1.09
	c1.43-0.16,3.11-1.78,3.18-3.01c0.16-2.84-0.53-3.98-2.69-4.48c-1.65-0.38-1.65-0.38-1.23-2.06c0.37-1.46,0.48-2.85-0.9-3.92
	c-1.53-1.19-3.69-1.27-5.13-0.16c-1.54,1.2-1.88,2.83-0.83,4.82c0.5,0.95,0.37,1.26-0.67,1.22c-0.16-0.01-0.32,0.03-0.48,0.05
	c-1.76,0.24-2.68,1.04-3.02,2.61c-0.37,1.74,0.29,3.5,1.63,4.32c1.57,0.97,3.35,0.53,4.35-1.07c0.18-0.29,0.27-0.78,0.75-0.54
	c0.47,0.23,0.13,0.63,0.04,0.94c-0.11,0.38-0.24,0.76-0.4,1.13c-0.3,0.72-0.97,1.49-0.43,2.23c0.57,0.79,1.55,0.34,2.37,0.31
	c0.97-0.03,1.07-0.58,0.66-1.27C277.89,101.88,277.74,100.83,277.4,99.69z"/>
<path class="st4" d="M271.2,83.58c-0.84,0-1.68,0.01-2.52-0.01c-0.75-0.01-1.09-0.45-1.06-1.16c0.02-0.66,0.09-1.35,1.01-1.31
	c1.25,0.05,1.65-0.71,1.82-1.77c0.91-5.47,2.12-10.89,2.91-16.39c0.15-1.06,0.47-2.1,0.78-3.13c0.36-1.2,1.29-1.61,3.15-1.51
	c1.14,0.06,1.14,1.03,1.27,1.75c1.19,6.68,2.65,13.31,4.09,19.94c0.16,0.74,0.58,0.99,1.25,1.02c1.36,0.06,0.8,1.12,0.92,1.8
	c0.15,0.85-0.55,0.75-1.02,0.76c-1.52,0.03-3.04,0.02-4.56,0.01c-0.62,0-1.11-0.2-1.12-0.95c-0.01-0.68-0.12-1.46,0.86-1.55
	c1.04-0.09,1.14-0.68,0.92-1.5c-0.03-0.12-0.04-0.24-0.06-0.35c-0.54-3.47-1.88-4.35-5.3-3.51c-0.56,0.14-0.92,0.42-1.03,1.02
	c-0.17,0.98-0.35,1.97-0.55,2.94c-0.16,0.77,0.05,1.28,0.88,1.37c0.97,0.1,0.96,0.77,0.93,1.49c-0.03,0.86-0.58,1.05-1.3,1.05
	C272.72,83.58,271.96,83.59,271.2,83.58z M276.26,63.65c-0.72,2.11-1.09,4.3-1.51,6.48c-0.62,3.23-0.46,3.38,2.88,2.97
	c0.65-0.08,0.81-0.33,0.71-0.92C277.82,69.31,277.24,66.46,276.26,63.65z"/>
<path class="st19" d="M277.4,99.69c0.34,1.14,0.49,2.19,1.05,3.13c0.41,0.7,0.31,1.24-0.66,1.27c-0.81,0.02-1.8,0.48-2.37-0.31
	c-0.54-0.74,0.13-1.51,0.43-2.23c0.15-0.37,0.28-0.74,0.4-1.13c0.09-0.32,0.43-0.71-0.04-0.94c-0.48-0.24-0.57,0.26-0.75,0.54
	c-1,1.6-2.77,2.04-4.35,1.07c-1.34-0.82-2-2.59-1.63-4.32c0.34-1.57,1.26-2.37,3.02-2.61c0.16-0.02,0.32-0.06,0.48-0.05
	c1.04,0.04,1.18-0.27,0.67-1.22c-1.06-1.99-0.72-3.62,0.83-4.82c1.43-1.11,3.59-1.03,5.13,0.16c1.38,1.07,1.27,2.46,0.9,3.92
	c-0.43,1.67-0.43,1.67,1.23,2.06c2.16,0.5,2.85,1.65,2.69,4.48c-0.07,1.24-1.75,2.85-3.18,3.01c-1.01,0.11-1.71-0.52-2.44-1.09
	C278.4,100.31,278.16,99.78,277.4,99.69z"/>
<path class="st0" d="M276.26,63.65c0.98,2.81,1.55,5.66,2.07,8.52c0.11,0.6-0.06,0.84-0.71,0.92c-3.34,0.42-3.5,0.26-2.88-2.97
	C275.17,67.95,275.54,65.77,276.26,63.65z"/>
<path class="st5" d="M265.33,46.5c0-17.28,0.01-34.56-0.02-51.84c0-0.82,0.16-0.99,0.98-0.98c6.64,0.04,13.28,0.03,19.92,0.01
	c0.6,0,0.74,0.14,0.74,0.74c-0.02,17.12-0.02,34.24,0,51.36c0,0.6-0.14,0.74-0.74,0.74C279.25,46.49,272.29,46.5,265.33,46.5z
	 M270.72,22.48c0.72,0,1.43-0.02,2.15,0.01c0.59,0.02,1.26,0.02,1.28-0.69c0.02-0.66,0.23-1.62-0.97-1.71
	c-0.66-0.05-1.01-0.48-0.9-1.16c0.18-1.14,0.37-2.28,0.61-3.41c0.12-0.58,0.6-0.86,1.14-0.91c3.76-0.35,4.65-0.44,5.28,3.51
	c0.04,0.28,0.12,0.55,0.16,0.82c0.08,0.62-0.19,1.06-0.8,1.11c-0.93,0.08-1.1,0.59-1.04,1.39c0.07,0.88,0.66,1.01,1.34,1.01
	c1.4,0,2.79-0.05,4.19-0.06c0.73-0.01,1.12-0.35,1.12-1.09c0-0.65-0.11-1.21-0.93-1.25c-0.99-0.04-1.3-0.65-1.49-1.54
	c-1.38-6.51-2.8-13.02-4.22-19.52c-0.37-1.67-0.51-1.67-2.56-1.68c-1.27-0.01-1.6,0.67-1.8,1.74c-1.23,6.54-2.19,13.14-3.59,19.65
	c-0.22,1-0.51,1.55-1.6,1.38c-0.68-0.11-1.09,0.12-1.05,0.89c0.03,0.69-0.23,1.52,0.94,1.51C268.89,22.47,269.81,22.48,270.72,22.48
	z M268.91,34.63c0.21,0.79,0.6,1.43,1.09,2.01c1.52,1.81,3.09,3.59,4.56,5.45c0.83,1.05,1.4,1.17,2.25,0.13
	c1.69-2.08,3.34-4.18,5.02-6.26c0.65-0.81,0.68-1.55,0-2.36c-1.72-2.05-3.4-4.13-5.11-6.19c-0.84-1.01-1.11-0.99-1.99-0.09
	c-1.73,1.77-2.91,3.97-4.68,5.72C269.62,33.47,269.12,34.01,268.91,34.63z"/>
<path class="st20" d="M270.72,22.48c-0.91,0-1.83-0.01-2.74,0c-1.16,0.02-0.9-0.82-0.94-1.51c-0.04-0.77,0.37-1,1.05-0.89
	c1.1,0.18,1.39-0.37,1.6-1.38c1.4-6.52,2.35-13.11,3.59-19.65c0.2-1.07,0.54-1.74,1.8-1.74c2.06,0.01,2.2,0.01,2.56,1.68
	c1.43,6.5,2.84,13.01,4.22,19.52c0.19,0.89,0.5,1.5,1.49,1.54c0.83,0.03,0.94,0.59,0.93,1.25c-0.01,0.74-0.39,1.08-1.12,1.09
	c-1.4,0.02-2.79,0.06-4.19,0.06c-0.68,0-1.27-0.14-1.34-1.01c-0.06-0.8,0.11-1.31,1.04-1.39c0.61-0.05,0.88-0.49,0.8-1.11
	c-0.04-0.28-0.12-0.55-0.16-0.82c-0.64-3.96-1.52-3.86-5.28-3.51c-0.55,0.05-1.02,0.33-1.14,0.91c-0.23,1.13-0.43,2.27-0.61,3.41
	c-0.11,0.67,0.24,1.11,0.9,1.16c1.2,0.09,0.99,1.04,0.97,1.71c-0.02,0.71-0.69,0.71-1.28,0.69
	C272.15,22.46,271.44,22.48,270.72,22.48z M275.75,1.7c-0.1,0-0.2,0-0.29,0.01c-0.09,0.21-0.22,0.42-0.26,0.65
	c-0.42,2.27-0.87,4.53-1.23,6.81c-0.15,0.94-0.89,2.16-0.04,2.81c0.75,0.57,2,0.21,3.04,0.16c0.04,0,0.08-0.01,0.12-0.01
	c0.7-0.02,0.84-0.4,0.69-1.03c-0.27-1.16-0.49-2.33-0.75-3.5C276.62,5.63,276.18,3.67,275.75,1.7z"/>
<path class="st7" d="M268.91,34.63c0.22-0.62,0.71-1.17,1.14-1.59c1.77-1.75,2.95-3.95,4.68-5.72c0.88-0.9,1.15-0.92,1.99,0.09
	c1.71,2.06,3.39,4.14,5.11,6.19c0.68,0.81,0.65,1.55,0,2.36c-1.68,2.08-3.34,4.18-5.02,6.26c-0.85,1.04-1.42,0.93-2.25-0.13
	c-1.47-1.86-3.03-3.64-4.56-5.45C269.51,36.06,269.12,35.43,268.91,34.63z"/>
<path class="st5" d="M275.75,1.7c0.43,1.96,0.86,3.93,1.29,5.89c0.25,1.17,0.48,2.34,0.75,3.5c0.14,0.63,0.01,1-0.69,1.03
	c-0.04,0-0.08,0.01-0.12,0.01c-1.03,0.05-2.29,0.41-3.04-0.16c-0.86-0.65-0.11-1.86,0.04-2.81c0.36-2.28,0.8-4.54,1.23-6.81
	c0.04-0.22,0.17-0.43,0.26-0.65C275.56,1.71,275.65,1.71,275.75,1.7z"/>
<path class="st0" d="M310.81,80.23c0,8.47-0.01,16.95,0.02,25.42c0,0.66-0.06,0.89-0.83,0.89c-6.67-0.04-13.35-0.04-20.02,0
	c-0.71,0-0.77-0.2-0.77-0.82c0.02-17.07,0.02-34.13,0-51.2c0-0.62,0.06-0.83,0.77-0.82c6.67,0.04,13.35,0.04,20.02,0
	c0.78-0.01,0.83,0.23,0.83,0.89C310.8,63.12,310.81,71.68,310.81,80.23z M300.27,100.07c-0.21,0.6-0.41,1.2-0.64,1.8
	c-1,2.57-0.91,2.71,1.8,2.69c1.4-0.01,1.59-0.35,0.89-1.66c-0.49-0.91-0.65-1.87-0.58-3.05c0.7,0.68,1.29,1.15,1.68,1.82
	c0.12,0.21,0.26,0.36,0.54,0.41c2.42,0.47,4.91-1.57,4.89-4.04c-0.02-2.15-1.44-3.96-3.14-4.01c-1.56-0.05-1.56-0.05-1.04-1.53
	c1.03-3-0.08-4.94-3.16-5.34c-1.59-0.2-3.04,0.27-4,1.66c-0.95,1.37-0.73,2.79,0.03,4.18c0.2,0.37,0.58,0.66,0.48,1.19
	c-0.36-0.02-0.72-0.04-1.07-0.05c-2.58-0.04-3.53,0.78-3.9,3.34c-0.23,1.59,0.72,3.4,2.18,4.18c1.19,0.63,2.51,0.27,3.86-1.06
	c0.17-0.16,0.3-0.36,0.44-0.55C299.78,100.06,300.03,100.06,300.27,100.07z M305,70.17c0.01,0,0.03,0,0.04,0
	c0,1.16,0.01,2.32,0,3.48c-0.01,1.2,0.02,2.4-0.05,3.6c-0.07,1.19-0.06,2.44-1.12,3.29c-2.15,1.73-5.7,1.08-6.26-2.53
	c-0.08-0.55-0.14-1.12-0.11-1.67c0.05-0.96-0.53-1.15-1.29-1.14c-0.88,0.01-1.19,0.51-1.09,1.34c0.12,0.95,0.22,1.9,0.34,2.85
	c0.22,1.63,1.21,2.94,2.53,3.58c4.42,2.12,9.27,0.31,9.43-5.27c0.14-4.79,0.05-9.57,0.06-14.36c0-0.76,0.05-1.39,0.9-1.75
	c0.65-0.27,0.47-0.91,0.38-1.47c-0.11-0.63-0.53-0.69-1.05-0.69c-0.88,0.01-1.76-0.01-2.63-0.07c-0.67-0.04-1.15,0.06-1.32,0.85
	c-0.16,0.74-0.03,1.38,0.66,1.58c0.63,0.18,0.58,0.53,0.58,0.96C305,65.22,305,67.69,305,70.17z"/>
<path class="st11" d="M299.54,100.05c-0.15,0.18-0.28,0.38-0.44,0.55c-1.34,1.33-2.67,1.69-3.86,1.06
	c-1.47-0.78-2.41-2.58-2.18-4.18c0.37-2.55,1.32-3.37,3.9-3.34c0.35,0,0.7,0.03,1.07,0.05c0.11-0.53-0.28-0.82-0.48-1.19
	c-0.76-1.39-0.98-2.81-0.03-4.18c0.96-1.39,2.4-1.86,4-1.66c3.07,0.39,4.18,2.34,3.16,5.34c-0.51,1.49-0.51,1.49,1.04,1.53
	c1.7,0.05,3.12,1.86,3.14,4.01c0.02,2.46-2.47,4.51-4.89,4.04c-0.28-0.05-0.42-0.2-0.54-0.41c-0.39-0.67-0.98-1.15-1.68-1.82
	c-0.07,1.18,0.09,2.14,0.58,3.05c0.7,1.3,0.51,1.64-0.89,1.66c-2.7,0.03-2.79-0.12-1.8-2.69c0.23-0.59,0.43-1.2,0.64-1.8
	c0.29-0.08,0.54-0.23,0.37-0.57c-0.07-0.14-0.32-0.3-0.47-0.28C299.73,99.28,299.54,99.62,299.54,100.05z"/>
<path class="st21" d="M305,70.17c0-2.48,0-4.96,0-7.43c0-0.44,0.05-0.78-0.58-0.96c-0.69-0.2-0.82-0.84-0.66-1.58
	c0.17-0.79,0.64-0.89,1.32-0.85c0.87,0.05,1.75,0.07,2.63,0.07c0.53,0,0.95,0.05,1.05,0.69c0.1,0.56,0.28,1.2-0.38,1.47
	c-0.85,0.36-0.9,0.99-0.9,1.75c0,4.79,0.08,9.57-0.06,14.36c-0.16,5.59-5.01,7.4-9.43,5.27c-1.32-0.64-2.31-1.95-2.53-3.58
	c-0.13-0.95-0.22-1.9-0.34-2.85c-0.1-0.83,0.21-1.32,1.09-1.34c0.76-0.01,1.34,0.18,1.29,1.14c-0.03,0.55,0.03,1.12,0.11,1.67
	c0.56,3.61,4.1,4.26,6.26,2.53c1.05-0.84,1.05-2.1,1.12-3.29c0.07-1.2,0.04-2.4,0.05-3.6c0.01-1.16,0-2.32,0-3.48
	C305.03,70.17,305.02,70.17,305,70.17z"/>
<path class="st21" d="M299.54,100.05c0.01-0.44,0.19-0.77,0.64-0.84c0.14-0.02,0.39,0.14,0.47,0.28c0.17,0.34-0.07,0.48-0.37,0.57
	C300.03,100.06,299.78,100.06,299.54,100.05z"/>
<path class="st5" d="M311.06,21.35c0,8.47-0.01,16.95,0.02,25.42c0,0.66-0.06,0.89-0.83,0.88c-6.67-0.04-13.35-0.04-20.02,0
	c-0.71,0-0.77-0.2-0.77-0.82c0.02-17.07,0.02-34.13,0-51.2c0-0.62,0.07-0.83,0.77-0.82c6.67,0.04,13.35,0.04,20.02,0
	c0.78-0.01,0.83,0.23,0.83,0.89C311.05,4.25,311.06,12.8,311.06,21.35z M299.96,27.37c-2.56,3.06-5.04,6.03-7.52,9
	c-0.49,0.58-0.29,1.09,0.14,1.61c0.86,1.05,1.67,2.15,2.58,3.15c1.47,1.63,2.66,3.5,4.25,5.03c0.28,0.27,0.55,0.78,1.04,0.18
	c2.32-2.85,4.66-5.68,6.98-8.54c0.32-0.39,0.42-0.86,0.05-1.32C304.98,33.47,302.5,30.45,299.96,27.37z M303.57,11.64
	c-0.03,0-0.05,0-0.08,0c0,2.59,0.11,5.2-0.03,7.78c-0.12,2.17-1.31,3.21-3.33,3.34c-2.06,0.13-3.48-0.94-4.01-2.99
	c-0.18-0.67-0.19-1.34-0.17-2.02c0.02-0.8-0.35-1.2-1.13-1.21c-0.81-0.01-1.29,0.34-1.27,1.21c0.01,0.52-0.01,1.04,0.04,1.56
	c0.37,3.77,3.04,6.08,6.8,5.89c3.32-0.17,5.59-2.73,5.6-6.39c0.01-4.63-0.01-9.27-0.03-13.9c0-0.89,0.13-1.69,1-2.14
	c0.74-0.38,0.23-1,0.29-1.49c0.06-0.52-0.46-0.46-0.78-0.54c-1.07-0.28-2.15,0.03-3.22-0.04c-0.53-0.03-0.94,0.16-1.04,0.76
	c-0.09,0.56-0.2,1.17,0.45,1.46c0.8,0.36,0.93,1,0.92,1.77C303.56,7.01,303.57,9.33,303.57,11.64z"/>
<path class="st12" d="M299.96,27.37c2.54,3.08,5.03,6.1,7.51,9.11c0.37,0.45,0.27,0.92-0.05,1.32c-2.32,2.85-4.66,5.69-6.98,8.54
	c-0.49,0.6-0.76,0.09-1.04-0.18c-1.59-1.52-2.78-3.4-4.25-5.03c-0.91-1.01-1.72-2.1-2.58-3.15c-0.42-0.51-0.62-1.03-0.14-1.61
	C294.92,33.4,297.4,30.43,299.96,27.37z"/>
<path class="st22" d="M303.57,11.64c0-2.32-0.01-4.63,0.01-6.95c0.01-0.77-0.12-1.41-0.92-1.77c-0.65-0.29-0.54-0.9-0.45-1.46
	c0.09-0.6,0.5-0.79,1.04-0.76c1.07,0.07,2.15-0.24,3.22,0.04c0.32,0.08,0.84,0.02,0.78,0.54c-0.06,0.5,0.45,1.11-0.29,1.49
	c-0.87,0.45-1,1.25-1,2.14c0.02,4.63,0.05,9.27,0.03,13.9c-0.01,3.66-2.28,6.22-5.6,6.39c-3.76,0.19-6.44-2.12-6.8-5.89
	c-0.05-0.51-0.03-1.04-0.04-1.56c-0.02-0.87,0.47-1.22,1.27-1.21c0.78,0.01,1.16,0.41,1.13,1.21c-0.02,0.68-0.01,1.35,0.17,2.02
	c0.54,2.05,1.95,3.12,4.01,2.99c2.02-0.13,3.21-1.17,3.33-3.34c0.14-2.59,0.03-5.19,0.03-7.78
	C303.52,11.64,303.55,11.64,303.57,11.64z"/>
<path class="st0" d="M334.06,81.93c0,8.52-0.01,17.04,0.02,25.56c0,0.72-0.14,0.86-0.86,0.86c-6.64-0.03-13.28-0.03-19.92,0
	c-0.72,0-0.86-0.14-0.86-0.86c0.03-17.04,0.03-34.08,0-51.12c0-0.72,0.14-0.86,0.86-0.86c6.64,0.03,13.28,0.03,19.92,0
	c0.72,0,0.86,0.14,0.86,0.86C334.05,64.89,334.06,73.41,334.06,81.93z M324.63,72.79c1.09,3.1,2.11,5.99,3.12,8.88
	c0.17,0.5-0.16,0.77-0.57,0.89c-0.83,0.25-0.66,0.86-0.6,1.46c0.08,0.73,0.61,0.75,1.15,0.75c1.32-0.01,2.64-0.06,3.95-0.07
	c0.7-0.01,1.01-0.32,0.99-1.04c-0.02-0.64-0.15-1.12-0.93-1.08c-0.97,0.05-1.44-0.55-1.73-1.36c-1.23-3.46-2.44-6.93-3.68-10.38
	c-0.27-0.74-0.19-1.41,0.21-2.06c0.98-1.6,1.97-3.2,2.95-4.8c0.47-0.77,1.08-1.28,2.05-1.16c0.74,0.09,1-0.36,1.04-1
	c0.04-0.69-0.2-1.21-0.97-1.23c-1.36-0.03-2.72-0.06-4.08,0c-0.96,0.04-1.33,0.6-0.93,1.43c0.51,1.03,0.31,1.91-0.26,2.82
	c-1.11,1.75-2.19,3.53-3.29,5.29c-0.3,0.47-0.61,0.94-0.95,1.38c-0.19,0.25-0.5,0.51-0.81,0.43c-0.41-0.11-0.22-0.54-0.22-0.83
	c0.04-2.32,0.11-4.63,0.15-6.95c0.01-0.73,0.21-1.24,1.03-1.34c0.77-0.09,0.79-0.67,0.75-1.26c-0.04-0.66-0.46-0.87-1.06-0.87
	c-1.32,0-2.64,0-3.96,0c-0.61,0-0.98,0.24-0.98,0.92c0.01,0.6,0.02,1.13,0.83,1.18c0.79,0.05,1.1,0.55,1.1,1.3
	c0,5.68,0,11.36,0,17.04c0,0.78-0.27,1.35-1.14,1.39c-0.84,0.04-0.91,0.58-0.91,1.25c0,0.76,0.46,0.97,1.08,0.99
	c1.36,0.03,2.72,0.02,4.08,0.02c0.64,0,0.94-0.35,0.97-0.97c0.02-0.54,0.04-1.12-0.65-1.22c-1.24-0.16-1.27-1-1.2-1.94
	c0.04-0.52,0.06-1.04,0.06-1.56C321.22,76.45,322.8,74.7,324.63,72.79z M321.72,95.36c-0.79,0-1.35-0.03-1.9,0
	c-1.72,0.09-2.84,1.22-3.1,3.07c-0.26,1.91,0.71,3.79,2.24,4.35c1.37,0.5,3.2-0.27,4.07-1.68c0.17-0.27,0.26-0.81,0.74-0.55
	c0.38,0.21,0.22,0.61,0.08,0.96c-0.31,0.82-0.61,1.63-1.01,2.41c-0.56,1.08-0.25,1.5,0.94,1.53c0.44,0.01,0.88-0.01,1.32,0.05
	c1.08,0.15,1.12-0.35,0.78-1.15c-0.34-0.81-0.66-1.62-0.73-2.51c-0.02-0.3-0.34-0.67,0.06-0.85c0.44-0.2,0.42,0.35,0.61,0.56
	c1.19,1.33,2.95,1.76,4.32,1.05c1.52-0.79,2.35-2.77,1.89-4.53c-0.49-1.91-1.58-2.74-3.53-2.74c-0.42,0-0.86,0.21-1.32-0.09
	c0.87-2.03,2.19-4.13-0.17-6.03c-1.43-1.15-3.88-1.12-5.27,0.06C319.55,91.13,320.45,93.18,321.72,95.36z"/>
<path class="st2" d="M324.63,72.79c-1.83,1.9-3.41,3.66-3.41,6.3c0,0.52-0.02,1.04-0.06,1.56c-0.07,0.94-0.04,1.78,1.2,1.94
	c0.69,0.09,0.67,0.67,0.65,1.22c-0.03,0.62-0.33,0.97-0.97,0.97c-1.36,0-2.72,0-4.08-0.02c-0.62-0.01-1.08-0.23-1.08-0.99
	c0-0.66,0.07-1.2,0.91-1.25c0.87-0.05,1.14-0.61,1.14-1.39c0-5.68,0-11.36,0-17.04c0-0.75-0.31-1.25-1.1-1.3
	c-0.81-0.05-0.82-0.58-0.83-1.18c-0.01-0.68,0.36-0.92,0.98-0.92c1.32,0,2.64,0,3.96,0c0.6,0,1.01,0.21,1.06,0.87
	c0.04,0.59,0.02,1.17-0.75,1.26c-0.82,0.1-1.02,0.61-1.03,1.34c-0.04,2.32-0.11,4.63-0.15,6.95c0,0.28-0.19,0.72,0.22,0.83
	c0.3,0.08,0.61-0.18,0.81-0.43c0.34-0.44,0.65-0.91,0.95-1.38c1.1-1.76,2.18-3.54,3.29-5.29c0.57-0.91,0.77-1.79,0.26-2.82
	c-0.41-0.83-0.03-1.4,0.93-1.43c1.36-0.05,2.72-0.03,4.08,0c0.77,0.02,1.01,0.54,0.97,1.23c-0.04,0.64-0.29,1.09-1.04,1
	c-0.97-0.12-1.58,0.39-2.05,1.16c-0.98,1.6-1.97,3.2-2.95,4.8c-0.4,0.65-0.48,1.31-0.21,2.06c1.24,3.46,2.45,6.92,3.68,10.38
	c0.29,0.81,0.76,1.41,1.73,1.36c0.77-0.04,0.91,0.44,0.93,1.08c0.02,0.71-0.29,1.03-0.99,1.04c-1.32,0.01-2.64,0.06-3.95,0.07
	c-0.53,0.01-1.07-0.02-1.15-0.75c-0.06-0.6-0.23-1.21,0.6-1.46c0.41-0.12,0.74-0.39,0.57-0.89
	C326.74,78.78,325.72,75.9,324.63,72.79z"/>
<path class="st23" d="M321.72,95.36c-1.27-2.18-2.17-4.23,0.02-6.08c1.39-1.18,3.84-1.2,5.27-0.06c2.36,1.89,1.04,3.99,0.17,6.03
	c0.46,0.3,0.9,0.09,1.32,0.09c1.95,0,3.04,0.83,3.53,2.74c0.45,1.75-0.37,3.73-1.89,4.53c-1.37,0.72-3.13,0.28-4.32-1.05
	c-0.19-0.21-0.16-0.76-0.61-0.56c-0.39,0.18-0.08,0.55-0.06,0.85c0.07,0.89,0.4,1.71,0.73,2.51c0.33,0.8,0.3,1.3-0.78,1.15
	c-0.43-0.06-0.88-0.04-1.32-0.05c-1.19-0.03-1.5-0.45-0.94-1.53c0.4-0.78,0.7-1.6,1.01-2.41c0.13-0.35,0.3-0.76-0.08-0.96
	c-0.48-0.26-0.57,0.28-0.74,0.55c-0.88,1.41-2.71,2.18-4.07,1.68c-1.53-0.56-2.5-2.44-2.24-4.35c0.26-1.85,1.38-2.97,3.1-3.07
	C320.37,95.33,320.93,95.36,321.72,95.36z"/>
<path class="st5" d="M334.43,21.99c0,8.52-0.01,17.04,0.02,25.56c0,0.72-0.14,0.86-0.86,0.86c-6.64-0.03-13.28-0.03-19.92,0
	c-0.72,0-0.86-0.14-0.86-0.86c0.03-17.04,0.03-34.08,0-51.12c0-0.72,0.14-0.86,0.86-0.86c6.64,0.03,13.28,0.03,19.92,0
	c0.72,0,0.86,0.14,0.86,0.86C334.42,4.95,334.43,13.47,334.43,21.99z M324.77,12.64c1.12,2.3,1.76,4.69,2.59,7.01
	c0.34,0.97,0.45,1.74-0.33,2.62c-0.86,0.96-0.44,1.83,0.87,1.95c1.31,0.11,2.63,0.1,3.95,0.12c0.67,0.01,1.02-0.34,1.04-1.03
	c0.02-0.66-0.08-1.27-0.89-1.27c-1.04,0-1.47-0.64-1.77-1.49c-1.03-2.89-1.93-5.83-3.1-8.67c-0.68-1.65-0.46-3.2,0.63-4.62
	c0.7-0.92,1.38-1.85,1.93-2.88c0.5-0.94,1.32-1.49,2.43-1.46c0.51,0.01,0.97,0.05,0.88-0.7c-0.07-0.64,0.21-1.52-0.8-1.58
	c-1.51-0.09-3.03-0.25-4.54-0.01c-0.71,0.11-1.04,0.55-0.79,1.3c0.18,0.53,0.55,1.09,0.29,1.61c-1.36,2.82-3.18,5.36-5.12,8.13
	c-0.58-2.6-0.06-4.86-0.14-7.12C321.88,3.7,322,3,323.02,2.74c0.69-0.17,0.64-0.82,0.59-1.4c-0.05-0.64-0.44-0.91-1.04-0.92
	c-1.32-0.02-2.64-0.03-3.95-0.04c-0.54,0-0.97,0.19-0.98,0.8c-0.01,0.56-0.3,1.29,0.58,1.47c1.13,0.23,1.31,1.04,1.28,1.98
	c-0.13,5.19-0.27,10.37-0.39,15.56c-0.02,0.81-0.03,1.52-1.13,1.6c-0.82,0.05-0.83,0.74-0.82,1.35c0.01,0.68,0.38,1,1.06,1
	c1.32,0,2.64,0.01,3.95,0.04c0.68,0.02,1.07-0.25,1.15-0.93c0.07-0.59,0.05-1.2-0.66-1.35c-1.04-0.21-1.15-0.94-1.2-1.78
	C321.31,17.11,322.75,14.8,324.77,12.64z M332.99,37.14c-0.08-0.16-0.18-0.43-0.34-0.64c-2.23-2.86-4.49-5.71-6.71-8.58
	c-0.4-0.52-0.61-0.4-0.97,0.02c-2.29,2.71-4.59,5.42-6.91,8.1c-0.58,0.67-0.54,1.26-0.02,1.92c2.2,2.79,4.39,5.58,6.56,8.39
	c0.42,0.54,0.65,0.46,1.05-0.01c2.27-2.73,4.57-5.43,6.86-8.15C332.75,37.91,332.99,37.64,332.99,37.14z"/>
<path class="st20" d="M324.77,12.64c-2.02,2.16-3.46,4.47-3.3,7.5c0.05,0.84,0.16,1.57,1.2,1.78c0.7,0.14,0.73,0.75,0.66,1.35
	c-0.08,0.68-0.47,0.95-1.15,0.93c-1.32-0.04-2.64-0.04-3.95-0.04c-0.68,0-1.05-0.32-1.06-1c-0.01-0.61,0-1.3,0.82-1.35
	c1.09-0.07,1.11-0.79,1.13-1.6c0.12-5.19,0.26-10.37,0.39-15.56c0.02-0.94-0.16-1.75-1.28-1.98c-0.88-0.18-0.59-0.91-0.58-1.47
	c0.01-0.61,0.44-0.8,0.98-0.8c1.32,0.01,2.64,0.02,3.95,0.04c0.59,0.01,0.98,0.28,1.04,0.92c0.05,0.57,0.1,1.22-0.59,1.4
	C322,3,321.88,3.7,321.91,4.56c0.07,2.25-0.44,4.52,0.14,7.12c1.95-2.78,3.76-5.31,5.12-8.13c0.25-0.52-0.12-1.09-0.29-1.61
	c-0.25-0.75,0.08-1.19,0.79-1.3c1.51-0.24,3.03-0.08,4.54,0.01c1.01,0.06,0.72,0.94,0.8,1.58c0.08,0.75-0.37,0.71-0.88,0.7
	c-1.11-0.03-1.93,0.51-2.43,1.46c-0.55,1.03-1.23,1.96-1.93,2.88c-1.09,1.43-1.31,2.97-0.63,4.62c1.17,2.84,2.07,5.78,3.1,8.67
	c0.3,0.84,0.72,1.48,1.77,1.49c0.81,0,0.91,0.61,0.89,1.27c-0.02,0.69-0.37,1.04-1.04,1.03c-1.32-0.02-2.64-0.01-3.95-0.12
	c-1.31-0.11-1.73-0.99-0.87-1.95c0.78-0.88,0.68-1.64,0.33-2.62C326.54,17.33,325.89,14.94,324.77,12.64z"/>
<path class="st12" d="M332.99,37.14c0,0.5-0.24,0.77-0.47,1.05c-2.29,2.71-4.59,5.42-6.86,8.15c-0.4,0.48-0.64,0.55-1.05,0.01
	c-2.17-2.81-4.37-5.6-6.56-8.39c-0.52-0.66-0.55-1.25,0.02-1.92c2.32-2.69,4.62-5.39,6.91-8.1c0.36-0.42,0.56-0.54,0.97-0.02
	c2.22,2.87,4.47,5.72,6.71,8.58C332.82,36.71,332.91,36.98,332.99,37.14z"/>
<path class="st0" d="M337.01,55.91c6.92,0,13.84,0.01,20.76-0.02c0.72,0,0.86,0.14,0.86,0.86c-0.03,17.04-0.03,34.08,0,51.12
	c0,0.72-0.14,0.86-0.86,0.86c-6.92-0.03-13.84-0.02-20.76-0.02C337.01,91.11,337.01,73.51,337.01,55.91z M353.77,73.31
	c0-2.82-0.02-5.14,0.01-7.46c0.01-0.59-0.11-1.1-0.43-1.58c-1.33-2.03-3.14-3.21-5.64-3.13c-4.3,0.13-6.64,2-6.47,6.06
	c0.15,3.47,0.01,6.95-0.02,10.43c-0.01,1.29-0.24,2.46-1.59,3.1c-0.59,0.28-0.66,0.82-0.19,1.28c0.44,0.43,0.79,1.23,1.66,0.66
	c0.27-0.18,0.43,0.03,0.56,0.25c1.32,2.25,3.46,2.88,5.87,3.02c1.01,0.06,2.08-0.55,2.9-0.33c0.87,0.23,1.36,1.47,2.27,1.99
	c0.14,0.08,0.26,0.18,0.4,0.26c0.41,0.24,0.86,0.57,1.26,0.04c0.37-0.48,0.7-1.02,0.32-1.64c-0.19-0.3-0.42-0.61-0.71-0.8
	c-1.07-0.72-1.51-1.51-0.68-2.73c0.25-0.36,0.24-0.92,0.3-1.39C353.97,78.49,353.66,75.65,353.77,73.31z M349.93,106.28
	c-0.04-1.07-0.61-1.89-0.85-2.8c-0.12-0.47-0.48-1.12,0.02-1.41c0.42-0.25,0.64,0.45,0.95,0.72c1.26,1.1,3.04,1.31,4.31,0.45
	c1.47-0.98,2.07-2.92,1.5-4.67c-0.63-1.95-1.64-2.59-3.5-2.58c-0.35,0-0.82,0.19-1-0.11c-0.25-0.41,0.1-0.85,0.36-1.18
	c0.83-1.03,0.73-2.2,0.31-3.26c-0.89-2.23-3.6-3.03-5.95-1.88c-2.21,1.08-2.65,2.92-1.28,5.37c0.4,0.71,0.31,1.12-0.63,1.08
	c-0.47-0.02-0.95-0.14-1.42,0.03c-1.43,0.5-2.57,2.12-2.58,3.71c-0.01,1.68,0.97,3.2,2.44,3.79c1.45,0.57,2.75,0.16,4.03-1.25
	c0.17-0.19,0.23-0.62,0.58-0.5c0.42,0.15,0.17,0.54,0.14,0.82c-0.13,1-0.66,1.87-0.95,2.82c-0.17,0.56-0.09,0.9,0.64,0.86
	C347.99,106.24,348.94,106.28,349.93,106.28z"/>
<path class="st24" d="M353.77,73.31c-0.11,2.33,0.2,5.18-0.17,8c-0.06,0.47-0.05,1.03-0.3,1.39c-0.83,1.22-0.39,2.01,0.68,2.73
	c0.29,0.19,0.52,0.5,0.71,0.8c0.38,0.62,0.05,1.16-0.32,1.64c-0.41,0.53-0.85,0.2-1.26-0.04c-0.14-0.08-0.26-0.18-0.4-0.26
	c-0.91-0.53-1.4-1.76-2.27-1.99c-0.82-0.22-1.89,0.39-2.9,0.33c-2.41-0.14-4.56-0.77-5.87-3.02c-0.13-0.22-0.28-0.43-0.56-0.25
	c-0.87,0.57-1.22-0.23-1.66-0.66c-0.47-0.46-0.4-1,0.19-1.28c1.35-0.64,1.58-1.8,1.59-3.1c0.02-3.48,0.17-6.96,0.02-10.43
	c-0.18-4.05,2.16-5.92,6.47-6.06c2.51-0.08,4.31,1.1,5.64,3.13c0.31,0.48,0.43,1,0.43,1.58C353.76,68.17,353.77,70.49,353.77,73.31z
	 M351.36,73.32c0-2.04,0-4.07,0-6.11c0-2.46-1.11-3.65-3.55-3.83c-2.14-0.16-4.12,1.12-4.16,2.88c-0.08,3.79-0.03,7.59-0.04,11.38
	c0,0.63,0.26,1,0.93,0.94c2.31-0.2,4.18,0.74,5.83,2.26c0.2,0.18,0.36,0.48,0.69,0.37c0.42-0.14,0.29-0.52,0.29-0.82
	C351.37,78.03,351.36,75.68,351.36,73.32z M346.8,83.54c0.67-0.08,1.52-0.01,1.7-0.47c0.22-0.54-0.52-0.99-0.94-1.38
	c-0.26-0.24-0.58-0.45-0.91-0.55c-0.92-0.27-2.29-0.31-2.53,0.37c-0.27,0.77,0.85,1.46,1.73,1.81
	C346.18,83.45,346.54,83.48,346.8,83.54z"/>
<path class="st13" d="M349.93,106.28c-0.99,0-1.94-0.04-2.89,0.01c-0.73,0.04-0.81-0.3-0.64-0.86c0.29-0.95,0.83-1.82,0.95-2.82
	c0.04-0.28,0.29-0.67-0.14-0.82c-0.35-0.12-0.41,0.31-0.58,0.5c-1.28,1.41-2.58,1.82-4.03,1.25c-1.47-0.59-2.46-2.11-2.44-3.79
	c0.01-1.59,1.15-3.21,2.58-3.71c0.48-0.17,0.95-0.05,1.42-0.03c0.95,0.04,1.03-0.37,0.63-1.08c-1.37-2.44-0.93-4.29,1.28-5.37
	c2.35-1.15,5.06-0.34,5.95,1.88c0.42,1.06,0.53,2.23-0.31,3.26c-0.26,0.33-0.61,0.76-0.36,1.18c0.18,0.3,0.65,0.11,1,0.11
	c1.86-0.01,2.87,0.63,3.5,2.58c0.57,1.75-0.03,3.68-1.5,4.67c-1.27,0.85-3.05,0.65-4.31-0.45c-0.31-0.27-0.53-0.97-0.95-0.72
	c-0.5,0.3-0.14,0.95-0.02,1.41C349.31,104.39,349.89,105.2,349.93,106.28z"/>
<path class="st0" d="M351.36,73.32c0,2.36,0,4.71,0,7.07c0,0.3,0.13,0.68-0.29,0.82c-0.33,0.11-0.49-0.19-0.69-0.37
	c-1.65-1.52-3.52-2.45-5.83-2.26c-0.67,0.06-0.93-0.32-0.93-0.94c0.01-3.79-0.04-7.59,0.04-11.38c0.04-1.76,2.01-3.04,4.16-2.88
	c2.44,0.18,3.55,1.38,3.55,3.83C351.36,69.24,351.36,71.28,351.36,73.32z"/>
<path class="st0" d="M346.8,83.54c-0.27-0.06-0.63-0.09-0.95-0.22c-0.88-0.35-2-1.04-1.73-1.81c0.24-0.68,1.61-0.64,2.53-0.37
	c0.33,0.1,0.66,0.31,0.91,0.55c0.43,0.4,1.16,0.84,0.94,1.38C348.32,83.53,347.48,83.46,346.8,83.54z"/>
<path class="st5" d="M359.44,23.93c0,8.52-0.01,17.04,0.02,25.56c0,0.72-0.14,0.86-0.86,0.86c-6.64-0.03-13.28-0.03-19.92,0
	c-0.72,0-0.86-0.14-0.86-0.86c0.03-17.04,0.03-34.08,0-51.12c0-0.72,0.14-0.86,0.86-0.86c6.64,0.03,13.28,0.03,19.92,0
	c0.72,0,0.86,0.14,0.86,0.86C359.43,6.89,359.44,15.41,359.44,23.93z M356.32,14.76c0.04,0,0.09,0,0.13,0c0-1.12-0.01-2.23,0-3.35
	c0.01-1.16,0.14-2.32,0.05-3.47c-0.29-3.72-0.51-4.18-3.78-5.46c-3.8-1.48-9.32,0.28-8.83,6.29c0.26,3.12,0.03,6.22-0.11,9.32
	c-0.06,1.34-0.25,2.63-1.53,3.45c-0.43,0.28-0.56,0.77-0.4,1.28c0.14,0.44,0.5,0.59,0.93,0.62c0.82,0.06,1.4,0.51,1.93,1.08
	c0.05,0.06,0.11,0.12,0.16,0.18c1.34,1.46,2.93,2.25,4.98,2.09c2.08-0.17,4.1-0.01,5.53,1.83c0.36,0.47,0.83,0.9,1.4,0.44
	c0.58-0.46,0.75-1.16,0.31-1.82c-0.28-0.42-0.71-0.75-1.07-1.12c-0.6-0.63-0.87-1.29-0.32-2.14c0.51-0.79,0.61-1.72,0.61-2.65
	C356.33,19.15,356.32,16.96,356.32,14.76z M349.37,29.18c-0.29-0.04-0.57,0.14-0.76,0.4c-1.98,2.77-4.34,5.22-6.5,7.84
	c-0.63,0.76-0.61,1.5,0.02,2.27c2.09,2.57,4.18,5.15,6.24,7.74c0.57,0.72,1.05,0.74,1.63,0.05c2.23-2.61,4.47-5.22,6.7-7.82
	c0.49-0.57,0.52-1.11,0.04-1.71c-2.16-2.72-4.3-5.46-6.45-8.18C350.08,29.48,349.86,29.18,349.37,29.18z"/>
<path class="st20" d="M356.32,14.76c0,2.2,0,4.39,0,6.59c0,0.93-0.1,1.86-0.61,2.65c-0.55,0.85-0.28,1.5,0.32,2.14
	c0.36,0.37,0.78,0.7,1.07,1.12c0.45,0.66,0.27,1.36-0.31,1.82c-0.57,0.46-1.04,0.03-1.4-0.44c-1.44-1.84-3.46-2-5.53-1.83
	c-2.05,0.17-3.64-0.63-4.98-2.09c-0.05-0.06-0.11-0.12-0.16-0.18c-0.53-0.57-1.11-1.03-1.93-1.08c-0.42-0.03-0.79-0.18-0.93-0.62
	c-0.16-0.51-0.03-1,0.4-1.28c1.28-0.82,1.47-2.12,1.53-3.45c0.14-3.11,0.36-6.2,0.11-9.32c-0.49-6.01,5.03-7.77,8.83-6.29
	c3.28,1.28,3.49,1.74,3.78,5.46c0.09,1.15-0.04,2.31-0.05,3.47c-0.01,1.12,0,2.23,0,3.35C356.41,14.76,356.37,14.76,356.32,14.76z
	 M353.68,22.09c0.26-0.48,0.22-1.01,0.23-1.52c0.07-4.03,0.13-8.06,0.2-12.1c0.02-1.36-0.08-2.69-1.45-3.43
	c-1.57-0.85-3.18-0.95-4.8-0.06c-1,0.55-1.49,1.37-1.51,2.52c-0.03,3.47-0.09,6.95-0.16,10.42c-0.02,1.03,0.38,1.57,1.47,1.56
	c1.84-0.01,3.41,0.69,4.78,1.9C352.8,21.71,353.14,22.05,353.68,22.09z M351.4,24.33c-1.08-1.54-2.19-2.63-4.02-2.48
	c-0.33,0.03-0.75,0.09-0.89,0.5c-0.14,0.41,0.14,0.66,0.4,0.93C348.1,24.56,349.61,24.57,351.4,24.33z"/>
<path class="st12" d="M349.37,29.18c0.49,0,0.7,0.3,0.92,0.58c2.15,2.73,4.29,5.46,6.45,8.18c0.48,0.61,0.45,1.15-0.04,1.71
	c-2.24,2.61-4.48,5.21-6.7,7.82c-0.58,0.68-1.07,0.67-1.63-0.05c-2.06-2.6-4.15-5.17-6.24-7.74c-0.63-0.77-0.65-1.51-0.02-2.27
	c2.16-2.62,4.53-5.06,6.5-7.84C348.81,29.32,349.08,29.14,349.37,29.18z"/>
<path class="st5" d="M353.68,22.09c-0.54-0.05-0.88-0.39-1.24-0.7c-1.36-1.21-2.93-1.92-4.78-1.9c-1.09,0.01-1.49-0.52-1.47-1.56
	c0.07-3.47,0.13-6.95,0.16-10.42c0.01-1.16,0.51-1.97,1.51-2.52c1.61-0.89,3.23-0.79,4.8,0.06c1.37,0.74,1.47,2.07,1.45,3.43
	c-0.07,4.03-0.13,8.06-0.2,12.1C353.91,21.09,353.94,21.61,353.68,22.09z"/>
<path class="st5" d="M351.4,24.33c-1.79,0.24-3.3,0.23-4.51-1.05c-0.25-0.27-0.53-0.52-0.4-0.93c0.14-0.41,0.56-0.47,0.89-0.5
	C349.21,21.71,350.32,22.79,351.4,24.33z"/>
<path class="st14" d="M150.78,65.43c0.84-0.28,1.15-1.11,1.91-1.46c3.53-1.62,6.99-0.7,9.28,2.45c2.92,4.03,1.35,11.77-4.41,13.05
	c-3.03,0.67-6.04-0.73-7.51-3.78c-2.69-5.58-2.59-11.23-0.23-16.92c0.87-2.1,2.23-3.7,4.39-4.44c3.88-1.33,7.64,0.35,9,4.38
	c0.23,0.69-0.12,1.02-0.74,1.24c-0.63,0.23-1.15,0.32-1.48-0.44c-0.44-1.02-0.89-2.05-1.99-2.56c-2.71-1.27-3.96-1.03-6.38,1.65
	c-1.53,1.7-1.59,4.09-2,6.27C150.59,65.04,150.72,65.24,150.78,65.43z M151.24,71.35c-0.01,1.4,0.35,2.61,1.11,3.71
	c2.11,3.07,5.94,2.92,7.81-0.32c1.46-2.53,1.17-5.71-0.73-7.92c-1.58-1.85-4.44-1.99-6.17-0.29
	C151.9,67.85,151.25,69.47,151.24,71.35z"/>
<path class="st7" d="M29.6,47.71c-0.03,0.98-0.49,1.53-0.98,2.07c-1.61,1.78-3.14,3.6-4.48,5.6c-0.75,1.13-0.99,1.13-1.83,0.12
	c-1.79-2.15-3.56-4.3-5.37-6.44c-0.65-0.77-0.67-1.45-0.03-2.23c1.83-2.22,3.64-4.45,5.41-6.71c0.45-0.58,0.76-0.56,1.19-0.06
	c0.71,0.81,1.45,1.59,2.13,2.43c0.95,1.18,1.86,2.39,2.97,3.44C29.18,46.46,29.58,47.1,29.6,47.71z"/>
<path class="st22" d="M26.6,22.37c0-2.32-0.01-4.63,0.01-6.95c0.01-0.77-0.12-1.41-0.92-1.77c-0.65-0.29-0.54-0.9-0.45-1.46
	c0.09-0.6,0.5-0.79,1.04-0.76c1.07,0.07,2.15-0.24,3.22,0.04c0.32,0.08,0.84,0.02,0.78,0.54c-0.06,0.5,0.45,1.11-0.29,1.49
	c-0.87,0.45-1,1.25-1,2.14c0.02,4.63,0.05,9.27,0.03,13.9c-0.01,3.66-2.28,6.22-5.6,6.39c-3.76,0.19-6.44-2.12-6.8-5.89
	c-0.05-0.51-0.03-1.04-0.04-1.56c-0.02-0.87,0.47-1.22,1.27-1.21c0.78,0.01,1.16,0.41,1.13,1.21c-0.02,0.68-0.01,1.35,0.17,2.02
	c0.54,2.05,1.95,3.12,4.01,2.99c2.02-0.13,3.21-1.17,3.33-3.34c0.14-2.59,0.03-5.19,0.03-7.78C26.55,22.37,26.58,22.37,26.6,22.37z"
	/>
</svg>
