<?xml version="1.0" encoding="utf-8"?>
<!-- Generator: Adobe Illustrator 23.0.0, SVG Export Plug-In . SVG Version: 6.00 Build 0)  -->
<svg version="1.1" id="Layer_1" xmlns="http://www.w3.org/2000/svg" xmlns:xlink="http://www.w3.org/1999/xlink" x="0px" y="0px"
	 viewBox="0 0 46.2 69.1" style="enable-background:new 0 0 46.2 69.1;" xml:space="preserve">
<style type="text/css">
	.st0{fill:#FFFFFF;stroke:#828282;stroke-miterlimit:10;}
	.st1{fill:#D12607;}
	.st2{fill:#CC352B;}
</style>
<path class="st0" d="M42.2,67.7H4.5c-1.5,0-2.8-1.3-2.8-2.8V4.4c0-1.5,1.3-2.8,2.8-2.8h37.7c1.5,0,2.8,1.3,2.8,2.8v60.5
	C45,66.4,43.7,67.7,42.2,67.7z"/>
<path class="st1" d="M30.2,23.3c0,2.2,0,4.4,0,6.6c0,0.9-0.1,1.9-0.6,2.7c-0.5,0.8-0.3,1.5,0.3,2.1c0.4,0.4,0.8,0.7,1.1,1.1
	c0.5,0.7,0.3,1.4-0.3,1.8c-0.6,0.5-1,0-1.4-0.4c-1.4-1.8-3.5-2-5.5-1.8c-2,0.2-3.6-0.6-5-2.1c0-0.1-0.1-0.1-0.2-0.2
	c-0.5-0.6-1.1-1-1.9-1.1c-0.4,0-0.8-0.2-0.9-0.6c-0.2-0.5,0-1,0.4-1.3c1.3-0.8,1.5-2.1,1.5-3.5c0.1-3.1,0.4-6.2,0.1-9.3
	c-0.5-6,5-7.8,8.8-6.3c3.3,1.3,3.5,1.7,3.8,5.5c0.1,1.1,0,2.3,0,3.5c0,1.1,0,2.2,0,3.4C30.3,23.3,30.2,23.3,30.2,23.3z M27.6,30.6
	c0.3-0.5,0.2-1,0.2-1.5c0.1-4,0.1-8.1,0.2-12.1c0-1.4-0.1-2.7-1.5-3.4c-1.6-0.9-3.2-0.9-4.8-0.1c-1,0.6-1.5,1.4-1.5,2.5
	c0,3.5-0.1,7-0.2,10.4c0,1,0.4,1.6,1.5,1.6c1.8,0,3.4,0.7,4.8,1.9C26.7,30.2,27,30.6,27.6,30.6z M25.3,32.9c-1.1-1.5-2.2-2.6-4-2.5
	c-0.3,0-0.8,0.1-0.9,0.5s0.1,0.7,0.4,0.9C22,33.1,23.5,33.1,25.3,32.9z"/>
<path class="st2" d="M15.3,44.1c0-1.5,0.7-3.1,2.5-3.8c1.8-0.8,3.3-0.2,4.6,1.2c0.7,0.7,1.1,0.9,1.9,0c1.2-1.3,2.8-1.7,4.5-1.1
	c2,0.6,2.9,2.6,2.3,5.2c-0.5,2.4-1.8,4.3-3.2,6.2c-1,1.4-2.3,2.6-3.4,4c-1,1.2-1.4,1.2-2.5,0.1c-2-2-3.6-4.4-5.1-6.7
	C15.9,47.8,15.2,46.2,15.3,44.1z"/>
</svg>
