<?xml version="1.0" encoding="utf-8"?>
<!-- Generator: Adobe Illustrator 23.0.0, SVG Export Plug-In . SVG Version: 6.00 Build 0)  -->
<svg version="1.1" id="Layer_1" xmlns="http://www.w3.org/2000/svg" xmlns:xlink="http://www.w3.org/1999/xlink" x="0px" y="0px"
	 viewBox="0 0 46.2 69.1" style="enable-background:new 0 0 46.2 69.1;" xml:space="preserve">
<style type="text/css">
	.st0{fill:#FFFFFF;stroke:#828282;stroke-miterlimit:10;}
	.st1{fill:#050505;}
	.st2{fill:#090909;}
</style>
<path class="st0" d="M42.2,67.7H4.5c-1.5,0-2.8-1.3-2.8-2.8V4.4c0-1.5,1.3-2.8,2.8-2.8h37.7c1.5,0,2.8,1.3,2.8,2.8v60.5
	C45,66.4,43.7,67.7,42.2,67.7z"/>
<path class="st1" d="M24.5,52c-0.2,0.9,0.1,1.6,0.5,2.4c0.7,1.5,0.6,1.6-0.9,1.8c-0.4,0.1-0.9,0.2-1.3,0c-0.7-0.2-1.3-0.4-0.6-1.3
	c0.3-0.4,0.4-1,0.6-1.4c0.2-0.4,0.1-0.7-0.2-1c-0.3-0.2-0.6-0.1-0.9,0.2c-1.8,1.3-3.3,1.3-4.7-0.1c-1.3-1.3-1.4-3.6-0.3-5.1
	c0.8-1,1.8-1.4,3-1.3c0.7,0.1,1-0.1,0.7-0.9c-0.3-0.8-0.5-1.6-0.6-2.4c-0.1-1.4,0.5-2.4,1.7-3c1.5-0.8,3.1-0.7,4.6,0.2
	c1.2,0.7,1.6,1.9,1.4,3.2c-0.1,0.5-0.2,1.1-0.5,1.6c-0.5,1.1,0,1.3,0.9,1.3c1.5-0.1,2.4,0.7,3,1.9c0.8,1.5,0.4,3.7-0.9,4.8
	c-1,0.9-3,0.9-4.3,0C25.4,52.7,25,52.4,24.5,52z"/>
<path class="st2" d="M23.2,9.1c1.8,0,3.6,0,5.4,0c0.8,0,1.5,0.2,2.1,0.7c0.9,0.7,0.9,1.3,0.2,2.3c-1.6,2.1-3.6,3.8-5.1,5.9
	c-0.6,0.8-0.8,1.2,0.4,1.5c2.6,0.7,4.6,2.3,5.3,4.9c1.2,3.9,0,8.2-3.8,10.7c-3.1,2-7.8,1.3-10.4-1.5c-1.2-1.3-1.9-2.9-2.1-4.7
	c-0.1-0.6,0.1-1.1,0.8-1.2c0.7-0.1,1.4-0.1,1.7,0.8c0.1,0.2,0.1,0.5,0.2,0.7c0.5,2.6,2.2,4.1,4.8,4.5c2.3,0.3,4.3-0.7,5.6-2.9
	c0.9-1.5,1.2-3.2,0.9-5c-0.5-3.2-3.9-4.9-6.9-3.4c-0.5,0.3-1,0.6-1.7,0.3c-1.1-0.6-1.2-1.3-0.4-2.3c2.1-2.4,4.2-4.8,6.3-7.2
	c0.3-0.3,0.9-0.7,0.6-1.2c-0.2-0.4-0.8-0.2-1.2-0.2c-1.8,0-3.6,0-5.4,0c-1.8,0-1.8,0-1.9,1.8c0,1.3-0.4,1.7-1.5,1.5
	c-0.6-0.1-1-0.4-1-1c0-1.3,0-2.6,0-3.8c0-0.9,0.6-1.1,1.4-1.1C19.4,9.1,21.3,9.1,23.2,9.1C23.2,9.1,23.2,9.1,23.2,9.1z"/>
</svg>
