<?xml version="1.0" encoding="utf-8"?>
<!-- Generator: Adobe Illustrator 23.0.0, SVG Export Plug-In . SVG Version: 6.00 Build 0)  -->
<svg version="1.1" id="Layer_1" xmlns="http://www.w3.org/2000/svg" xmlns:xlink="http://www.w3.org/1999/xlink" x="0px" y="0px"
	 viewBox="0 0 46.2 69.1" style="enable-background:new 0 0 46.2 69.1;" xml:space="preserve">
<style type="text/css">
	.st0{fill:#FFFFFF;stroke:#828282;stroke-miterlimit:10;}
	.st1{fill:#050505;}
	.st2{fill:#222218;}
</style>
<path class="st0" d="M42.2,67.7H4.5c-1.5,0-2.8-1.3-2.8-2.8V4.4c0-1.5,1.3-2.8,2.8-2.8h37.7c1.5,0,2.8,1.3,2.8,2.8v60.5
	C45,66.4,43.7,67.7,42.2,67.7z"/>
<path class="st1" d="M24.5,52c-0.2,0.9,0.1,1.6,0.5,2.4c0.7,1.5,0.6,1.6-0.9,1.8c-0.4,0.1-0.9,0.2-1.3,0c-0.7-0.2-1.3-0.4-0.6-1.3
	c0.3-0.4,0.4-1,0.6-1.4c0.2-0.4,0.1-0.7-0.2-1c-0.3-0.2-0.6-0.1-0.9,0.2c-1.8,1.3-3.3,1.3-4.7-0.1c-1.3-1.3-1.4-3.6-0.3-5.1
	c0.8-1,1.8-1.4,3-1.3c0.7,0.1,1-0.1,0.7-0.9c-0.3-0.8-0.5-1.6-0.6-2.4c-0.1-1.4,0.5-2.4,1.7-3c1.5-0.8,3.1-0.7,4.6,0.2
	c1.2,0.7,1.6,1.9,1.4,3.2c-0.1,0.5-0.2,1.1-0.5,1.6c-0.5,1.1,0,1.3,0.9,1.3c1.5-0.1,2.4,0.7,3,1.9c0.8,1.5,0.4,3.7-0.9,4.8
	c-1,0.9-3,0.9-4.3,0C25.4,52.7,25,52.4,24.5,52z"/>
<path class="st2" d="M21.1,22c0-2.4,0-4.9,0-7.3C21.1,10,23.2,8.6,27.7,9c3,0.3,4.4,2.5,4.4,5.8c-0.1,4.9-0.1,9.9-0.1,14.8
	c0,2.1-0.5,3.9-2.5,5c-2.1,1.2-4.2,1.2-6.2,0c-1.7-1-2.2-2.6-2.2-4.5c0-2.7,0-5.4,0-8.1C21,22,21,22,21.1,22z M29.5,21.1
	c-0.1-1.7,0.3-4.5,0-7.4c-0.1-1.2-0.7-2-1.9-2.3c-2.6-0.8-4.3,0.4-4.3,3.3c-0.1,5.3-0.1,10.5-0.1,15.8c0,1.3,0.7,2.1,1.9,2.5
	c2.3,0.8,4.3-0.6,4.4-3C29.5,27.4,29.5,24.8,29.5,21.1z"/>
<path class="st2" d="M18.8,21.8c0,4,0,8,0,12c0,0.9-0.2,1.4-1.3,1.4c-1.1,0-1.1-0.7-1.1-1.5c0-6.3,0.1-12.6,0-18.9
	c0-1.6,0.1-3.3,0.1-4.9c0-1.1,0.7-1.2,1.5-1.2c1.1-0.1,0.8,0.7,0.8,1.2C18.9,13.8,18.9,17.8,18.8,21.8
	C18.8,21.8,18.8,21.8,18.8,21.8z"/>
</svg>
