<?xml version="1.0" encoding="utf-8"?>
<!-- Generator: Adobe Illustrator 23.0.0, SVG Export Plug-In . SVG Version: 6.00 Build 0)  -->
<svg version="1.1" id="Layer_1" xmlns="http://www.w3.org/2000/svg" xmlns:xlink="http://www.w3.org/1999/xlink" x="0px" y="0px"
	 viewBox="0 0 46.2 69.1" style="enable-background:new 0 0 46.2 69.1;" xml:space="preserve">
<style type="text/css">
	.st0{fill:#FFFFFF;stroke:#828282;stroke-miterlimit:10;}
	.st1{fill:#D02202;}
	.st2{fill:#D12608;}
</style>
<path class="st0" d="M42.2,67.7H4.5c-1.5,0-2.8-1.3-2.8-2.8V4.4c0-1.5,1.3-2.8,2.8-2.8h37.7c1.5,0,2.8,1.3,2.8,2.8v60.5
	C45,66.4,43.7,67.7,42.2,67.7z"/>
<path class="st1" d="M16.5,47.4c0-0.5,0.2-0.8,0.5-1.2c1.7-2,3.4-4.1,5-6.1c0.8-1,1.3-1,2.1-0.1c1.9,2.2,3.5,4.5,5.5,6.6
	c0.5,0.5,0.5,1.1,0,1.6c-2,2-3.7,4.3-5.4,6.5c-0.8,1-1.6,1-2.3,0c-1.4-2.1-3.1-3.9-4.7-5.9C16.9,48.5,16.5,48,16.5,47.4z"/>
<path class="st2" d="M23.1,36.2c-1.9,0-3.8,0-5.6,0c-1.4,0-1.7-0.3-1.8-1.7c-0.1-3.4,1.3-6.1,3.7-8.4c1.7-1.6,3.6-2.8,5.6-3.8
	c2.7-1.3,3.9-4.1,3.2-6.8c-0.5-1.6-1.6-2.6-3.2-3c-2-0.5-3.8,0.1-5.2,1.6c-0.8,0.8-1.1,1.8-1.4,2.9c-0.2,0.8-0.6,1.2-1.5,1.1
	c-1-0.2-0.9-0.8-0.8-1.5c0.5-3.8,3.6-6.3,7.7-6.5c2.6-0.1,6.4,2.1,6.9,4.6c1,4.1-0.8,8.3-4.8,10c-3.1,1.3-5.5,3.3-7.1,6.3
	c-0.2,0.5-0.4,1-0.5,1.5c-0.2,0.8,0.1,1.3,1,1.3c2.6,0,5.2,0,7.8,0.1c0.8,0,1.3-0.4,1.3-1.2c0-0.5,0.1-1,0-1.4
	c-0.1-1,0.3-1.3,1.2-1.3c0.8,0,1.1,0.1,1.1,1c0,1.2,0.1,2.5,0.1,3.7c0,1.3-0.4,1.7-1.7,1.7C27.1,36.3,25.1,36.3,23.1,36.2
	C23.1,36.3,23.1,36.3,23.1,36.2z"/>
</svg>
