<?xml version="1.0" encoding="utf-8"?>
<!-- Generator: Adobe Illustrator 23.0.0, SVG Export Plug-In . SVG Version: 6.00 Build 0)  -->
<svg version="1.1" id="Layer_1" xmlns="http://www.w3.org/2000/svg" xmlns:xlink="http://www.w3.org/1999/xlink" x="0px" y="0px"
	 viewBox="0 0 46.2 69.1" style="enable-background:new 0 0 46.2 69.1;" xml:space="preserve">
<style type="text/css">
	.st0{fill:#FFFFFF;stroke:#828282;stroke-miterlimit:10;}
	.st1{fill:#CC352B;}
	.st2{fill:#CD3930;}
</style>
<path class="st0" d="M42.2,67.7H4.5c-1.5,0-2.8-1.3-2.8-2.8V4.4c0-1.5,1.3-2.8,2.8-2.8h37.7c1.5,0,2.8,1.3,2.8,2.8v60.5
	C45,66.4,43.7,67.7,42.2,67.7z"/>
<path class="st1" d="M31.6,44.4c-0.1,2.6-0.9,4.2-1.8,5.7c-1.4,2.3-3.2,4.2-5,6.2c-1.3,1.4-1.3,1.4-2.6,0.1
	c-2.4-2.5-4.4-5.2-5.9-8.3c-0.6-1.2-0.9-2.5-0.7-3.8c0.3-1.6,1-2.9,2.6-3.5c1.6-0.5,3,0,4.2,1.1c1.2,1.1,1.2,1.1,2.3,0
	c1.2-1.2,3.2-1.5,4.7-0.8C30.8,41.7,31.6,43.1,31.6,44.4z"/>
<path class="st2" d="M25.8,36.2c-2.8,0-5.7,0-8.5,0c-1.4,0-1.7-0.3-1.7-1.7c0-3.6,1.6-6.3,4.2-8.6c1.6-1.4,3.4-2.4,5.2-3.3
	c1.9-0.9,3-2.4,3.4-4.5c0.8-4.5-3.2-6.1-6.2-5.2c-1.9,0.6-3.1,1.9-3.6,3.8c-0.1,0.3-0.1,0.5-0.2,0.8c-0.3,0.8-0.9,0.8-1.6,0.7
	c-0.7-0.1-0.8-0.6-0.8-1.2c0.4-3.2,3-6.8,8-6.7c2.3,0.1,4.1,1,5.6,2.5c1.4,1.5,1.5,3.6,1.3,5.6c-0.3,2.3-1.4,4.1-3.3,5.5
	c-1,0.8-2.3,1.3-3.4,1.9c-2.6,1.4-4.8,3.2-5.8,6.2c-0.5,1.5-0.3,1.9,1.4,2c2.3,0,4.6,0.1,6.9,0.2c1.1,0,1.5-0.5,1.5-1.5
	c0-0.5,0-1,0.1-1.5c0.1-0.4-0.3-1,0.4-1c0.7,0,1.7,0,1.7,0.9c0.1,1.6,0.1,3.2,0,4.8c0,0.7-0.6,0.7-1.2,0.7c-1.2,0-2.4,0-3.6,0
	C25.8,36.4,25.8,36.3,25.8,36.2z"/>
</svg>
