<?xml version="1.0" encoding="utf-8"?>
<!-- Generator: Adobe Illustrator 23.0.0, SVG Export Plug-In . SVG Version: 6.00 Build 0)  -->
<svg version="1.1" id="Layer_1" xmlns="http://www.w3.org/2000/svg" xmlns:xlink="http://www.w3.org/1999/xlink" x="0px" y="0px"
	 viewBox="0 0 46.2 69.1" style="enable-background:new 0 0 46.2 69.1;" xml:space="preserve">
<style type="text/css">
	.st0{fill:#FFFFFF;stroke:#828282;stroke-miterlimit:10;}
	.st1{fill:#050505;}
	.st2{fill:#070707;}
</style>
<path class="st0" d="M42.2,67.7H4.5c-1.5,0-2.8-1.3-2.8-2.8V4.4c0-1.5,1.3-2.8,2.8-2.8h37.7c1.5,0,2.8,1.3,2.8,2.8v60.5
	C45,66.4,43.7,67.7,42.2,67.7z"/>
<path class="st1" d="M24.5,52c-0.2,0.9,0.1,1.6,0.5,2.4c0.7,1.5,0.6,1.6-0.9,1.8c-0.4,0.1-0.9,0.2-1.3,0c-0.7-0.2-1.3-0.4-0.6-1.3
	c0.3-0.4,0.4-1,0.6-1.4c0.2-0.4,0.1-0.7-0.2-1c-0.3-0.2-0.6-0.1-0.9,0.2c-1.8,1.3-3.3,1.3-4.7-0.1c-1.3-1.3-1.4-3.6-0.3-5.1
	c0.8-1,1.8-1.4,3-1.3c0.7,0.1,1-0.1,0.7-0.9c-0.3-0.8-0.5-1.6-0.6-2.4c-0.1-1.4,0.5-2.4,1.7-3c1.5-0.8,3.1-0.7,4.6,0.2
	c1.2,0.7,1.6,1.9,1.4,3.2c-0.1,0.5-0.2,1.1-0.5,1.6c-0.5,1.1,0,1.3,0.9,1.3c1.5-0.1,2.4,0.7,3,1.9c0.8,1.5,0.4,3.7-0.9,4.8
	c-1,0.9-3,0.9-4.3,0C25.4,52.7,25,52.4,24.5,52z"/>
<path class="st2" d="M24.2,10.5c1.4,0,2.8,0.1,4.2,0c1.2-0.1,1.1,0.6,1.2,1.4c0.1,1-0.6,0.7-1.1,0.7c-2.2,0.1-4.3,0.1-6.5,0.1
	c-0.7,0-1,0.1-1.1,0.9c-0.2,2-0.4,4.1-0.6,6.1c-0.1,1.1,0.3,1.1,1.1,0.9c1.3-0.4,2.7-0.7,4.1-0.6c4.1,0.5,6.7,3.4,6.7,7.5
	c0,1.9-0.3,3.7-1.1,5.5c-1.2,2.8-4.1,4.3-7.5,4c-2.9-0.3-5-2.2-5.7-5.2c-0.2-0.8,0.1-1.1,0.9-1.3c0.7-0.3,1,0,1.2,0.6
	c1,3.3,3.3,3.9,5.1,3.7c2.5-0.3,4.3-2.1,4.7-5c0.1-0.8,0.1-1.5,0.1-2.3c-0.2-2.1-0.9-3.8-3-4.7c-2.1-0.9-4.1-0.5-5.9,0.8
	c-0.4,0.3-0.8,0.7-1.2,1c-0.6,0.4-1.3,0.4-1.9,0c-0.6-0.4-0.4-0.9-0.4-1.4c0.4-3.9,0.9-7.7,1.2-11.6c0.1-0.8,0.3-1,1.1-1
	C21.4,10.5,22.8,10.4,24.2,10.5C24.2,10.5,24.2,10.5,24.2,10.5z"/>
</svg>
