<?xml version="1.0" encoding="utf-8"?>
<!-- Generator: Adobe Illustrator 23.0.0, SVG Export Plug-In . SVG Version: 6.00 Build 0)  -->
<svg version="1.1" id="Layer_1" xmlns="http://www.w3.org/2000/svg" xmlns:xlink="http://www.w3.org/1999/xlink" x="0px" y="0px"
	 viewBox="0 0 46.2 69.1" style="enable-background:new 0 0 46.2 69.1;" xml:space="preserve">
<style type="text/css">
	.st0{fill:#FFFFFF;stroke:#828282;stroke-miterlimit:10;}
	.st1{fill:#CC352B;}
	.st2{fill:#D12608;}
</style>
<path class="st0" d="M42.2,67.7H4.5c-1.5,0-2.8-1.3-2.8-2.8V4.4c0-1.5,1.3-2.8,2.8-2.8h37.7c1.5,0,2.8,1.3,2.8,2.8v60.5
	C45,66.4,43.7,67.7,42.2,67.7z"/>
<path class="st1" d="M15.3,44.1c0-1.5,0.7-3.1,2.5-3.8c1.8-0.8,3.3-0.2,4.6,1.2c0.7,0.7,1.1,0.9,1.9,0c1.2-1.3,2.8-1.7,4.5-1.1
	c2,0.6,2.9,2.6,2.3,5.2c-0.5,2.4-1.8,4.3-3.2,6.2c-1,1.4-2.3,2.6-3.4,4c-1,1.2-1.4,1.2-2.5,0.1c-2-2-3.6-4.4-5.1-6.7
	C15.9,47.8,15.2,46.2,15.3,44.1z"/>
<path class="st2" d="M24.3,11.8c-1.1,0-2.2,0-3.4,0c-0.7,0-1.2,0.2-1.3,1c-0.2,1.9-0.4,3.9-0.5,5.8c-0.1,1.3,0,1.4,1.3,1
	c3.1-1.1,6-0.7,8.6,1.4c1.5,1.2,2.1,2.8,2.3,4.6c0.4,3.3-0.1,6.3-2.8,8.7c-4,3.5-10.3,1.9-11.8-3.1c-0.2-0.6-0.4-1.3,0.5-1.6
	c0.8-0.2,1.4-0.1,1.8,0.7c0.2,0.4,0.3,0.7,0.5,1.1c2.1,4,6.9,2.7,8.4-0.1c1.1-2.1,1.4-4.4,0.6-6.6c-1.2-3.6-6.3-4.4-9.2-1.4
	c-0.5,0.5-1,1-1.9,0.8c-0.8-0.2-1.2-0.6-1.2-1.5c0.4-3.9,0.8-7.7,1.1-11.6c0.1-1,0.6-1.5,1.5-1.5c3,0,6,0,9,0.1
	c0.6,0,0.9,0.2,0.7,0.8c-0.1,0.6,0.2,1.6-0.9,1.6C26.6,11.9,25.4,11.9,24.3,11.8C24.3,11.9,24.3,11.8,24.3,11.8z"/>
</svg>
