<?xml version="1.0" encoding="utf-8"?>
<!-- Generator: Adobe Illustrator 23.0.0, SVG Export Plug-In . SVG Version: 6.00 Build 0)  -->
<svg version="1.1" id="Layer_1" xmlns="http://www.w3.org/2000/svg" xmlns:xlink="http://www.w3.org/1999/xlink" x="0px" y="0px"
	 viewBox="0 0 46.2 69.1" style="enable-background:new 0 0 46.2 69.1;" xml:space="preserve">
<style type="text/css">
	.st0{fill:#FFFFFF;stroke:#828282;stroke-miterlimit:10;}
	.st1{fill:#D02203;}
	.st2{fill:#D02607;}
</style>
<path class="st0" d="M42.2,67.7H4.5c-1.5,0-2.8-1.3-2.8-2.8V4.4c0-1.5,1.3-2.8,2.8-2.8h37.7c1.5,0,2.8,1.3,2.8,2.8v60.5
	C45,66.4,43.7,67.7,42.2,67.7z"/>
<path class="st1" d="M29.6,47.7c0,1-0.5,1.5-1,2.1c-1.6,1.8-3.1,3.6-4.5,5.6c-0.8,1.1-1,1.1-1.8,0.1c-1.8-2.2-3.6-4.3-5.4-6.4
	c-0.6-0.8-0.7-1.5,0-2.2c1.8-2.2,3.6-4.5,5.4-6.7c0.5-0.6,0.8-0.6,1.2-0.1c0.7,0.8,1.5,1.6,2.1,2.4c1,1.2,1.9,2.4,3,3.4
	C29.2,46.5,29.6,47.1,29.6,47.7z"/>
<path class="st2" d="M23.8,10c3-0.2,5,1.3,6.2,3.6c1.3,2.4,1,5-0.5,7.3c-0.6,1-0.9,1.4,0.2,2.5c2.6,2.5,3.3,5.4,1.9,9
	c-1.1,2.8-4.7,4.6-8.2,4.3c-3.2-0.2-6-2.6-6.8-5.7c-0.7-2.8,0-5.4,2.1-7.3c0.8-0.8,0.6-1.1,0-1.9c-2.1-2.5-2.6-5.3-1.1-8.2
	C18.9,11,21.1,9.9,23.8,10z M24.4,24.2c-2.8,0-5.1,2.1-5.2,4.8c-0.1,2.7,2.2,4.9,5,5c2.7,0,5-2.2,5-4.9
	C29.3,26.3,27.1,24.2,24.4,24.2z M19.2,16.8c0,2.5,2.1,4.7,4.6,4.7c2.4,0,4.6-2.1,4.6-4.6c0.1-2.5-2-4.6-4.5-4.6
	C21.3,12.3,19.3,14.3,19.2,16.8z"/>
</svg>
