<?xml version="1.0" encoding="utf-8"?>
<!-- Generator: Adobe Illustrator 23.0.0, SVG Export Plug-In . SVG Version: 6.00 Build 0)  -->
<svg version="1.1" id="Layer_1" xmlns="http://www.w3.org/2000/svg" xmlns:xlink="http://www.w3.org/1999/xlink" x="0px" y="0px"
	 viewBox="0 0 46.2 69.1" style="enable-background:new 0 0 46.2 69.1;" xml:space="preserve">
<style type="text/css">
	.st0{fill:#FFFFFF;stroke:#828282;stroke-miterlimit:10;}
	.st1{fill:#CC352B;}
	.st2{fill:#D02607;}
</style>
<path class="st0" d="M42.2,67.7H4.5c-1.5,0-2.8-1.3-2.8-2.8V4.4c0-1.5,1.3-2.8,2.8-2.8h37.7c1.5,0,2.8,1.3,2.8,2.8v60.5
	C45,66.4,43.7,67.7,42.2,67.7z"/>
<path class="st1" d="M15.3,44.1c0-1.5,0.7-3.1,2.5-3.8c1.8-0.8,3.3-0.2,4.6,1.2c0.7,0.7,1.1,0.9,1.9,0c1.2-1.3,2.8-1.7,4.5-1.1
	c2,0.6,2.9,2.6,2.3,5.2c-0.5,2.4-1.8,4.3-3.2,6.2c-1,1.4-2.3,2.6-3.4,4c-1,1.2-1.4,1.2-2.5,0.1c-2-2-3.6-4.4-5.1-6.7
	C15.9,47.8,15.2,46.2,15.3,44.1z"/>
<path class="st2" d="M22.9,9.4c3-0.2,5,1.3,6.2,3.6c1.3,2.4,1,5-0.5,7.3c-0.6,1-0.9,1.4,0.2,2.5c2.6,2.5,3.3,5.4,1.9,9.1
	c-1.1,2.8-4.7,4.6-8.2,4.3c-3.2-0.2-6-2.6-6.8-5.7c-0.7-2.8,0-5.4,2.1-7.3c0.8-0.8,0.6-1.1,0-1.9c-2.1-2.5-2.6-5.3-1.1-8.2
	C18,10.3,20.2,9.2,22.9,9.4z M23.4,23.5c-2.8,0-5.1,2.1-5.2,4.8c-0.1,2.7,2.2,5,5,5c2.7,0,5-2.2,5-4.9
	C28.3,25.6,26.2,23.5,23.4,23.5z M18.3,16.1c0,2.5,2.1,4.7,4.6,4.7c2.4,0,4.6-2.1,4.6-4.6c0.1-2.5-2-4.6-4.5-4.6
	C20.4,11.7,18.3,13.6,18.3,16.1z"/>
</svg>
