<?xml version="1.0" encoding="utf-8"?>
<!-- Generator: Adobe Illustrator 23.0.0, SVG Export Plug-In . SVG Version: 6.00 Build 0)  -->
<svg version="1.1" id="Layer_1" xmlns="http://www.w3.org/2000/svg" xmlns:xlink="http://www.w3.org/1999/xlink" x="0px" y="0px"
	 viewBox="0 0 46.2 69.1" style="enable-background:new 0 0 46.2 69.1;" xml:space="preserve">
<style type="text/css">
	.st0{fill:#FFFFFF;stroke:#828282;stroke-miterlimit:10;}
	.st1{fill:#CC352B;}
	.st2{fill:#D12607;}
</style>
<path class="st0" d="M42.2,67.7H4.5c-1.5,0-2.8-1.3-2.8-2.8V4.4c0-1.5,1.3-2.8,2.8-2.8h37.7c1.5,0,2.8,1.3,2.8,2.8v60.5
	C45,66.4,43.7,67.7,42.2,67.7z"/>
<path class="st1" d="M15.1,43.7c0-1.5,0.7-3.1,2.5-3.8c1.8-0.8,3.3-0.2,4.6,1.2c0.7,0.7,1.1,0.9,1.9,0c1.2-1.3,2.8-1.7,4.5-1.1
	c2,0.6,2.9,2.6,2.3,5.2c-0.5,2.4-1.8,4.3-3.2,6.2c-1,1.4-2.3,2.6-3.4,4c-1,1.2-1.4,1.2-2.5,0.1c-2-2-3.6-4.4-5.1-6.7
	C15.7,47.4,15,45.8,15.1,43.7z"/>
<path class="st2" d="M18.1,36.2c-0.9,0-1.8,0-2.7,0c-1.2,0-0.9-0.8-0.9-1.5c0-0.8,0.4-1,1.1-0.9c1.1,0.2,1.4-0.4,1.6-1.4
	c1.4-6.5,2.4-13.1,3.6-19.6c0.2-1.1,0.5-1.7,1.8-1.7c2.1,0,2.2,0,2.6,1.7c1.4,6.5,2.8,13,4.2,19.5c0.2,0.9,0.5,1.5,1.5,1.5
	c0.8,0,0.9,0.6,0.9,1.2c0,0.7-0.4,1.1-1.1,1.1c-1.4,0-2.8,0.1-4.2,0.1c-0.7,0-1.3-0.1-1.3-1c-0.1-0.8,0.1-1.3,1-1.4
	c0.6,0,0.9-0.5,0.8-1.1c0-0.3-0.1-0.5-0.2-0.8c-0.6-4-1.5-3.9-5.3-3.5c-0.5,0-1,0.3-1.1,0.9c-0.2,1.1-0.4,2.3-0.6,3.4
	c-0.1,0.7,0.2,1.1,0.9,1.2c1.2,0.1,1,1,1,1.7s-0.7,0.7-1.3,0.7C19.5,36.2,18.8,36.2,18.1,36.2z M23.1,15.4c-0.1,0-0.2,0-0.3,0
	c-0.1,0.2-0.2,0.4-0.3,0.6c-0.4,2.3-0.9,4.5-1.2,6.8c-0.1,0.9-0.9,2.2,0,2.8c0.8,0.6,2,0.2,3,0.2h0.1c0.7,0,0.8-0.4,0.7-1
	c-0.3-1.2-0.5-2.3-0.8-3.5C24,19.3,23.6,17.4,23.1,15.4z"/>
</svg>
