<?xml version="1.0" encoding="utf-8"?>
<!-- Generator: Adobe Illustrator 23.0.0, SVG Export Plug-In . SVG Version: 6.00 Build 0)  -->
<svg version="1.1" id="Layer_1" xmlns="http://www.w3.org/2000/svg" xmlns:xlink="http://www.w3.org/1999/xlink" x="0px" y="0px"
	 viewBox="0 0 46.2 69.1" style="enable-background:new 0 0 46.2 69.1;" xml:space="preserve">
<style type="text/css">
	.st0{fill:#FFFFFF;stroke:#828282;stroke-miterlimit:10;}
	.st1{fill:#030303;}
	.st2{fill:#222219;}
</style>
<path class="st0" d="M42.2,67.7H4.5c-1.5,0-2.8-1.3-2.8-2.8V4.4c0-1.5,1.3-2.8,2.8-2.8h37.7c1.5,0,2.8,1.3,2.8,2.8v60.5
	C45,66.4,43.7,67.7,42.2,67.7z"/>
<path class="st1" d="M23,52.1c-0.7,0-0.9,0.5-1.2,0.8c-1.8,1.4-3.9,0.9-4.8-1.3c-0.5-1.4-0.5-2.8,0.3-4c1.9-2.9,4.1-5.5,6.3-8.4
	c2.2,2.6,4.3,5.2,6.2,7.9c0.9,1.3,1.1,2.7,0.6,4.2c-0.7,2.3-3.2,3-5,1.4c-0.2-0.2-0.3-0.3-0.5-0.5c-0.1-0.1-0.3-0.3-0.5-0.2
	c-0.3,0.1-0.2,0.4-0.1,0.6c0.1,0.7,0.3,1.4,0.4,2.1c0,0.3,0.4,0.9-0.1,1c-0.6,0.2-1.3,0.2-1.9,0.1c-0.4-0.1-0.2-0.6-0.1-1
	C22.7,54.1,23,53.1,23,52.1z"/>
<path class="st2" d="M26.3,22.6c0-2.5,0-5,0-7.4c0-0.4,0-0.8-0.6-1c-0.7-0.2-0.8-0.8-0.7-1.6c0.2-0.8,0.6-0.9,1.3-0.9
	c0.9,0.1,1.8,0.1,2.6,0.1c0.5,0,1,0.1,1,0.7c0.1,0.6,0.3,1.2-0.4,1.5c-0.9,0.4-0.9,1-0.9,1.8c0,4.8,0.1,9.6-0.1,14.4
	c-0.2,5.6-5,7.4-9.4,5.3c-1.3-0.6-2.3-2-2.5-3.6c-0.1-1-0.2-1.9-0.3-2.9c-0.1-0.8,0.2-1.3,1.1-1.3c0.8,0,1.3,0.2,1.3,1.1
	c0,0.5,0,1.1,0.1,1.7c0.6,3.6,4.1,4.3,6.3,2.5c1-0.8,1-2.1,1.1-3.3c0.1-1.2,0-2.4,0-3.6C26.4,24.9,26.4,23.8,26.3,22.6
	C26.4,22.6,26.3,22.6,26.3,22.6z"/>
</svg>
