<?xml version="1.0" encoding="utf-8"?>
<!-- Generator: Adobe Illustrator 23.0.0, SVG Export Plug-In . SVG Version: 6.00 Build 0)  -->
<svg version="1.1" id="Layer_1" xmlns="http://www.w3.org/2000/svg" xmlns:xlink="http://www.w3.org/1999/xlink" x="0px" y="0px"
	 viewBox="0 0 46.2 69.1" style="enable-background:new 0 0 46.2 69.1;" xml:space="preserve">
<style type="text/css">
	.st0{fill:#FFFFFF;stroke:#828282;stroke-miterlimit:10;}
	.st1{fill:#030303;}
	.st2{fill:#23231A;}
</style>
<path class="st0" d="M42.2,67.7H4.5c-1.5,0-2.8-1.3-2.8-2.8V4.4c0-1.5,1.3-2.8,2.8-2.8h37.7c1.5,0,2.8,1.3,2.8,2.8v60.5
	C45,66.4,43.7,67.7,42.2,67.7z"/>
<path class="st1" d="M23,52.1c-0.7,0-0.9,0.5-1.2,0.8c-1.8,1.4-3.9,0.9-4.8-1.3c-0.5-1.4-0.5-2.8,0.3-4c1.9-2.9,4.1-5.5,6.3-8.4
	c2.2,2.6,4.3,5.2,6.2,7.9c0.9,1.3,1.1,2.7,0.6,4.2c-0.7,2.3-3.2,3-5,1.4c-0.2-0.2-0.3-0.3-0.5-0.5c-0.1-0.1-0.3-0.3-0.5-0.2
	c-0.3,0.1-0.2,0.4-0.1,0.6c0.1,0.7,0.3,1.4,0.4,2.1c0,0.3,0.4,0.9-0.1,1c-0.6,0.2-1.3,0.2-1.9,0.1c-0.4-0.1-0.2-0.6-0.1-1
	C22.7,54.1,23,53.1,23,52.1z"/>
<path class="st2" d="M30.2,23.5c-0.1,2.3,0.2,5.2-0.2,8c-0.1,0.5,0,1-0.3,1.4c-0.8,1.2-0.4,2,0.7,2.7c0.3,0.2,0.5,0.5,0.7,0.8
	c0.4,0.6,0,1.2-0.3,1.6c-0.4,0.5-0.9,0.2-1.3,0c-0.1-0.1-0.3-0.2-0.4-0.3c-0.9-0.5-1.4-1.8-2.3-2c-0.8-0.2-1.9,0.4-2.9,0.3
	c-2.4-0.1-4.6-0.8-5.9-3c-0.1-0.2-0.3-0.4-0.6-0.2c-0.9,0.6-1.2-0.2-1.7-0.7c-0.5-0.5-0.4-1,0.2-1.3c1.4-0.6,1.6-1.8,1.6-3.1
	c0-3.5,0.2-7,0-10.4c-0.2-4.1,2.2-5.9,6.5-6.1c2.5-0.1,4.3,1.1,5.6,3.1c0.3,0.5,0.4,1,0.4,1.6C30.1,18.3,30.2,20.6,30.2,23.5z
	 M27.8,23.5c0-2,0-4.1,0-6.1c0-2.5-1.1-3.6-3.5-3.8c-2.1-0.2-4.1,1.1-4.2,2.9c-0.1,3.8,0,7.6,0,11.4c0,0.6,0.3,1,0.9,0.9
	c2.3-0.2,4.2,0.7,5.8,2.3c0.2,0.2,0.4,0.5,0.7,0.4c0.4-0.1,0.3-0.5,0.3-0.8C27.8,28.2,27.8,25.8,27.8,23.5z M23.2,33.7
	c0.7-0.1,1.5,0,1.7-0.5c0.2-0.5-0.5-1-0.9-1.4c-0.3-0.2-0.6-0.5-0.9-0.5c-0.9-0.3-2.3-0.3-2.5,0.4c-0.3,0.8,0.9,1.5,1.7,1.8
	C22.6,33.6,22.9,33.6,23.2,33.7z"/>
</svg>
